<?xml version="1.0" encoding="utf-8"?>
<!-- Generator: Adobe Illustrator 16.0.0, SVG Export Plug-In . SVG Version: 6.00 Build 0)  -->
<!DOCTYPE svg PUBLIC "-//W3C//DTD SVG 1.1//EN" "http://www.w3.org/Graphics/SVG/1.1/DTD/svg11.dtd">
<svg version="1.1" id="Ebene_1" xmlns="http://www.w3.org/2000/svg" xmlns:xlink="http://www.w3.org/1999/xlink" x="0px" y="0px"
	 width="316px" height="454px" viewBox="0 0 316 454" enable-background="new 0 0 316 454" xml:space="preserve">
<path fill="#88C3CB" d="M181.9,326.34l81.736-1.053c0,0-11.757-42.862-42.231-38.043S181.9,326.34,181.9,326.34z"/>
<path fill="#88C3CB" d="M8.234,331.609l111.741-1.012c0,0-16.073-41.186-57.734-36.555C20.58,298.674,8.234,331.609,8.234,331.609z"
	/>
<g>
	<path fill="#71BF17" d="M227.199,190.141c5.89-4.892,4.916-11.506,4.506-17.977c-0.098-1.549-0.113-3.113-0.346-4.644
		c-0.396-2.608,0.597-3.183,2.871-2.174c0.793,0.352,1.598,0.675,2.396,1.012c1.777,7.793,3.346,15.631,3.907,23.614
		c0.429,6.104,1.44,12.216,0.298,18.352c-1.209-0.103-2.419-0.204-3.99-0.338c2.237,1.947,4.479,3.226,6.83,4.335
		c0.43,1.062,1.454,1.117,2.348,1.482c5.141,2.107,10.554,1.375,15.873,1.61c0.057,0.67,0.113,1.341,0.187,2.198
		c1.755-0.556,2.254-2.108,2.944-3.374c3.636-6.659,3.846-13.877,3.066-21.16c-0.424-3.972-1.311-7.894-1.982-11.838
		c-0.195-1.151-0.478-2.307,0.049-3.671c1.783,0.962,1.845,3.103,3.259,4.355c-0.124-2.409-0.31-4.704-0.337-7
		c-0.018-1.331-0.203-3.212,1.346-3.523c1.883-0.38,2.151,1.687,2.61,2.968c1.077,2.997,1.958,6.066,3.047,9.514
		c1.673-2.298,1.843-4.606,2.675-6.646c0.738-1.81,1.329-3.682,2.131-5.461c0.432-0.955,1.059-2.088,2.28-2.018
		c1.271,0.072,1.642,1.284,1.867,2.339c0.612,2.869,1.146,5.739,0.726,8.718c-0.281,1.993-0.314,4.021-0.47,6.168
		c1.336-0.052,1.437-0.973,1.875-1.521c0.89,0.628,0.452,1.337,0.155,2.07c-2.67,6.599-5.346,13.171-8.771,19.455
		c-4.832,8.868-11.624,13.948-22.105,13.211c-1.479-0.104-3.12-0.594-4.528,0.473c-0.567-0.016-1.136-0.032-1.702-0.047
		c-0.525-1.415-1.4-1.274-2.41-0.539c-1.688,0.083-3.318-1.071-5.486-0.156c3.324,1.637,2.215,4.189,1.985,6.659
		c-0.589,6.372-2.018,12.532-4.313,18.492c-0.403,1.049-0.711,2.226-1.93,3.099c-1.36-3.397-0.346-7.058-1.766-10.371
		c-1.807,8.801-3.975,17.467-7.372,25.773c-0.989,0.076-1.319,0.896-1.886,1.529c-1.1,1.234-1.924,2.865-3.818,3.152
		c0-1.926,0-3.852,0-5.775c-0.225-0.111-0.449-0.223-0.674-0.334c-1.912,4.123-4.615,7.715-7.023,11.505
		c-1.144-0.052-1.678,0.776-2.285,1.538c-3.784,4.746-6.516,3.832-8.807-0.418c-0.437-0.812-0.387-2.24-1.834-2.34
		c0-2.551,0-5.103,0-7.652c-0.168-0.035-0.335-0.07-0.503-0.105c-0.868,2.172-1.735,4.344-2.603,6.514
		c-1.33,0.473-1.719,1.761-2.391,2.791c-1.746,2.684-3.545,5.337-5.808,7.613c-2.991,3.008-4.919,2.471-6.128-1.666
		c-0.898-3.072-1.359-6.231-1.651-9.416c0-2.51,0-5.019,0-8.49c-2.091,5.638-4.854,10.031-7.38,14.558
		c-1.855,0.646-2.648,2.453-3.941,3.7c-4.551,4.393-6.896,4.036-9.727-1.693c-0.256-0.519-0.314-1.152-0.629-1.623
		c-1.331-1.99-1.314-4.646-3.171-6.367c-0.024-1.922-0.05-3.846-0.075-5.769c0.53-0.817,0.906-1.827,0.016-2.415
		c-0.441-0.292-0.653,0.684-0.704,1.236c-2.124,6.052-4.881,11.822-7.761,17.539c-2.805,2.037-4.08,5.354-6.521,7.746
		c-1.863,1.824-3.379,1.75-5.391,0.604c-3.34-1.904-6.233-4.332-8.885-7.088c-0.865-0.898-1.646-2.012-3.158-1.811
		c-1.978-2.605-3.956-5.215-6.296-8.301c-0.737,3.795,1.26,6.756,1.226,9.918c-1.31,6.949-2.34,7.57-9.092,5.484
		c-5.293-5.027-8.703-11.414-12.564-17.471c-1.676-2.627-3.211-5.344-4.84-8.002c-0.375-0.609-0.531-1.543-1.95-1.358
		c1.299,3.47,2.566,6.86,3.837,10.25c-1.833,1.282-3.687,0.291-5.533,0.047c-6.336-8.772-8.821-19.069-11.646-29.245
		c-0.534-1.921,0.26-2.74,1.879-3.23c2.406-0.728,4.868-0.631,7.261-0.123c7.156,1.517,14.261,3.281,21.431,4.724
		c9.587,1.927,19.303,2.763,29.068,3.333c8.415,0.491,16.803,0.432,25.192-0.088c16.872-1.042,33.708-2.407,49.823-8.104
		c3.701-1.311,7.182-3.076,10.26-5.586c6.076-4.951,6.631-11.917,1.228-17.631c-5.271-5.573-12.088-8.532-19.198-10.873
		c-11.979-3.942-24.4-5.123-36.897-6.038c-10.272-0.753-20.544-0.875-30.745,0.195c-15.919,1.672-31.575,4.591-45.284,13.704
		c-3.18,2.113-6.207,4.43-8.345,7.703c-0.928,1.42-1.47,2.963-1.794,4.607c-0.264,1.332,0.718,3.433-0.304,3.853
		c-1.483,0.61-3.433,0.089-5.188,0.376c-0.935,0.152-1.312-0.569-1.426-1.476c-1.502-11.853-2.009-23.718-0.858-35.645
		c0.839-8.693,2.561-17.191,4.859-25.603c0.721-2.639,1.709-5.135,2.921-7.563c0.772-0.435,0.782-1.116,0.601-1.858l-0.008,0.003
		c1.786-0.481,1.782-2.196,2.4-3.482c4.383-7.58,8.743-15.177,15.096-21.364c1.341,1.285,3.152,1.436,4.803,1.932
		c5.397,1.621,10.829,3.134,16.229,4.749c14.994,4.485,29.967,9.044,44.983,13.455c2.16,0.635,2.942,1.596,2.974,3.862
		c0.101,7.796,1.157,15.497,3.147,23.041c1.256,4.766,3.088,9.268,7.192,12.405c0.588,0.449,0.802,0.82,0.115,1.326
		c-1.019-0.327-2.058-0.6-3.05-0.991c-7.727-3.047-15.875-4.064-24.036-4.053c-8.556,0.012-17.043,1.314-25.129,4.432
		c-1.742,0.071-3.298,0.53-4.586,1.551c0.107,0.28,0.215,0.561,0.322,0.841c1.422-0.424,2.843-0.848,4.264-1.271
		c8.959-1.794,18.013-2.895,27.143-2.846c8.255,0.045,16.396,1.425,24.487,3.015c2.995,1.646,6.444,1.729,9.642,2.785
		c9.646,3.184,19.487,2.552,29.083-0.396c2.382-0.732,5.405-1.326,6.597-4.275c0.155-0.048,0.312-0.089,0.474-0.12
		C226.801,191.367,227.203,190.983,227.199,190.141z M84.78,163.618c-0.285,0.248-0.736,0.446-0.83,0.753
		c-2.351,7.69-3.911,15.417-2.188,23.539c0.927,4.372,3.244,7.781,6.109,10.978c-1.035,0.649-2.07,1.3-3.105,1.95
		c7.436-0.372,14.104-2.891,19.046-8.214c11.492-12.375,12.466-27.114,7.835-42.474c-2.41-7.995-9.24-9.933-16.247-5.262
		C88.746,149.324,86.273,156.213,84.78,163.618z M188.624,248.075c-10.61,1.936-21.257,3.735-32.118,3.962
		c-10.737,0.222-21.444-0.301-32.133-1.159C146.15,258.305,167.622,258.246,188.624,248.075z M241.51,218.92
		c-0.179-0.096-0.41-0.304-0.664-0.334c-0.324-0.039-0.597,0.206-0.418,0.534c0.108,0.199,0.441,0.35,0.69,0.381
		C241.38,219.533,241.729,219.452,241.51,218.92z M122.821,194.59c-0.163-0.102-0.312-0.266-0.466-0.271
		c-0.16-0.005-0.326,0.144-0.49,0.225c0.151,0.095,0.301,0.259,0.456,0.266C122.481,194.816,122.649,194.672,122.821,194.59z"/>
	<path fill="#A1D350" d="M177.848,307.654c-6.688,8.558-8.336,18.519-7.971,28.999c0.197,5.688,1.323,11.241,2.816,16.726
		c0.777,2.857,0.67,2.956-2.312,2.302c-2.375-0.52-4.748-1.052-7.132-1.527c-0.187-0.037-1.011-0.363-0.667,0.488
		c0.092,0.229,0.402,0.367,0.611,0.548c0.205,0.232,0.412,0.468,0.617,0.7c0,0-0.049-0.051-0.049-0.052
		c0.225,0.565,0.721,0.599,1.221,0.618l-0.027-0.057c0.218,0.21,0.438,0.42,0.654,0.631c0,0-0.06-0.062-0.059-0.062
		c0.211,0.884,0.986,1.146,1.668,1.512c6.405,3.425,13.319,4.496,20.406,3.672c7.745-0.901,15.462-1.749,23.277-1.6
		c8.972,0.172,17.005,2.216,22.259,10.329c1.836,1.972,1.616,4.559,1.471,6.813c-0.562,8.601-4.127,15.945-10.144,22.105
		c-0.271,0.279-0.532,0.592-0.857,0.792c-1.246,0.769-2.852,1.905-3.99,0.918c-1.283-1.11,0.315-2.443,0.987-3.48
		c2.421-3.74,5.799-6.909,6.731-11.521c0.699-0.105,0.873-0.606,1.054-1.216c2.534-8.547-5.188-18.979-14.183-19.426
		c-11.166-0.557-21.858,2.146-32.631,4.359c-9.379,1.929-18.699,3.111-27.729-1.457c-0.184-1.428-0.283-2.872-0.57-4.277
		c-0.364-1.775-0.645-3.724-2.681-4.444c-2.06-0.729-3.106,1.017-4.422,2.049c-3.065-3.4-5.686-7.133-8.161-10.971
		c-2.759-10.709-2.9-21.662-3.037-32.614c-0.042-3.314-0.007-6.631-0.007-9.244c-0.59,1.231-0.854,3.362-1.277,5.45
		c-2.597,1.151-2.886,3.986-4.286,5.998c-4.254,6.111-8.582,12.092-14.995,16.204c-5.771,3.701-11.947,6.633-18.016,9.776
		c-6.77,3.507-13.439,7.226-18.948,12.581c-1.513,1.471-3.527,2.88-3.622,5.417c-3.114-0.072-5.471-1.814-7.877-3.503
		c-1.181-0.829-0.814-1.5-0.101-2.366c4.631-5.623,9.855-10.459,16.412-13.882c12.191-6.366,21.01-15.999,26.566-28.585
		c0.417-0.943,1.008-1.914,0.63-3.464c-2.204,3.122-3.69,6.421-6.257,8.915c-0.173,0.21-0.347,0.42-0.52,0.63l-0.009,0.015
		c-1.253-0.299-1.944,0.592-2.799,1.244c-8.432,6.436-17.709,9.863-28.424,7.478c-3.511-0.78-6.858-2.364-10.386-2.981
		c-2.121-0.37-4.479-2.35-6.686-0.032c-0.568,0.044-1.138,0.087-1.707,0.132c-0.854-0.896-1.449-0.691-1.83,0.429
		c-6.97,2.065-10.429,7.272-12.376,13.832c-0.027,0.094-0.02,0.2-0.062,0.284c-0.418,0.809-0.08,2.448-1.236,2.309
		c-1.163-0.142-1.069-1.631-1.015-2.71c0.812-2.281,1.514-4.607,2.45-6.835c5.057-12.027,16.996-16.417,29.347-12.606
		c0.364,0.771,0.905,1.184,1.823,1.149c12.255-0.457,23.846-2.953,33.591-11.021c4.16-3.444,6.87-7.947,9.003-12.834
		c1.045,0.882,2.03,1.849,3.145,2.629c5.984,4.192,8.985,4.009,14.243-0.958c1.091-1.031,1.671-0.464,2.391,0.293
		c1.616,1.701,3.325,3.294,5.253,4.648c4.64,3.258,8.823,2.533,11.987-2.186c1.574-2.348,2.996-4.771,4.064-7.428
		c0.728-1.809,1.006-3.932,2.735-5.459c2.567,3.473,5.247,6.72,9.532,7.475c4.484,0.79,7.654-2.055,10.771-5.162
		c1.006,3.08,2.086,5.634,5.248,6.554c4.122,1.2,7.723,0.135,10.958-2.372c2.465-1.911,4.603-4.199,6.554-6.639
		c0.572-0.717,1.096-1.317,1.659-0.103c1.24,2.675,3.819,3.093,6.229,3.817c0.992,4.59,2.246,9.08,4.781,13.108
		c2.592,4.122,6.213,6.887,10.912,8.604c-4.05,0.628-8.1,1.255-12.908,2c1.775,0.264,2.805,0.416,3.832,0.566
		c0.213,0.842,0.877,0.847,1.582,0.977c10.849,2.009,20.043-1.423,27.863-8.776c6.534-6.143,10.047-14.042,12.235-22.614
		c1.745-6.832,4.075-13.408,8.044-19.354c5.208-7.8,16.643-7.917,20.957-3.961c3.645,3.34,5.15,7.688,5.556,12.497
		c-1.44-0.691-1.534-2.168-1.944-3.431c-1.271-3.906-4-6.207-7.944-6.926c-4.029-0.734-7.169,0.773-9.603,4.127
		c-5.023,6.93-7.783,14.811-9.865,22.975c-0.514,2.017-0.967,3.382-3.575,2.693c-1.527-0.402-3.14,0.233-3.997,1.803
		c-0.868,1.585-0.307,2.998,0.699,4.334c0.699,0.93,1.324,1.914,1.982,2.874c-0.334,0.697-0.718,1.378-0.994,2.098
		c-3.99,10.374-10.515,18.45-20.994,22.801c-11.086,4.604-22.103,4.275-32.775-1.244c-9.661-4.995-15.456-13.496-20.049-22.988
		c-0.359-0.74-0.418-2.025-1.395-1.994C178.566,305.604,177.994,306.598,177.848,307.654z"/>
	<path fill="#71BF17" d="M179.09,108.223c-4.461,4.85-4.43,8.324,0.449,13.335c8.975,9.214,19.749,14.873,32.732,15.604
		c5.114,0.288,7.041-1.553,8.062-6.469c8.45,8.688,12.049,19.672,14.724,31.094c-2.037,0.149-3.943,0.123-4.373-2.546
		c-0.152-0.951-1.033-1.373-1.729-1.893c-14.152-10.539-30.026-14.517-47.483-12.442c-2.6,0.309-5.425-0.192-7.381,2.386
		c-0.271,0.359-1.682,0.013-2.502-0.224c-21.285-6.135-42.562-12.299-63.84-18.459c-0.633-0.184-1.409-0.134-1.629-0.994
		c1.238-2.604,3.79-3.801,5.952-5.329c13.022-9.199,27.646-14.148,43.44-15.415C163.373,106.24,171.334,105.997,179.09,108.223z"/>
	<path fill="#A1D350" d="M274.825,147.861c-2.247,2.935-5.272,3.816-8.81,3.323c-3.748-0.523-7.205-2.037-10.927-3.47
		c3.509,5.746,13.153,8.3,18.951,4.949c2.222-1.284,2.688-0.404,3.09,1.417c0.472,2.137,0.14,4.236-0.313,6.348
		c2.82-2.952,3.58-6.369,2.125-10.154c-0.83-2.156-0.625-2.784,1.908-2.292c4.209,0.818,7.221-1.073,8.346-5.012
		c1.433-5.013,0.791-10-0.758-14.974c-0.235,2.818-0.457,5.639-0.711,8.456c-0.211,2.354-0.684,4.665-1.89,6.72
		c-1.731,2.947-4.396,2.997-6.217,0.136c-0.944-1.482-1.577-3.118-1.771-4.893c1.01-2.573,0.605-5.336,1.06-7.997
		c1.038-6.114,3.075-7.478,8.931-5.55c0.358,0.119,0.77,0.078,1.156,0.112c0.193,0.215,0.367,0.585,0.588,0.617
		c1.098,0.16,0.557-0.73,0.504-1.048c-0.49-2.999-0.714-6.022-0.521-9.042c0.524-8.233,2.768-15.873,8.113-22.372
		c3.245,1.833,3.793,3.003,3.078,6.821c-0.285,1.531-0.646,3.051-1.021,4.562c-2.381,9.604-2.771,19.311-1.271,29.064
		c0.572,3.717,0.378,7.359,0.148,11.073c-0.201,3.232-1.852,6.323-0.91,9.646c-1.895,4.914-3.79,9.829-5.686,14.74
		c-0.578-1.854-1.086-3.732-1.748-5.555c-1.578-4.34-4.867-5.027-8.334-1.907c-1.961,1.767-3.312,4.012-5.164,6.366
		c-2.049-4.812-5.102-7.323-10.285-5.265c-2.997-2.56-6.51-4.176-10.144-5.6c-6.216-2.438-8.2-5.885-7.418-12.709
		c0.524-0.694,1.075-1.373,1.571-2.088c3.206-4.617,5.396-5.354,10.634-3.64c2.212,0.724,4.433,1.804,6.688,1.92
		c4.268,0.218,6.078,2.407,6.453,6.344C274.305,147.242,274.634,147.545,274.825,147.861z"/>
	<path fill="#71BF17" d="M24.158,198.276c-2.057-5.512-3.036-11.272-3.656-17.075c-0.496-4.634-1.271-9.307-0.121-13.973
		c0.188-0.757,0.311-1.538,0.582-2.264c0.88-2.353,2.464-2.637,4.109-0.7c0.951,1.119,1.61,2.401,1.922,3.894
		c0.512,2.447,1.182,4.862,1.972,7.279c-0.046-4.215,0.86-8.153,2.905-11.788c0.957-1.701,1.989-3.588,4.294-3.474
		c2.428,0.12,2.886,2.273,3.588,4.089c1.798,4.645,1.106,9.414,1.079,14.317c0.791-2.028,1.411-4.146,2.415-6.062
		c1.628-3.106,2.958-6.579,6.888-7.651c1.467,1.177,0.834,2.662,0.457,3.995c-1.46,5.152-3.078,10.26-4.521,15.417
		c-2.294,8.196-4.18,16.386,2.521,23.639c-0.99,1.615-3.191-0.42-4.124,1.368c0.617,1.292,1.878,1.541,3.071,1.897
		c0.75,0.151,1.487,0.614,2.266,0.095l-0.015-0.018c-0.253,1.732,1.266,1.179,1.986,1.393c6.233,1.855,12.32,0.804,18.342-1.115
		c0.731,0.521,0.62,1.293,0.604,2.037c-5.529,2.6-10.767,5.93-16.958,6.887c-5.071,0.783-9.963,0.277-14.272-2.721
		c-4.044-2.814-6.946-6.72-9.864-10.646C27.541,204.29,26.929,200.617,24.158,198.276z"/>
	<path fill="#A1D350" d="M204.802,38.557c-3.772,7.45-3.86,15.503-3.536,23.526c0.407,10.069,1.226,20.122,1.828,30.184
		c0.434,7.206-0.248,14.184-4.869,21.054c1.104-7.549,0.978-14.44,0.978-21.331c-0.002-10.52-1.869-20.834-3.259-31.212
		c-1.434-10.714-1.432-21.464,0.662-32.139c0.076-0.387,0.086-0.772,0.521-0.945c1.459-1.816,2.776-3.773,4.41-5.417
		c4.104-4.135,8.214-4.077,12.192,0.157c3.599,3.828,5.078,8.745,6.385,13.649c2.588,9.717,2.904,19.58,1.926,29.579
		c-0.962,9.836-2.943,19.411-5.771,28.863c-0.662,2.21-2.143,4.343-1.466,6.87c-1.771,4.331-3.661,8.604-6.208,12.552
		c-2.225,0.806-4.275,0.106-6.312-0.726c2.01-5.271,4.104-10.511,6.016-15.817c6.034-16.741,8.205-33.956,6.067-51.661
		c-0.471-3.896-1.221-7.741-3.24-11.191c-1.781-3.042-4.984-4.68-7.504-3.915c-2.354,0.715-4.615,4.282-4.668,7.247
		c-0.021,1.158,0.373,1.132,1.117,0.538C201.656,38.149,203.245,37.805,204.802,38.557z"/>
	<path fill="#A1D350" d="M127.862,90.856c2.59-9.474,7.354-18.095,10.707-27.269c2.854-7.809,5.837-15.596,5.404-24.14
		c-0.068-1.355,0.012-2.726-0.614-4.025c-0.289-0.6-1.255-1.309-0.262-2.019c0.937-0.669,1.922-0.335,2.645,0.433
		c0.659,0.701,1.17,1.542,1.733,2.332c0.539,0.757,0.578,1.863,1.58,2.326c1.338-3.375,0.707-7.236-1.43-8.87
		c-2.077-1.59-5.982-1.035-8.64,1.309c-3.231,2.85-5.179,6.6-6.954,10.417c-7.657,16.46-10.64,33.843-10.056,51.904
		c0.114,3.516,0.212,7.043,0.586,10.536c0.272,2.55-0.587,3.89-3.117,4.163c-0.676-0.205-0.818-0.742-0.893-1.357
		c-1.442-12.024-2.417-24.034-1.329-36.187c0.929-10.368,2.775-20.464,6.536-30.175c2.993-7.729,6.8-14.978,13.269-20.426
		c2.878-2.423,6.122-4.532,10.141-3.271c4.089,1.283,5.083,4.94,6.113,8.613c0.643,2.288-0.015,4.691,0.97,6.882
		c-1.57,11.155-5.427,21.592-10.57,31.503c-5.643,10.874-10.688,21.952-14.104,33.736c-1.463-0.218-0.988-1.389-1.134-2.271
		C128.219,93.623,129.013,92.102,127.862,90.856z"/>
	<path fill="#FDFDFD" d="M30.503,271.846c-1.232-7.781,1.847-13.781,7.944-18.291c6.108-4.519,12.977-4.059,19.818-2.154
		c0.412-1.006-0.232-1.432-0.665-1.564c-3.387-1.042-2.011-2.812-0.83-4.664c7.311-11.455,18.428-15.886,31.584-12.531
		c2.177,0.555,4.334,1.188,6.494,1.807c4.41,1.266,8.506,0.711,12.224-2.078c2.42-1.814,4.839-3.635,7.258-5.453
		c0.206,0.459,0.412,0.918,0.618,1.376c-2.118,1.866-4.147,3.847-6.374,5.573c-4.612,3.578-9.76,4.65-15.446,2.982
		c-2.712-0.797-5.471-1.453-8.329-1.512c-3.112-0.064-5.949,0.836-8.596,2.417c-2.5-0.642-3.707,1.378-4.711,2.822
		c-2.497,3.597-4.652,7.426-6.5,11.437c-1.183,2.565-1.276,4.754,0.591,6.92c2.21,3.178,3.171,6.698,2.908,10.558
		c-1.15,0.005-1.018,0.915-1.208,1.647c-1.028,3.952-2.952,7.355-6.057,10.09c-6.103,5.373-17.619,7.32-24.539-0.283
		C34.146,278.146,32.92,274.625,30.503,271.846z M61.01,261.139c-1.274-0.923-2.427-1.772-3.596-2.6
		c-4.228-2.984-4.393-3.085-7.156,1.256c-1.584,2.487-2.682,2.715-4.942,0.745c-3.924-3.42-4.051-3.274-7.191,0.759
		c-2.742,3.521-2.742,3.521,0.674,6.239c3.771,3,3.771,3,1.062,6.771c-2.639,3.674-2.639,3.674,1.104,6.342
		c4.117,2.936,4.118,2.936,6.979-1.069c2.208-3.095,2.208-3.095,5.204-0.728c3.83,3.025,3.83,3.025,6.751-0.701
		c3.018-3.852,3.018-3.852-0.729-6.82c-3.44-2.729-3.44-2.727-0.839-6.396C59.171,263.749,60.006,262.561,61.01,261.139z"/>
	<path fill="#A1D350" d="M179.229,394.097c-2.123,7-4.429,13.981-4.695,21.364c-0.301,8.294,2.562,15.149,9.756,19.814
		c0.984,0.639,1.973,1.275,2.926,1.961c1.039,0.748,2.251,1.553,1.875,3.029c-0.355,1.4-1.722,1.744-2.988,2.033
		c-7.011,1.603-16.102-2.505-20.424-9.397c-3.931-6.27-5.475-13.35-6.544-20.55c-0.462-3.102-0.685-6.226-0.483-9.364
		c1.473-0.76,1.125-2.334,1.524-3.543c1.9-5.744,5.171-10.212,11.169-12.114c3.451-1.095,6.499,0.865,7.118,4.41
		C178.605,392.562,178.262,393.542,179.229,394.097z"/>
	<path fill="#FDFDFD" d="M214.878,174.732c0.619,3.01,1.187,5.67,1.708,8.338c0.318,1.631,0.061,2.914-1.969,3.147
		c-1.821,0.209-3.615,0.462-4.158-1.951c-0.391-1.741-0.727-3.494-1.236-5.971c-1.123,1.836-0.73,3.081-0.748,4.248
		c-0.054,3.444-0.772,4.345-3.627,4.461c-2.908,0.119-3.736-0.702-4.08-4.023c-0.189-1.831-0.396-3.661-1.002-5.517
		c-0.351,2.062-0.777,4.113-1.027,6.187c-0.245,2.029-1.305,3.01-3.299,2.836c-2.094-0.183-3.48-1.141-3.467-3.513
		c0.021-3.24,0.465-6.427,1.026-9.605c0.101-0.561,0.078-1.144,0.126-1.935c-2.482,0.791-4.766,1.631-7.23,1.479
		c-3.557-0.218-4.947-2.244-3.694-5.531c0.379-0.992,0.938-1.94,1.545-2.817c8.331-12.039,27.259-13.51,37.392-2.913
		c2.112,2.208,3.164,4.92,3.439,7.915c0.421,4.566-1.735,6.619-6.264,6.001C217.273,175.426,216.264,175.077,214.878,174.732z
		 M197.959,160.232c-3.236-0.15-8.402,3.275-9.305,5.873c-0.602,1.729,0.098,2.614,1.873,2.694c2.858,0.128,7.882-3.236,8.838-5.896
		C200,161.138,199.229,160.347,197.959,160.232z M211.488,161.062c-1.945-0.073-2.777,1.182-1.783,3.12
		c1.59,3.099,4.186,5.15,7.579,5.971c2.036,0.493,2.97-0.665,2.382-2.66C218.866,164.778,214.271,161.165,211.488,161.062z"/>
	<path fill="#71BF17" d="M207.16,295.404c-2.409-0.725-4.988-1.144-6.229-3.817c-0.563-1.216-1.088-0.614-1.66,0.103
		c-1.951,2.438-4.088,4.728-6.554,6.639c-3.235,2.507-6.836,3.572-10.958,2.372c-3.162-0.92-4.242-3.474-5.248-6.554
		c-3.117,3.107-6.287,5.952-10.771,5.162c-4.285-0.755-6.965-4.002-9.532-7.475c-1.729,1.527-2.008,3.65-2.735,5.459
		c-1.068,2.656-2.49,5.08-4.064,7.428c-3.164,4.719-7.348,5.442-11.987,2.186c-1.928-1.354-3.637-2.947-5.253-4.648
		c-0.72-0.757-1.3-1.324-2.391-0.293c-5.258,4.967-8.259,5.15-14.243,0.958c-1.114-0.78-2.1-1.747-3.145-2.629
		c0.035-0.193,0.061-0.389,0.11-0.577c1.019-3.894,1.019-3.894,4.717-2.229c5.902,2.658,8.959,0.809,9.365-5.674
		c0.042-0.674,0.067-1.352,0.115-2.336c2.103,1.379,3.149,3.398,4.565,5.033c1.686,1.942,3.559,3.651,5.622,5.126
		c3.809,2.725,7.004,2.177,9.896-1.542c3.778-4.854,5.997-10.504,8.193-16.162c0.271-0.697,0.533-1.399,0.933-2.451
		c1.119,2.322,2.117,4.299,3.028,6.312c0.735,1.626,1.721,3.057,2.955,4.332c3.961,4.104,7.719,4.014,11.48-0.249
		c2.124-2.405,3.806-5.139,5.8-8.319c0.867,3.155,0.913,5.888,1.938,8.385c2.272,5.535,6.57,6.552,11.047,2.519
		c3.592-3.235,5.584-7.485,7.344-11.866c0.25-0.623,0.486-1.252,0.914-2.355c1.71,3.788,3.393,7.048,5.695,10.058
		C207.382,289.96,206.868,292.991,207.16,295.404z"/>
	<path fill="#A1D350" d="M237.906,342.008c3.558-0.639,7.178-0.873,10.676-1.904c11.081-3.269,16.792-12.723,14.312-24.041
		c-1.03-4.701-2.377-9.318-6.209-12.689c-0.604-0.53-1.146-1.21-0.541-2.03c0.564-0.763,1.389-0.565,2.146-0.291
		c2.861,1.036,5.264,2.711,6.548,5.529c3.66,8.021,5.296,16.341,3.304,25.12c-1.844,1.422-2.35,3.724-3.627,5.523
		c-5.023,7.086-10.936,13.022-19.802,14.91c-6.782,1.444-13.647,1.958-20.577,0.985c-1.102-0.154-2.328-0.51-3.361,0.368
		c-5.514-0.857-11.035-0.88-16.563-0.158c0.485-1.491,1.655-2.414,2.86-3.238c3.394-2.32,7.257-3.272,11.285-3.62
		c4.656-0.398,9.371-0.473,13.869-1.856C234.199,344.007,236.546,344.02,237.906,342.008z"/>
	<path fill="#A1D350" d="M18.551,154.98c-5.352-5.456-7.545-11.824-5.158-19.28c3.043-9.51,3.412-19.089,1.945-28.937
		c-0.663-4.45-0.885-9.133,0.906-13.544c0.576-0.232,0.582-0.729,0.57-1.233l-0.059,0.015c0.336-0.173,0.686-0.323,1.003-0.523
		c1.445-0.909,2.766-2.373,4.704-1.073c1.927,1.292,1.686,3.209,1.191,5.002c-1.069,3.883-0.938,7.892-1.416,11.833
		c-0.129,1.062-0.749,2.669,1.178,3.107c-5.579,5.453-6.859,12.279-5.986,19.641c0.699,5.896,4.17,7.972,10.014,6.245
		c0.903-0.268,1.246-0.087,1.513,0.679c1.181,3.382,4.018,4.305,7.133,4.648c1.614,0.178,2.272,0.498,1.452,2.265
		c-1.012,2.18-0.897,4.561-0.646,6.909c0.044,1.317-0.613,1.788-1.905,2.001c-2.63,0.432-4.757,1.931-6.082,4.176
		c-1.055,1.789-1.974,1.495-3.154,0.401C23.707,155.414,21.363,154.487,18.551,154.98z"/>
	<path fill="#A1D350" d="M124.978,371.17c-1.772-0.246-2.358-2.221-3.94-2.753c-0.329,0.536-0.066,0.96,0.14,1.403
		c2.482,5.325,6.747,7.41,12.515,7.451c5.666,0.039,9.933-1.757,12.161-7.254c0.366-0.9,0.835-1.763,1.257-2.642
		c1.184,2.57-0.033,4.87-0.997,7.084c-2.59,5.944-7.084,9.812-13.544,10.755c-7.007,1.022-13.114-0.692-17.413-6.923
		c-1.13-1.639-1.722-3.713-3.56-4.838c-1.68-5.79-2.269-11.622-0.673-17.539c1.119-0.089,1.24-1.121,1.697-1.819
		c3.9-5.964,8.634-10.345,16.529-8.787c-4.361,7.866-5.559,16.231-3.974,25.045c0.045,0.253-0.13,0.545-0.201,0.818L124.978,371.17z
		"/>
	<path fill="#A1D350" d="M57.149,134.532c-2.054,0.588-4.085,1.279-6.166,1.741c-3.888,0.864-6.146-0.479-7.595-4.332
		c2.039-2.074,4.522-3.326,7.305-4.104c2.723-0.762,5.406-1.66,8.118-2.462c3.686-1.09,5.267-0.214,6.192,3.537
		c1.082,4.382,1.335,8.847,1.241,13.35c-0.022,1.101-0.484,2.37,0.613,3.296c-5.413,5.044-12.068,7.107-19.428,7.952
		c0.351,1.318,1.514,1.467,2.335,1.988c-0.589,1.829-2.424,2.331-3.674,3.456c-1.028,0.926-1.649,0.589-2.18-0.567
		c-1.109-2.421-2.621-4.504-5.251-5.466c-1.003-0.366-1.269-1.079-1.193-2.034c1.232-3.947,2.642-7.782,6.239-10.305
		c0.977-0.686,1.951-1.261,3.214-1.206c4.197,0.183,7.815-1.378,11.144-3.777c1.415-0.429,2.561-1.196,3.649-2.853
		C59.758,133.089,58.388,133.629,57.149,134.532z"/>
	<path fill="#FFFFFF" d="M174.508,217.813c-1.076,6.188-1.492,6.819-7.609,7.663c-12.356,1.705-24.598,0.404-36.771-1.887
		c-0.999-0.188-1.941-0.582-2.435-1.482c-1.764-3.228-3.346-6.536-3.857-10.239c0.649-0.563,1.271-1.163,1.951-1.687
		c3.773-2.902,7.917-4.532,12.773-3.653c-3.596,5.189-2.188,11.054,1.978,14.293c4.657,3.619,11.774,3.511,16.269-0.298
		c4.149-3.518,4.705-8.518,1.55-13.948c0.484-0.659,1.174-0.667,1.833-0.454c3.396,1.099,6.854,2.021,9.881,4.055
		C172.812,212.02,174.486,214.419,174.508,217.813z"/>
	<path fill="#A1D350" d="M47.954,118.454c1.423-0.572,0.596-1.717,0.589-2.584c-0.054-7.2,0.054-14.386,1.435-21.488
		c1.009-0.277,1.152-1.206,1.543-1.98c1.623-3.214,3.154-6.497,5.942-8.938c1.335-1.169,2.792-1.86,4.521-0.881
		c1.819,1.031,2.047,2.683,1.664,4.553c-0.592,2.893-1.872,5.504-3.106,8.161c-3.683,7.928-5.953,16.229-6.132,25.028
		c-2.496,1.121-5.2,1.501-7.824,2.155c-5.875,1.467-7.451,3.859-6.543,9.872c0.221,1.462,1.609,3.062-0.465,4.41
		c-2.018,1.311-3.994,1.915-6.218,0.611c-0.474-6.849,0.292-13.443,4.028-19.414c2.079-3.321,5.039-3.914,8.171-1.661
		c0.618,0.444,1.094,1.173,2.024,0.881l-0.128,0.064C47.383,117.745,47.494,118.171,47.954,118.454z"/>
	<path fill="#71BF17" d="M177.848,307.654c0.146-1.058,0.719-2.051,1.715-2.082c0.976-0.031,1.033,1.254,1.394,1.994
		c4.593,9.492,10.388,17.993,20.049,22.988c10.675,5.521,21.688,5.848,32.774,1.244c10.48-4.351,17.006-12.427,20.994-22.801
		c0.277-0.72,0.662-1.399,0.996-2.098c1.017,0.629,1.516,1.459,1.174,2.701c-2.827,10.291-7.301,19.641-17.098,24.946
		c-12.521,6.785-25.604,6.597-38.503,1.085c-10.104-4.318-17.53-11.637-21.696-21.964
		C178.867,311.738,178.438,309.663,177.848,307.654z"/>
	<path fill="#66A316" d="M180.74,192.571c0.687-0.506,0.473-0.877-0.115-1.326c-4.105-3.138-5.938-7.64-7.193-12.405
		c-1.99-7.544-3.047-15.245-3.146-23.041c-0.03-2.267-0.812-3.228-2.975-3.862c-15.017-4.411-29.989-8.97-44.982-13.455
		c-5.4-1.615-10.832-3.128-16.229-4.749c-1.65-0.496-3.462-0.646-4.803-1.932c0.298-0.337,0.595-0.675,0.893-1.012
		c4.447,0.232,8.494,2.087,12.692,3.271c16.885,4.757,33.712,9.723,50.562,14.602c2.052,0.594,4.096,1.25,6.185,1.663
		c2.354,0.467,2.841,1.782,2.623,3.999c-0.899,9.153,0.25,18.093,3.506,26.691c2.856,7.549,8.851,11.644,16.446,12.994
		c8.178,1.455,16.496,1.679,24.682-0.341c2.251-0.555,4.398-1.526,6.594-2.306c-1.19,2.949-4.215,3.543-6.597,4.275
		c-9.596,2.947-19.437,3.579-29.083,0.396c-3.195-1.056-6.646-1.139-9.642-2.786C180.352,193.021,180.545,192.797,180.74,192.571z"
		/>
	<path fill="#71BF17" d="M153.873,368.773c9.027,4.567,18.35,3.385,27.729,1.457c10.771-2.215,21.465-4.916,32.631-4.36
		c8.994,0.447,16.717,10.879,14.183,19.426c-0.181,0.608-0.354,1.109-1.054,1.216c-0.17-1.746-0.137-3.54-0.543-5.229
		c-1.67-6.967-6.619-9.848-15.402-10.537c-6.189-0.486-11.956,1.681-17.833,3.142c-9.496,2.363-18.979,4.864-28.913,4.338
		c-3.05-0.161-6.003-0.751-8.876-1.808c-1.856-0.683-3.062-1.535-2.292-3.857C153.891,371.387,153.766,370.041,153.873,368.773z"/>
	<path fill="#DBD4E6" d="M154.252,32.032c-0.984-2.191-0.327-4.594-0.97-6.882c-1.03-3.673-2.024-7.331-6.113-8.613
		c-4.019-1.26-7.263,0.849-10.141,3.271c-6.469,5.448-10.275,12.697-13.269,20.426c-3.761,9.711-5.607,19.807-6.536,30.175
		c-1.088,12.152-0.113,24.162,1.329,36.187c0.074,0.615,0.217,1.152,0.893,1.357c-0.584,0.819-1.39,1.33-2.589,1.815
		c-0.899-1.992-0.899-4.154-1.183-6.188c-1.858-13.303-2.721-26.657-1.264-40.062c1.646-15.159,5.268-29.656,15.226-41.762
		c2.846-3.459,5.993-6.74,10.011-8.927c6.565-3.574,13.463-0.153,14.838,7.26C155.228,24.096,155.054,28.066,154.252,32.032z"/>
	<path fill="#71BF17" d="M73.851,364.697c0.095-2.537,2.109-3.946,3.622-5.417c5.509-5.355,12.179-9.074,18.948-12.581
		c6.068-3.145,12.245-6.075,18.016-9.776c6.413-4.112,10.741-10.093,14.995-16.204c1.4-2.012,1.689-4.847,4.286-5.998
		c0.119,6.183-1.159,11.697-5.312,16.753c-7.489,9.117-16.959,15.089-27.651,19.542c-7.865,3.276-15.421,7.143-21.662,13.11
		C77.408,365.736,75.732,365.739,73.851,364.697z"/>
	<path fill="#A1D350" d="M59.673,368.891c-2.698-3.57-3.085-7.704-2.873-11.97c0.038-0.765,0.104-1.797,0.916-1.966
		c0.981-0.204,1.117,0.931,1.383,1.588c2.387,5.904,6.917,9.277,12.848,11.052c7.165,2.144,13.17-0.062,18.868-4.926
		c-1.458-0.554-2.266,0.532-3.252,0.488c-0.176-0.192-0.352-0.385-0.526-0.577c3.119-3.078,6.938-5.021,10.911-6.712
		c2.628,0.858,4.616,2.367,4.048,5.426c-0.757,4.079-2.556,7.826-6.528,9.528c-11.474,4.917-22.908,6.153-33.865-1.536
		C60.994,368.859,60.377,368.723,59.673,368.891z M91.035,361.961c-0.033,0.059-0.107,0.134-0.092,0.174
		c0.095,0.255,0.228,0.262,0.348,0.019c0.019-0.039-0.033-0.14-0.08-0.179C91.175,361.944,91.096,361.964,91.035,361.961z"/>
	<path fill="#DBD4E6" d="M214.801,101.395c-0.677-2.527,0.803-4.66,1.465-6.87c2.829-9.452,4.812-19.027,5.772-28.863
		c0.979-9.999,0.662-19.862-1.927-29.579c-1.305-4.905-2.785-9.821-6.383-13.649c-3.979-4.234-8.09-4.292-12.193-0.157
		c-1.633,1.644-2.951,3.601-4.41,5.417c0.807-4.48,2.009-8.824,5.85-11.726c4.562-3.45,9.267-3.132,13.084,1.153
		c5.053,5.671,7.92,12.536,9.394,19.912c3.129,15.666,0.784,30.933-3.761,45.991C219.798,89.296,217.52,95.429,214.801,101.395z"/>
	<path fill="#DBD4E6" d="M179.09,108.223c-7.756-2.226-15.717-1.982-23.579-1.352c-15.794,1.267-30.418,6.216-43.44,15.415
		c-2.162,1.528-4.714,2.725-5.952,5.329c-0.86,0.164-1.957,0.522-2.39-0.399c-0.455-0.972,0.713-1.476,1.302-2.011
		c25.489-23.218,54.669-28.958,87.275-18.356c0.463,0.151,0.906,0.361,1.358,0.546c0.864,0.353,0.692,1.101,0.601,1.75
		c-0.18,1.231-1.051,0.578-1.552,0.413C188.268,108.086,183.693,108.009,179.09,108.223z"/>
	<path fill="#A1D350" d="M198.838,348.802c-0.189,0.954-0.37,1.911-0.572,2.862c-0.434,2.032-1.531,3.029-3.765,3.277
		c-4.549,0.506-9.106,0.854-13.659,1.282c-2.982,0.28-4.328-0.896-4.754-3.648c-0.162-1.057-0.43-2.095-0.648-3.143
		c0.941-0.599,0.541-1.574,0.664-2.396c1.121-7.577,5.369-10.646,12.295-8.8c3.154,0.841,5.361,2.948,7.295,5.507
		C196.906,345.348,197.188,347.498,198.838,348.802z"/>
	<path fill="#71BF17" d="M198.838,348.802c-1.65-1.304-1.932-3.454-3.145-5.059c-1.935-2.559-4.143-4.666-7.297-5.507
		c-6.924-1.848-11.172,1.223-12.295,8.8c-0.121,0.822,0.278,1.799-0.664,2.396c-2.644-8.252-2.826-16.657-1.498-25.138
		c0.393-2.492,1.006-4.949,1.631-7.967c2.721,4.227,5.138,7.961,8.252,11.223c4.1,4.294,8.643,7.923,13.959,10.535
		c1.32,0.649,1.945,1.403,1.857,2.904C199.484,343.608,199.911,346.278,198.838,348.802z"/>
	<path fill="#A1D350" d="M65.541,409.411c0.928,2.494,2.328,4.713,3.885,6.856c0.538,0.741,1.471,1.717,0.716,2.612
		c-0.918,1.089-2.011,0.066-2.889-0.384c-3.036-1.561-5.358-3.992-7.169-6.792c-7.947-12.291-7.646-25.179-2.601-38.857
		c1.708,2.479,4.084,3.528,5.875,5.284c-0.011,1.169-0.209,2.29-0.493,3.438c-1.846,7.45-2.138,14.953-0.125,22.409
		C63.266,405.927,63.379,408.242,65.541,409.411z"/>
	<path fill="#A1D350" d="M141.793,39.829c0.036,0.355,0.072,0.71,0.107,1.064c-0.456,0.598-0.446,1.196,0.003,1.792
		c-0.057,0.572-0.112,1.145-0.168,1.716c-0.048,0.239-0.095,0.478-0.144,0.718c-1.128,8.596-4.087,16.639-7.627,24.468
		c-3.07,6.791-6.537,13.405-8.838,20.562c-0.153-10.135,0.539-20.125,3.39-29.865c1-0.608,1.259-1.676,1.649-2.661
		c1.971-4.969,4.081-9.887,7.078-14.325C138.303,41.731,139.28,39.662,141.793,39.829z"/>
	<path fill="#A1D350" d="M212.04,63.837c-0.024,0.396-0.052,0.789-0.077,1.185c-0.359,0.051-0.773,0.106-0.8,0.548
		c-0.024,0.445,0.389,0.536,0.735,0.634c-0.513,9.968-2.854,19.534-6.198,28.896c0.075-13.217-3.603-26.16-2.499-39.385
		c0.42-5.035,0.494-10.168,3.352-14.654c3.271,6.243,3.728,13.096,4.357,19.917C211.004,62.003,210.288,63.435,212.04,63.837z"/>
	<path fill="#DBD4E6" d="M290.016,278.452c-0.404-4.81-1.912-9.157-5.556-12.497c-4.315-3.956-15.749-3.839-20.957,3.961
		c-3.969,5.945-6.299,12.521-8.044,19.354c-2.189,8.572-5.701,16.473-12.234,22.614c-7.822,7.354-17.017,10.785-27.865,8.776
		c-0.703-0.13-1.367-0.135-1.582-0.977c4.494-0.028,8.969-0.074,13.387-1.188c11.246-2.835,17.852-10.614,22.361-20.689
		c2.52-5.627,3.951-11.627,5.979-17.422c1.779-5.083,3.899-10.014,7.496-14.143c4.003-4.596,12.759-6.604,18.944-4.365
		c5.238,1.896,9.16,7.986,9.291,14.432C291.264,277.675,291.264,277.675,290.016,278.452z"/>
	<path fill="#71BF17" d="M59.673,368.891c0.704-0.168,1.321-0.03,1.929,0.396c10.957,7.689,22.392,6.453,33.865,1.536
		c3.973-1.702,5.771-5.449,6.528-9.528c0.568-3.059-1.42-4.566-4.048-5.426c2.267-1.761,5.078-2.438,7.553-3.793
		c1.559-0.854,1.941,0.152,1.735,1.454c-0.523,3.312-0.29,6.639-0.318,9.96c-0.012,1.264-0.538,2.253-1.245,3.212
		c-4.204,5.7-9.75,9.313-16.772,10.343c-7.323,1.072-14.646,1.235-21.668-1.68C64.043,374.041,61.131,372.286,59.673,368.891z"/>
	<g>
		<path fill="#0B092B" d="M304.188,86.119c-3.117-1.29-6.26,0.027-9.498,4.059c-3.424,4.264-5.609,9.131-6.979,14.407
			c-0.977,3.759-1.178,7.601-1.141,11.614c-2.811-0.824-5.166-0.361-7.529,0.434c-3.377,1.135-5.893-0.703-5.871-4.201
			c0.02-3.25,0.639-6.41,1.354-9.565c0.74-3.265,1.188-6.56,0.304-9.877c-0.981-3.684-3.529-5.258-7.29-4.61
			c-2.352,0.406-4.137,1.682-5.645,3.436c-2.484,2.894-3.822,6.331-4.701,9.987c-2.064,8.582,0.063,16.453,3.985,24.048
			c0.789,1.528,1.779,2.904,2.019,4.789c0.352,2.782-0.161,3.068-2.723,2.019c-6.303-2.578-12.709,0.104-15.117,6.031
			c-3.168,7.796-0.352,16.638,6.787,21.054c1.575,0.974,3.297,1.715,4.973,2.521c3.929,1.887,6.848,4.854,8.988,8.58
			c0.731,1.27,1.451,2.728-1.18,3.026c-2.219,0.252-2.92,2.038-3.074,4.056c-0.267,3.486,0.516,6.817,1.598,10.08
			c1.988,5.996,2.018,12.107,1.268,18.288c-0.186,1.526-0.773,2.411-2.438,2.762c-3.381,0.712-6.77,0.942-10.207,0.944
			c-1.409,0.001-1.936-0.487-1.831-1.888c0.18-2.438,0.396-4.886,0.368-7.326c-0.154-13.068-2.123-25.935-4.771-38.682
			c-4.151-19.995-14.358-36.408-30.181-49.293c-1.314-1.07-0.939-1.791-0.387-2.911c3.332-6.755,6.354-13.649,8.838-20.761
			c6.283-17.996,9.869-36.246,4.889-55.243c-1.944-7.408-4.085-14.751-9.512-20.521c-4.731-5.032-11.183-5.802-17.076-2.21
			c-4.506,2.746-7.069,6.953-8.688,11.794c-3.818,11.425-3.586,23.154-1.998,34.851c1.83,13.494,3.588,26.963,3.215,40.626
			c-0.058,2.055,0.019,2.967-2.604,2.033c-14.652-5.222-29.639-5.672-44.824-2.684c-4.847,0.954-9.535,2.505-14.646,4.035
			c0.356-1.398,0.562-2.325,0.829-3.235c3.264-11.088,7.548-21.771,12.823-32.054c3.884-7.574,7.503-15.261,9.919-23.45
			c2.319-7.856,3.806-15.829,2.055-24.007c-2.585-12.076-13.938-16.348-23.745-8.981c-1.713,1.286-3.37,2.72-4.781,4.324
			c-10.554,11.994-16.943,25.91-19.123,41.762c-2.496,18.137-1.158,36.129,2.022,54.042c0.284,1.601,0.035,2.46-1.279,3.409
			c-6.136,4.432-11.621,9.575-16.425,15.442c-14.621,17.856-23.254,38.074-24.375,61.308c-0.179,3.702-0.51,7.427-1.663,10.998
			c-1.694,5.246-7.214,7.453-12.033,4.771c-3.774-2.099-5.359-5.493-5.57-9.699c-0.277-5.513,1.303-10.637,3.192-15.693
			c1.892-5.064,3.496-10.174,3.346-15.668c-0.05-1.797-0.343-3.522-1.614-4.903c-2.236-2.43-1.731-4.579,1.397-5.516
			c3.474-1.041,6.96-2.033,10.097-3.927c1.964-1.185,4.044-2.573,4.448-4.861c1.336-7.566,1.918-15.212-1.046-22.553
			c-1.482-3.672-4.472-5.58-8.594-5.423c-0.73,0.027-1.532,0.449-2.34-0.306c2.646-9.716,4.627-19.692,10.045-28.54
			c2.389-3.902,1.657-9.863-1.091-12.995c-3.128-3.565-7.096-3.928-11.29-2.611c-3.785,1.188-6.066,4.15-7.823,7.542
			c-4.021,7.762-5.125,16.155-5.158,24.736c-0.008,1.97,0.299,3.534-2.576,2.532c-0.906-0.317-2.308-0.151-3.119,0.367
			c-2.772,1.77-5.386,3.347-8.198,0.141c-0.155-0.177-0.567-0.227-0.84-0.192c-2.479,0.318-2.25-1.192-2.136-2.891
			c0.354-5.3,1.753-10.381,2.875-15.536c1.202-5.527-3.275-9.57-8.788-8.273c-4.48,1.053-7.282,3.992-9.085,8.046
			c-3.013,6.774-3.479,13.986-1.995,21.004c1.479,6.999,0.848,13.363-1.461,20.055c-2.591,7.505-2.282,15.208,1.503,22.484
			c1.233,2.372,3.896,4.043,4.563,6.34c0.657,2.259-1.388,4.879-1.432,7.573c-0.296,17.795,4.958,34.181,13.39,49.502
			c5.023,9.13,13.585,12.952,24.049,11.911c5.212-0.519,10.101-2.225,14.785-4.559c5.424-2.704,5.413-2.678,6,3.572
			c0.116,1.23-0.027,1.877-1.445,2.301c-7.832,2.336-13.358,7.588-17.331,14.512c-1.169,2.038-2.423,2.67-4.752,2.661
			c-9.46-0.036-17.877,6.299-20.772,15.312c-2.93,9.127,0.349,19.17,8.103,24.811c7.721,5.615,18.344,5.619,26.086,0.008
			c7.614-5.52,11.382-15.735,7.974-24.469c-1.747-4.477-1.071-7.994,0.824-11.812c0.999-2.014,1.984-4.034,3.061-6.006
			c0.333-0.608,0.519-1.562,1.504-1.431c1.305,4.143,2.452,8.287,3.913,12.315c3.269,9.015,6.771,17.943,12.716,25.626
			c1.48,1.912,3.087,4.119,5.948,3.58c2.527-0.475,2.219-3.09,2.953-5.162c2.325,3.287,4.491,6.355,6.663,9.418
			c0.379,0.535,0.289,1.088,0.172,1.682c-2.646,13.459-9.548,23.345-23.09,27.768c-1.983,0.648-3.659,0.526-5.611-0.284
			c-10.197-4.229-20.567-5.526-31.039-0.952c-11.973,5.232-18.362,17.407-15.207,28.798c0.398,1.436,0.856,2.919,2.546,3.281
			c1.762,0.378,2.99-0.682,4.02-1.918c1.474-1.769,1.924-4.031,2.769-6.096c3.311-8.091,11.053-10.957,18.343-6.223
			c5.915,3.84,12.034,6.341,19.147,6.062c0.357-0.38,0.737-0.425,1.145-0.085c-0.311,0.101-0.622,0.2-0.933,0.302
			c-6.324,4.356-12.389,9.021-17.477,15.044c-1.481-1.921-1.587-4.042-2.322-5.91c-1.06-2.691-3.275-3.076-5.126-0.863
			c-0.974,1.165-1.306,2.591-1.598,4.04c-0.836,4.139-0.28,8.202,0.846,12.176c0.386,1.362,0.255,2.405-0.331,3.606
			c-2.471,5.062-4.039,10.404-4.143,16.051c-0.21,11.312,1.838,22.016,9.412,30.954c2.944,3.475,6.758,5.596,11.379,5.971
			c1.653,0.134,3.585,0.253,4.5-1.39c0.9-1.616-0.484-2.933-1.431-4.158c-2.701-3.493-5.347-7.018-6.201-11.496
			c-1.37-7.193,0.258-14.008,2.909-20.604c2.162-5.383,0.803-4.303,6.376-3.791c11.291,1.035,21.659-0.822,29.809-9.588
			c0.139-0.147,0.529-0.063,0.721-0.082c0.521,2.065,0.897,4.093,1.542,6.03c2.804,8.43,8.442,13.9,17.36,15.038
			c9.468,1.207,17.85-1.339,23.223-9.77c1.722-2.703,3.106-2.859,5.739-2.082c1.643,0.484,1.99,0.865,1.514,2.506
			c-2.911,10.038-3.323,20.249-1.45,30.495c1.48,8.095,3.369,16.164,8.686,22.761c5.92,7.347,13.875,9.788,23.027,8.413
			c3.212-0.484,5.521-2.906,5.867-5.435c0.436-3.188-2.26-3.804-4.208-4.867c-8.365-4.563-11.688-11.004-10.776-20.864
			c0.859-9.289,3.774-17.977,7.945-26.205c5.879-11.601,2.291-8.812,15.395-12.203c4.652-1.204,9.461-1.506,14.237-0.288
			c5.908,1.506,11.586,8.85,5.61,16.027c-1.379,1.653-2.741,3.324-4.033,5.044c-1.117,1.488-2.123,3.066-2.452,4.95
			c-0.554,3.157,0.726,4.692,3.894,4.668c2.959-0.022,5.492-1.182,7.82-2.936c13.807-10.406,16.303-29.308,5.381-43.06
			c2.334,0,4.435,0.012,6.535-0.002c14.049-0.095,24.641-5.822,30.096-19.184c5.846-14.315,5.619-28.017-5.353-40.176
			c-0.524-0.579-0.707-1.033-0.474-1.804c2.467-8.139,4.842-16.322,9.27-23.676c3.66-6.08,9.686-5.965,13.467,0.115
			c1.047,1.684,1.563,3.566,2.237,5.397c0.487,1.329,1.2,2.553,2.879,2.479c1.654-0.071,2.282-1.343,2.748-2.674
			c0.597-1.701,0.511-3.457,0.329-5.222c-1.438-13.942-13.271-21.192-26.335-16.138c-6.454,2.496-9.981,7.728-12.427,13.746
			c-3.125,7.689-5.852,15.539-8.891,23.264c-1.906,4.842-4.246,9.474-8.203,13.054c-7.752,7.015-16.531,5.392-21.162-3.981
			c-2.74-5.547-3.597-11.525-3.703-17.65c-0.017-0.87,0.227-1.486,0.856-2.047c2.675-2.375,4.272-5.434,5.386-8.866
			c3.554,4.791,6.233,4.604,9.201-0.522c0.637-1.098,1.221-2.229,1.744-3.385c2.021-4.457,3.627-9.074,5.128-13.725
			c0.675-2.086,0.778-4.417,3.962-4.383c1.096,0.012,1.877-1.324,2.543-2.295c1.17-1.706,1.967-3.598,2.547-5.579
			c1.9-6.481,3.352-13.065,4.312-19.749c0.245-1.704,0.493-2.393,2.635-1.822c14.267,3.809,26.009-1.169,33.238-14.112
			c6.58-11.782,10.827-24.457,13.667-37.613c0.388-1.8,1.229-4.304,0.113-5.404c-2.019-1.993-0.685-3.439-0.118-5.062
			c1.028-2.951,1.909-6.014,3.393-8.735c3.898-7.146,4.199-14.728,3.421-22.537c-0.75-7.515-1.193-15.026,0.432-22.505
			c0.955-4.388,2.886-8.521,3.283-13.056C309.133,91.523,307.323,87.416,304.188,86.119z M34.95,116.286
			c1.627-2.914,4.286-4.563,7.77-4.1c2.829,0.375,4.446,2.156,4.864,4.993l-0.128,0.064c0.806,0.142,0.445,0.761,0.496,1.211
			c1.423-0.572,0.596-1.717,0.589-2.584c-0.053-7.2,0.054-14.385,1.435-21.488c0.599-4.798,2.907-8.887,5.495-12.814
			c2.328-3.529,5.272-4.304,8.851-2.606c3.055,1.45,4.275,4.708,2.934,8.519c-0.774,2.2-1.889,4.284-2.91,6.391
			c-3.598,7.43-6.077,15.22-7.662,23.316c-0.257,1.316-0.061,3.156-2.274,3.138c-2.496,1.121-5.2,1.501-7.824,2.155
			c-5.875,1.467-7.451,3.859-6.543,9.872c0.221,1.462,1.609,3.061-0.465,4.41c-2.018,1.31-3.994,1.915-6.217,0.611
			c-1.879-0.831-2.302-2.543-2.407-4.305C30.596,127.085,32.057,121.469,34.95,116.286z M29.615,111.439
			c2.754,0.32,3.503,1.823,2.224,4.371c-1.9,4.39-3.058,8.969-3.314,13.749c-0.127,2.34-1.876,3.013-3.595,3.631
			c-1.784,0.64-3.208,0.077-3.978-1.766c-2.715-5.789-0.665-14.727,4.277-18.74C26.526,111.63,27.998,111.251,29.615,111.439z
			 M13.393,135.7c3.043-9.51,3.412-19.089,1.945-28.937c-0.663-4.45-0.885-9.133,0.906-13.544c0.058-0.471-0.11-1.048,0.57-1.233
			l-0.059,0.015c0.299-2.497,1.743-4.29,3.717-5.635c1.532-1.044,3.281-1.268,4.945-0.232c1.55,0.965,2.343,2.559,1.958,4.251
			c-1.364,5.984-2.44,11.986-2.308,18.154c0.025,1.118-0.947,1.346-1.652,1.808c-5.579,5.453-6.859,12.28-5.986,19.641
			c0.7,5.896,4.17,7.972,10.014,6.245c0.904-0.267,1.246-0.087,1.513,0.679c1.181,3.381,4.018,4.304,7.133,4.648
			c1.614,0.178,2.272,0.498,1.452,2.265c-1.012,2.18-0.898,4.56-0.645,6.91c0.19,0.05,0.381,0.102,0.571,0.153
			c1.232-3.948,2.641-7.783,6.239-10.305c0.977-0.685,1.951-1.261,3.214-1.206c4.198,0.183,7.816-1.378,11.144-3.777
			c-0.305-0.355-0.61-0.712-0.915-1.067c-2.054,0.588-4.085,1.279-6.166,1.741c-3.888,0.864-6.147-0.478-7.595-4.332
			c-0.824-3.003,0.478-5.06,3.194-5.982c4.598-1.562,9.245-3.053,13.972-4.138c4.386-1.008,7.524,1.469,7.932,5.898
			c0.375,4.069,0.486,8.163,0.788,12.24c0.173,2.325-0.515,4.205-2.416,5.599c-5.413,5.044-12.069,7.107-19.428,7.952
			c0.351,1.318,1.514,1.467,2.335,1.988c0.96,0.011,1.879,0.254,1.791,1.403c-0.103,1.364-0.417,2.831-1.748,3.522
			c-2.862,1.483-4.853,3.826-6.863,6.795c-0.497-2.109-0.863-3.843-1.317-5.553c-0.649-2.439-1.657-4.888-4.379-5.327
			c-2.542-0.41-4.627,1.081-6.367,2.958c-1.084,1.17-1.641,2.634-2.556,4.218c-2.296-4.119-7.59-4.473-9.774-8.535
			C13.2,149.524,11.006,143.156,13.393,135.7z M70.041,216.161c-6.597,4.118-13.496,7.578-21.392,8.056
			c-7.9,0.478-13.659-3.594-17.786-9.896c-3.197-4.883-5.618-10.217-6.706-16.043c-2.056-5.512-3.036-11.272-3.656-17.075
			c-0.496-4.634-1.27-9.307-0.121-13.973c0.187-0.757,0.311-1.538,0.582-2.264c0.88-2.352,2.463-2.637,4.109-0.7
			c0.951,1.12,1.61,2.402,1.922,3.894c0.512,2.447,1.182,4.862,1.972,7.279c-0.046-4.215,0.86-8.153,2.905-11.788
			c0.957-1.702,1.989-3.588,4.294-3.474c2.428,0.12,2.886,2.274,3.588,4.089c1.798,4.644,1.106,9.414,1.079,14.317
			c0.791-2.028,1.411-4.146,2.415-6.062c1.628-3.106,2.958-6.579,6.888-7.651c0.3-1.138,1.09-1.287,2.046-0.95
			c1.039,0.366,1.513,1.234,1.621,2.25c0.22,2.083-0.355,4.081-0.865,6.062c-1.409,5.478-2.964,10.921-4.312,16.414
			c-1.734,7.069-2.241,13.959,4.169,19.406c-1.644,0.753-2.926,0.35-4.201-0.132c-0.99,1.615-3.191-0.42-4.124,1.367
			c1.248,0.366,2.594,0.442,3.7,1.233c0.549,0.236,1.421-0.224,1.63,0.743c2.484,0.07,4.97,0.139,7.455,0.214
			c3.836,0.116,7.527-0.558,11.112-1.922c0.588-0.224,1.293-0.973,1.852-0.391c0.644,0.672,0.524,1.605-0.1,2.376
			c0.732,0.521,0.621,1.293,0.603,2.036C70.911,214.547,71.13,215.482,70.041,216.161z M275.303,119.199
			c1.271,1.143-0.652,2.667-0.919,4.081c-0.606,4.135-1.093,8.276-0.399,12.606c-2.049-0.513-3.883-0.971-5.719-1.43
			c-0.687,0.16-1.32,0.275-1.676-0.601c-1.457-3.576,0.758-11.4,3.971-13.629C271.984,119.239,273.825,117.872,275.303,119.199z
			 M262.719,97.298c0.791-1.869,2.059-3.316,3.874-4.225c2.033-1.017,3.417-0.433,3.942,1.812c0.497,2.124,0.34,4.295,0.119,6.424
			c-0.502,4.86-1.262,9.7-0.93,14.606c0.125,1.851-1.435,2.083-2.5,2.811c-1.449,2.051-2.875,4.118-3.722,7.124
			C258.825,116.012,258.462,106.713,262.719,97.298z M195.234,126.992c2.373-4.578,4.701-9.179,7.048-13.771
			c2.01-5.27,4.104-10.51,6.016-15.817c6.034-16.741,8.205-33.956,6.067-51.661c-0.471-3.896-1.219-7.741-3.24-11.191
			c-1.781-3.042-4.984-4.681-7.504-3.915c-2.354,0.715-4.615,4.282-4.668,7.247c-0.021,1.159,0.373,1.132,1.117,0.538
			c0.701-1.609,2.137-2.467,3.521-3.342c1.081-0.684,2.226-0.767,3.144,0.318c1.195,1.411-0.521,1.729-1.017,2.484
			c-0.194,0.298-0.604,0.455-0.916,0.676c-3.772,7.45-3.86,15.503-3.536,23.526c0.407,10.07,1.225,20.122,1.828,30.184
			c0.434,7.206-0.248,14.184-4.869,21.054c1.104-7.549,0.978-14.44,0.978-21.331c-0.002-10.52-1.869-20.834-3.259-31.212
			c-1.434-10.715-1.432-21.464,0.662-32.139c0.076-0.387,0.086-0.772,0.521-0.944c0.806-4.482,2.008-8.826,5.849-11.728
			c4.562-3.45,9.267-3.133,13.084,1.153c5.053,5.671,7.92,12.536,9.394,19.912c3.129,15.666,0.784,30.933-3.761,45.991
			c-1.894,6.272-4.172,12.405-6.891,18.371c-1.771,4.331-3.662,8.603-6.208,12.553c-2.263,5.523-5.721,10.395-8.505,15.633
			c-1.152,2.17-2.509,1.032-3.915,0.445C194.605,129.373,194.518,128.374,195.234,126.992z M205.699,95.097
			c0.074-13.217-3.604-26.16-2.499-39.385c0.42-5.035,0.495-10.168,3.352-14.654c0.399-0.923,0.921-1.94,2.015-1.823
			c1.008,0.109,1.061,1.306,1.293,2.1c2.16,7.357,3.322,14.82,2.181,22.501c-0.024,0.396-0.052,0.789-0.077,1.185
			c-0.021,0.394-0.043,0.788-0.066,1.18C211.386,76.169,209.044,85.736,205.699,95.097z M211.096,122.659
			c2.18,1.824,4.2,3.835,5.416,6.457c0.646,1.395,1.34,2.924-0.753,4.413c-1.243-3.717-3.38-6.572-6.348-8.785
			c-1.009-0.752-1.53-1.543-0.615-2.66C209.902,120.733,210.509,122.167,211.096,122.659z M114.409,63.52
			c1.646-15.159,5.268-29.656,15.226-41.762c2.846-3.459,5.993-6.739,10.011-8.927c6.566-3.574,13.463-0.153,14.838,7.26
			c0.744,4.005,0.57,7.975-0.232,11.941c-1.57,11.155-5.426,21.592-10.57,31.503c-5.643,10.874-10.689,21.952-14.104,33.736
			c-0.481,1.861-0.987,3.715-1.435,5.585c-0.228,0.954-0.692,1.655-1.729,1.606c-1.213-0.056-1.245-1.155-1.271-1.946
			c-0.141-4.118,0.949-7.972,2.72-11.658c2.59-9.474,7.354-18.095,10.707-27.269c2.853-7.809,5.837-15.596,5.404-24.14
			c-0.068-1.355,0.012-2.725-0.614-4.025c-0.289-0.6-1.255-1.31-0.262-2.019c0.937-0.67,1.922-0.335,2.645,0.433
			c0.659,0.701,1.17,1.543,1.733,2.332c0.539,0.757,0.578,1.864,1.58,2.326c1.338-3.375,0.707-7.236-1.43-8.87
			c-2.078-1.589-5.983-1.035-8.64,1.309c-3.231,2.85-5.179,6.6-6.954,10.417c-7.658,16.46-10.64,33.842-10.056,51.904
			c0.114,3.515,0.212,7.043,0.586,10.536c0.273,2.55-0.587,3.89-3.117,4.163c-0.584,0.819-1.39,1.33-2.589,1.815
			c-0.9-1.993-0.9-4.155-1.183-6.188C113.814,90.279,112.952,76.924,114.409,63.52z M125.127,90.149
			c-0.153-10.135,0.539-20.125,3.39-29.866c1.564-8.317,4.789-15.921,9.826-22.733c0.477-0.643,0.769-1.845,1.809-1.551
			c0.856,0.242,1.051,1.318,1.292,2.155c0.158,0.547,0.237,1.116,0.35,1.675c0.036,0.355,0.072,0.71,0.107,1.065
			c0.002,0.597,0.002,1.195,0.003,1.792c-0.057,0.572-0.112,1.145-0.169,1.717c-0.047,0.239-0.095,0.477-0.143,0.717
			c-1.128,8.596-4.087,16.639-7.627,24.467C130.895,76.378,127.428,82.993,125.127,90.149z M105.032,125.205
			c25.489-23.217,54.669-28.958,87.277-18.356c0.461,0.151,0.905,0.361,1.357,0.546c0.866,0.353,0.693,1.101,0.6,1.75
			c-0.179,1.231-1.05,0.578-1.551,0.413c-4.445-1.472-9.02-1.549-13.624-1.335c-4.461,4.85-4.43,8.324,0.449,13.335
			c8.974,9.213,19.749,14.873,32.733,15.604c5.115,0.288,7.041-1.553,8.061-6.469c-1.438-4.312-4.186-7.659-7.625-10.541
			c-0.688-0.574-2.475-1.104-1.3-2.338c0.955-1.003,1.767,0.55,2.493,1.116c11.904,9.301,18.974,21.85,23.9,35.812
			c0.941,2.668,1.729,5.392,2.574,8.093c0.076,0.244,0.046,0.521,0.084,1.038c-2.031-0.421-3.938-0.62-5.404-2.086
			c-2.037,0.15-3.945,0.123-4.373-2.546c-0.152-0.952-1.031-1.373-1.729-1.893c-14.152-10.539-30.026-14.516-47.482-12.442
			c-2.601,0.309-5.426-0.192-7.382,2.386c-0.272,0.359-1.682,0.012-2.502-0.224c-21.285-6.135-42.562-12.299-63.84-18.459
			c-0.633-0.183-1.409-0.134-1.629-0.994c-0.861,0.164-1.957,0.523-2.39-0.399C103.275,126.244,104.443,125.74,105.032,125.205z
			 M193.762,114.384c0.012,0.81-0.3,1.512-1.545,1.199c-4.111-1.029-8.215-1.914-12.236,0.35c-0.814,0.457-1-0.261-1.191-0.779
			c-0.664-1.787-0.112-3.127,1.703-3.703c4.359-1.383,8.482,0.054,12.588,1.287C193.83,112.964,193.775,113.176,193.762,114.384z
			 M216.586,183.07c0.318,1.63,0.061,2.914-1.969,3.147c-1.821,0.209-3.615,0.462-4.158-1.951c-0.391-1.742-0.725-3.494-1.236-5.971
			c-1.123,1.836-0.73,3.081-0.748,4.248c-0.054,3.444-0.772,4.345-3.627,4.461c-2.908,0.12-3.736-0.702-4.08-4.023
			c-0.189-1.831-0.397-3.662-1.002-5.517c-0.35,2.062-0.777,4.114-1.027,6.187c-0.245,2.029-1.305,3.01-3.299,2.836
			c-2.094-0.183-3.481-1.141-3.467-3.513c0.02-3.24,0.465-6.426,1.026-9.605c0.101-0.561,0.078-1.144,0.126-1.935
			c-2.482,0.791-4.764,1.63-7.23,1.479c-3.556-0.218-4.947-2.244-3.694-5.531c0.379-0.992,0.938-1.94,1.545-2.817
			c8.331-12.039,27.259-13.51,37.392-2.913c2.112,2.208,3.164,4.92,3.439,7.915c0.421,4.566-1.736,6.619-6.264,6.001
			c-1.039-0.143-2.049-0.491-3.435-0.836C215.497,177.742,216.062,180.402,216.586,183.07z M65.583,258.93
			c2.21,3.176,3.171,6.698,2.908,10.557c0.516,9.965-7.766,18.695-18.29,19.283c-9.703,0.541-19.155-7.578-19.698-16.926
			c-1.233-7.781,1.846-13.781,7.944-18.292c6.108-4.517,12.976-4.057,19.818-2.153c0.412-1.006-0.232-1.431-0.665-1.564
			c-3.387-1.042-2.011-2.812-0.83-4.664c7.311-11.455,18.428-15.886,31.584-12.531c2.177,0.555,4.334,1.188,6.494,1.807
			c4.411,1.266,8.506,0.711,12.224-2.078c2.42-1.815,4.839-3.635,7.258-5.453c0.179-0.145,0.357-0.289,0.537-0.435
			c0.905-0.807,1.81-1.615,2.715-2.425c0.36-0.645,0.834-1.172,1.537-1.457c0.82-0.833,1.606-1.701,2.471-2.482
			c0.415-0.376,0.791-1.427,1.523-0.631c0.508,0.552,0.614,1.418-0.209,2.047c-1.229,0.938-2.429,1.912-3.641,2.871
			c-0.818,1.174-1.96,1.989-3.102,2.801c-0.264,0.52-0.611,0.943-1.213,1.086c-2.118,1.865-4.147,3.846-6.374,5.572
			c-4.612,3.578-9.759,4.652-15.446,2.982c-2.712-0.796-5.471-1.451-8.329-1.511c-3.113-0.063-5.95,0.836-8.596,2.417
			C70.843,243.898,67.535,251.074,65.583,258.93z M109.332,225.922c-0.165,1.054-1.428,1.521-2.308,2.075
			c-1.199,0.755-1.286-0.722-1.889-1.159c-0.543-0.394-0.975-0.939-1.455-1.418c-0.865-0.554-2.767-0.153-2.511-1.554
			c0.207-1.136,1.917-0.919,3.048-0.884c0.43,0.013,0.854,0.284,1.282,0.437c0.647,0.194,1.356,0.283,1.93,0.61
			C108.227,224.484,109.497,224.862,109.332,225.922z M109.788,207.605c1.614-0.633,3.257-1.23,4.936-1.653
			c2.481-0.627,3.238,0.13,3.261,3.002c0.07,1.604-0.474,3.056-1.118,4.481c-1.787,3.951-4.606,4.342-7.301,1.008
			c-0.74-0.915-1.393-1.884-1.419-3.128C107.439,209.523,108.084,208.276,109.788,207.605z M103.439,214.332
			c-1.134,4.174-2.857,4.971-6.223,2.878c-2.28-1.391-2.164-2.675,0.144-3.916c0.934-0.503,1.785-1.174,2.741-1.626
			c0.99-0.469,2.08-1.565,3.153-0.563C104.156,211.947,103.97,213.216,103.439,214.332z M102.675,227.455
			c0.654,0.691,1.504,1.471,1.2,2.518c-0.281,0.967-1.418,0.945-2.22,1.145c-0.824,0.206-1.726,0.095-2.595,0.122
			c-1.033,0.624-2.056,0.03-3.037-0.136c-0.87-0.148-2.175-0.19-2.311-1.317c-0.119-0.987,0.679-1.74,1.717-2.033
			C98.293,225.507,100.706,225.383,102.675,227.455z M166.898,225.476c-12.358,1.705-24.599,0.404-36.771-1.887
			c-0.999-0.188-1.942-0.582-2.435-1.482c-1.763-3.227-3.345-6.536-3.857-10.24c-1.085-1.893-1.074-4.085-1.659-6.114
			c-0.464-1.611,0.758-1.735,1.814-1.923c5.181-0.923,10.373-1.762,15.638-2.057c0.198-0.342,0.421-0.41,0.684-0.065
			c0.542-0.047,1.085-0.095,1.626-0.144c0.22-0.022,0.438-0.045,0.658-0.068c0.8-0.026,1.602-0.054,2.403-0.081
			c0.57-0.014,1.141-0.027,1.71-0.041c9.664-0.555,19.305-0.034,28.945,0.602c1.516,0.099,2.236,0.273,1.891,2.199
			c-0.824,4.595-1.625,9.181-3.038,13.638C173.432,224.001,173.016,224.632,166.898,225.476z M173.936,242.5
			c-0.193,0.824-1.156,0.454-1.771,0.503c-3.078,0.245-6.16,0.431-9.242,0.626c-1.474,0.094-2.16-0.288-1-1.73
			c0.066-1.469,1.006-2.526,1.828-3.586c1.904-2.447,3.832-2.64,6.248-0.605c1.031,0.868,1.875,1.962,2.803,2.954
			C173.5,241.084,174.111,241.75,173.936,242.5z M157.393,243.396c-4.878,0.672-9.423,0.263-14.221,0.141
			c0.331-0.873,0.447-1.579,0.821-2.1c1.835-2.56,3.184-6.595,6.797-6.057C154.637,235.954,155.904,239.98,157.393,243.396z
			 M137.063,243.55c-3.375-0.278-6.752-0.524-10.127-0.8c-1.386-0.114-2.454-0.438-1.067-2.03c1.054-2.886,2.354-6.137,5.785-6.051
			c3.718,0.095,5.229,3.453,6.364,6.642C138.939,242.584,139.673,243.766,137.063,243.55z M120.57,241.439
			c-0.599,1.086-1.934,0.281-2.896,0.146c-2.769-0.392-5.521-0.911-8.262-1.47c-0.854-0.174-2.241,0.173-2.353-1.066
			c-0.092-1.019,1.025-1.494,1.945-1.843c0.773-0.587,1.552-1.167,2.319-1.763c3.894-3.026,5.4-2.697,7.883,1.754
			c0.233,0.417,0.359,0.893,0.535,1.342C120.388,239.417,121.034,240.596,120.57,241.439z M67.293,384.148
			c-2.821,8.273-3.439,16.684-1.752,25.263c0.928,2.494,2.328,4.713,3.885,6.857c0.538,0.741,1.471,1.717,0.716,2.612
			c-0.918,1.089-2.011,0.066-2.889-0.384c-3.036-1.56-5.358-3.992-7.169-6.792c-7.948-12.291-7.647-25.178-2.601-38.857
			c1.708,2.478,4.084,3.528,5.875,5.284c0.194,0.011,0.396-0.009,0.582,0.037C68.86,379.405,68.905,379.42,67.293,384.148z
			 M107.234,353.53c-0.523,3.312-0.29,6.639-0.318,9.96c-0.012,1.264-0.538,2.253-1.245,3.212c-4.204,5.7-9.75,9.314-16.772,10.343
			c-7.323,1.072-14.647,1.235-21.668-1.68c-3.189-1.324-6.101-3.078-7.559-6.475c-2.698-3.571-3.085-7.704-2.873-11.97
			c0.038-0.765,0.104-1.797,0.916-1.966c0.982-0.204,1.117,0.931,1.383,1.588c2.387,5.905,6.917,9.278,12.848,11.052
			c7.165,2.143,13.17-0.062,18.868-4.926c-1.458-0.554-2.266,0.532-3.252,0.488c-0.372,0.301-0.739,0.628-1.228,0.195
			c0.234-0.256,0.469-0.513,0.703-0.771c3.117-3.079,6.935-5.023,10.909-6.713c2.267-1.761,5.078-2.439,7.553-3.793
			C107.057,351.221,107.44,352.229,107.234,353.53z M133.561,389.787c-10.565,1.61-20.344-5.647-21.967-16.331
			c-1.68-5.79-2.269-11.622-0.673-17.539c0.239-3.982,1.364-7.364,5.343-9.297c3.254-1.582,6.218-3.695,8.973-6.056
			c2.647-2.267,5.029-4.792,7.309-8.412c0.045,5.283,1.246,9.984-3.397,13.157c-4.361,7.866-5.558,16.231-3.977,25.047
			c0.045,0.252-0.128,0.542-0.2,0.815c-1.77-0.248-2.355-2.221-3.937-2.753c-0.329,0.536-0.066,0.96,0.14,1.403
			c2.483,5.324,6.747,7.41,12.515,7.451c5.666,0.039,9.932-1.757,12.161-7.254c0.366-0.901,0.835-1.763,1.257-2.643
			c0.338-1.249,0.799-2.737,2.275-2.553c1.16,0.145,1.219,1.729,1.248,2.729C150.923,377.22,146.813,387.766,133.561,389.787z
			 M132.867,346.16c0.362,2.146,0.751,4.278,1.207,6.384c1.365,6.315,3.324,12.393,6.945,17.919c0.41,0.626,0.337,1.012,0.061,1.327
			c-0.166,0.188-0.404,0.353-0.655,0.526c-1.708,1.183-3.564,2.035-5.634,2.301c-4.182,0.534-6.426-0.879-7.062-5.048
			c-0.783-5.148-0.482-10.098,0.982-14.812c0.472-1.522,1.061-3.021,1.78-4.491C131.171,348.874,131.962,347.505,132.867,346.16z
			 M125.269,371.385c-0.065,0.01-0.167,0.052-0.19,0.026c-0.053-0.06-0.071-0.151-0.102-0.232
			C125.074,371.247,125.172,371.316,125.269,371.385z M184.411,381.235c-1.728,4.288-3.455,8.574-5.183,12.861
			c-2.123,7-4.429,13.981-4.696,21.364c-0.3,8.293,2.563,15.149,9.756,19.814c0.985,0.639,1.973,1.275,2.926,1.961
			c1.039,0.748,2.251,1.552,1.875,3.029c-0.354,1.4-1.721,1.744-2.987,2.033c-7.012,1.603-16.103-2.504-20.425-9.397
			c-3.931-6.27-5.475-13.35-6.544-20.55c-0.462-3.101-0.684-6.225-0.484-9.364c-0.584-6.501,0.416-12.801,2.392-18.981
			c0.354-1.105,0.786-1.893,2.209-1.784c7.03,0.539,14.005,0.014,20.938-1.211c0.136-0.051,0.272-0.103,0.41-0.152
			C184.535,380.984,184.473,381.109,184.411,381.235z M264.838,306.58c3.66,8.021,5.296,16.341,3.303,25.12
			c-1.566,9.998-6.589,17.328-16.154,21.31c-7.407,3.084-15.118,3.851-23.002,3.278c-2.918-0.212-5.551-1.63-8.209-2.8
			c-5.514-0.857-11.036-0.88-16.566-0.158c-1.484,0.443-2.466,0.373-2.199-1.663c0.416-3.187,0.729-6.391,0.973-9.596
			c0.088-1.134,0.403-1.732,1.57-1.321c9.84,3.472,19.858,1.884,29.854,1.11c1.155-0.09,2.331,0.091,3.498,0.146
			c3.558-0.638,7.178-0.873,10.676-1.904c11.082-3.269,16.792-12.723,14.312-24.042c-1.029-4.7-2.377-9.317-6.209-12.688
			c-0.602-0.53-1.145-1.21-0.539-2.03c0.563-0.763,1.387-0.565,2.146-0.291C261.152,302.087,263.553,303.762,264.838,306.58z
			 M243.339,336.44c7.935-5.794,12.903-13.516,16.022-22.645c1.259,6.074,1.445,11.99-2.819,17.062
			C253.124,334.922,248.473,336.362,243.339,336.44z M222.855,317.117c-4.049,0.628-8.099,1.255-12.907,2
			c1.774,0.263,2.804,0.416,3.831,0.566c4.492-0.028,8.968-0.074,13.386-1.188c11.246-2.835,17.851-10.614,22.36-20.689
			c2.52-5.627,3.951-11.627,5.98-17.422c1.779-5.083,3.899-10.014,7.496-14.143c4.003-4.594,12.758-6.604,18.944-4.365
			c5.239,1.896,9.159,7.986,9.29,14.432c0.027,1.367,0.027,1.367-1.221,2.145c-1.44-0.692-1.535-2.168-1.945-3.43
			c-1.27-3.907-4-6.207-7.943-6.926c-4.029-0.736-7.169,0.772-9.602,4.127c-5.024,6.93-7.783,14.81-9.865,22.974
			c-0.514,2.016-0.967,3.382-3.576,2.693c-1.527-0.401-3.139,0.234-3.997,1.803c-0.868,1.585-0.307,2.998,0.699,4.334
			c0.698,0.93,1.325,1.914,1.983,2.874c1.017,0.629,1.516,1.459,1.174,2.701c-2.827,10.291-7.301,19.64-17.098,24.946
			c-12.522,6.785-25.605,6.597-38.503,1.085c-10.104-4.318-17.53-11.637-21.696-21.964c-0.778-1.933-1.209-4.008-1.799-6.017
			c-6.689,8.558-8.336,18.519-7.971,28.999c0.197,5.688,1.323,11.243,2.816,16.726c0.779,2.858,0.67,2.956-2.312,2.302
			c-2.375-0.519-4.748-1.051-7.132-1.527c-0.187-0.037-1.01-0.364-0.667,0.488c0.091,0.229,0.402,0.367,0.611,0.548
			c0.314,0.119,0.648,0.22,0.614,0.646c0.544-0.094,0.972,0.04,1.175,0.621l-0.027-0.057c0.355,0.055,0.864-0.048,0.669,0.582
			c3.11,0.505,5.943,1.957,9.082,2.469c6.312,1.025,12.45-0.191,18.642-0.929c8.43-1.005,16.857-2.302,25.33-0.334
			c5.99,1.393,10.791,4.423,13.756,9.973c0.445,0.835,1.095,1.652,0.73,2.721c1.836,1.971,1.617,4.557,1.471,6.812
			c-0.561,8.601-4.127,15.946-10.143,22.106c-0.271,0.279-0.533,0.592-0.857,0.792c-1.246,0.768-2.852,1.905-3.99,0.918
			c-1.285-1.111,0.314-2.444,0.986-3.481c2.42-3.74,5.799-6.909,6.732-11.52c-0.17-1.747-0.139-3.541-0.543-5.229
			c-1.67-6.967-6.62-9.847-15.403-10.536c-6.188-0.486-11.956,1.681-17.833,3.142c-9.496,2.363-18.979,4.864-28.913,4.338
			c-3.05-0.162-6.003-0.751-8.876-1.808c-1.856-0.683-3.062-1.535-2.292-3.857c0.39-1.174,0.265-2.519,0.372-3.787
			c-0.183-1.427-0.283-2.873-0.57-4.277c-0.365-1.775-0.645-3.723-2.681-4.444c-2.06-0.73-3.107,1.016-4.422,2.051
			c-0.569,1.48-0.702,3.855-2.224,3.968c-1.346,0.101-1.877-2.228-2.492-3.617c-1.604-3.628-3.141-7.292-3.445-11.322
			c-2.759-10.709-2.9-21.662-3.037-32.614c-0.042-3.314-0.007-6.631-0.007-9.244c-0.589,1.231-0.853,3.362-1.277,5.45
			c0.12,6.182-1.159,11.697-5.312,16.753c-7.489,9.117-16.959,15.089-27.651,19.542c-7.865,3.276-15.421,7.142-21.662,13.11
			c-1.683,1.609-3.359,1.613-5.241,0.571c-3.114-0.072-5.471-1.815-7.877-3.504c-1.181-0.828-0.815-1.5-0.101-2.365
			c4.631-5.623,9.855-10.459,16.412-13.882c12.191-6.366,21.009-15.999,26.566-28.586c0.417-0.942,1.008-1.913,0.63-3.464
			c-2.204,3.123-3.691,6.421-6.257,8.915c-0.174,0.21-0.348,0.42-0.521,0.63c0.001,0-0.008,0.016-0.008,0.016
			c-6.478,12.75-21.751,18.442-33.439,12.456c-0.776-0.397-1.619-0.775-2.232-1.368c-3.53-3.416-7.838-4.942-12.622-5.381
			c-0.568,0.044-1.138,0.087-1.707,0.132c-0.476,0.712-1.15,0.581-1.83,0.429c-6.97,2.065-10.429,7.272-12.376,13.832
			c-0.027,0.093-0.019,0.2-0.062,0.284c-0.418,0.808-0.08,2.449-1.236,2.308c-1.163-0.141-1.07-1.63-1.015-2.71
			c-0.797-8.637,5.508-18.812,14.423-21.942c7.386-2.593,15.074-2.98,22.562,0.208c0.521,0.223,1.008,0.523,1.942,1.014
			c-2.605,0.886-4.867,1.083-7.13,1.28c0.364,0.77,0.905,1.183,1.823,1.148c12.255-0.458,23.846-2.954,33.591-11.02
			c4.16-3.444,6.87-7.947,9.002-12.835c0.036-0.192,0.061-0.388,0.111-0.576c1.019-3.895,1.019-3.895,4.717-2.229
			c5.902,2.657,8.959,0.808,9.365-5.674c0.042-0.675,0.067-1.352,0.115-2.336c2.102,1.379,3.149,3.398,4.565,5.032
			c1.685,1.943,3.559,3.652,5.622,5.127c3.808,2.725,7.003,2.176,9.896-1.542c3.778-4.855,5.997-10.504,8.193-16.162
			c0.272-0.697,0.534-1.4,0.933-2.451c1.119,2.321,2.117,4.297,3.028,6.312c0.734,1.626,1.721,3.057,2.953,4.332
			c3.961,4.104,7.719,4.014,11.481-0.249c2.124-2.406,3.806-5.138,5.8-8.319c0.868,3.156,0.914,5.887,1.938,8.385
			c2.274,5.537,6.572,6.552,11.049,2.519c3.591-3.235,5.583-7.485,7.343-11.866c0.25-0.624,0.487-1.252,0.914-2.355
			c1.71,3.787,3.392,7.048,5.694,10.058c1.274,1.664,0.761,4.695,1.053,7.108c0.992,4.589,2.246,9.08,4.781,13.108
			C214.535,312.636,218.157,315.399,222.855,317.117z M198.838,348.802c-0.191,0.954-0.37,1.911-0.572,2.863
			c-0.434,2.032-1.533,3.029-3.765,3.277c-4.549,0.506-9.106,0.854-13.659,1.282c-2.982,0.281-4.328-0.895-4.754-3.648
			c-0.162-1.057-0.429-2.095-0.65-3.143c-2.643-8.252-2.826-16.658-1.496-25.138c0.392-2.492,1.006-4.949,1.629-7.967
			c2.722,4.227,5.139,7.961,8.253,11.223c4.1,4.294,8.643,7.923,13.959,10.535c1.321,0.649,1.944,1.403,1.856,2.904
			C199.484,343.609,199.911,346.279,198.838,348.802z M291.309,185.003c-3.937,9.036-7.146,18.443-12.812,26.636
			c-5.581,8.072-13.177,11.65-23.01,9.81c-1.193-0.223-2.599,0.445-3.574-0.776c-0.567-0.016-1.135-0.032-1.701-0.048
			c-0.868,0.108-1.771,0.377-2.411-0.538c-1.687,0.083-3.318-1.071-5.486-0.156c3.324,1.637,2.215,4.189,1.986,6.659
			c-0.589,6.372-2.018,12.532-4.314,18.492c-0.404,1.049-0.711,2.225-1.93,3.098c-1.361-3.396-0.346-7.057-1.766-10.371
			c-1.807,8.802-3.975,17.468-7.373,25.773c-0.662,3.648-2.119,6.997-3.873,10.229c-0.158,0.295-0.523,0.647-0.812,0.666
			c-0.602,0.039-0.736-0.586-0.842-1.014c-0.428-1.714-0.279-3.46-0.176-5.199c0-1.924,0-3.85,0-5.774
			c-0.225-0.111-0.449-0.224-0.674-0.334c-1.912,4.124-4.615,7.715-7.021,11.505c-1.174,3.24-3.234,5.885-5.582,8.341
			c-1.291,1.349-2.432,1.229-3.655-0.151c-2.041-2.304-3.089-5.119-4.213-7.892c-0.21-0.519-0.099-1.167,0.522-1.519
			c0-2.549,0-5.101,0-7.651c-0.168-0.035-0.335-0.069-0.503-0.104c-0.868,2.172-1.735,4.342-2.604,6.514
			c-2.02,6.165-5.086,11.785-9.221,16.753c-2.322,2.787-4.002,2.358-5.34-1.146c-1.539-4.033-2.367-8.236-2.307-12.562
			c0.02-1.259-0.671-2.796,0.893-3.726c0-2.51,0-5.018,0-8.49c-2.092,5.638-4.855,10.031-7.381,14.558
			c-1.753,4.306-4.497,7.908-7.846,11.085c-0.86,0.817-1.848,0.941-2.529-0.027c-3.537-5.03-6.303-10.422-7.391-16.552
			c-0.025-0.14,0.193-0.325,0.298-0.489c-0.024-1.922-0.05-3.846-0.075-5.769c-0.229-0.394-0.459-0.785-0.688-1.179
			c-2.124,6.052-4.881,11.822-7.761,17.539c-1.63,5.265-4.554,9.865-7.553,14.402c-0.958,1.449-2.406,1.655-4.093,0.662
			c-2.612-1.537-4.439-3.82-6.147-6.166c-2.211-3.035-4.71-5.906-6.162-9.445c-1.978-2.607-3.956-5.215-6.296-8.301
			c-0.737,3.793,1.26,6.754,1.229,9.916c2.032,3.078,2.384,6.44,1.45,9.916c-0.56,2.092-2.132,2.484-3.899,1.479
			c-2.619-1.489-4.948-3.359-6.646-5.91c-5.293-5.028-8.703-11.414-12.564-17.47c-1.676-2.629-3.211-5.344-4.84-8.002
			c-0.375-0.61-0.531-1.543-1.95-1.359c1.299,3.471,2.566,6.859,3.835,10.249c1.497,1.901,0.922,4.079,0.647,6.13
			c-0.206,1.534-1.201,2.012-2.313,0.585c-1.59-2.039-3.146-4.114-3.865-6.667c-6.335-8.771-8.821-19.07-11.646-29.245
			c-0.534-1.92,0.26-2.741,1.879-3.229c2.407-0.729,4.868-0.631,7.261-0.124c7.157,1.517,14.261,3.282,21.431,4.724
			c9.587,1.928,19.302,2.764,29.068,3.333c8.415,0.491,16.802,0.431,25.192-0.088c16.872-1.042,33.708-2.408,49.823-8.104
			c3.701-1.31,7.182-3.076,10.26-5.584c6.076-4.951,6.631-11.918,1.228-17.631c-5.271-5.573-12.088-8.532-19.198-10.873
			c-11.978-3.942-24.4-5.123-36.897-6.038c-10.272-0.753-20.544-0.875-30.745,0.195c-15.919,1.672-31.575,4.591-45.284,13.704
			c-3.18,2.113-6.207,4.43-8.345,7.703c-0.928,1.419-1.47,2.962-1.794,4.607c-0.264,1.332,0.717,3.433-0.304,3.853
			c-1.484,0.611-3.433,0.089-5.188,0.376c-0.935,0.153-1.312-0.569-1.426-1.476c-1.502-11.853-2.008-23.718-0.858-35.645
			c0.838-8.694,2.56-17.192,4.859-25.603c0.721-2.638,1.709-5.134,2.922-7.563c-0.749-0.925,0.18-1.309,0.6-1.858l-0.011,0.004
			c0.121-1.576,0.807-2.926,1.684-4.198c3.18-7.975,7.87-14.976,13.705-21.238c0.882-0.946,1.746-2.081,3-0.422
			c4.447,0.233,8.494,2.087,12.692,3.271c16.884,4.757,33.711,9.723,50.562,14.602c2.052,0.594,4.096,1.25,6.185,1.663
			c2.353,0.467,2.841,1.782,2.623,3.999c-0.899,9.153,0.25,18.092,3.506,26.691c2.856,7.549,8.849,11.643,16.446,12.994
			c8.178,1.455,16.496,1.679,24.682-0.341c2.251-0.555,4.399-1.527,6.594-2.307c0.156-0.047,0.313-0.088,0.473-0.12
			c0.111-0.714,0.521-1.09,1.25-1.101c5.89-4.892,4.916-11.506,4.506-17.977c-0.098-1.549-0.114-3.114-0.346-4.644
			c-0.396-2.609,0.597-3.183,2.871-2.174c0.793,0.352,1.598,0.675,2.396,1.011c3.7,0.192,5.423,1.929,6.152,5.801
			c2.082,11.073,3.414,22.17,2.887,33.436c-0.206,4.398-0.369,4.4-4.834,2.73c-1.209-0.103-2.419-0.204-3.99-0.338
			c2.237,1.947,4.479,3.226,6.83,4.334c5.975,1.495,11.975,1.705,18.042,0.541c1.416-0.272,1.456-0.062,0.179,2.553
			c0.057,0.67,0.114,1.341,0.187,2.198c1.755-0.556,2.254-2.108,2.944-3.374c3.635-6.659,3.845-13.877,3.066-21.16
			c-0.423-3.972-1.309-7.894-1.982-11.838c-0.195-1.151-0.477-2.307,0.049-3.671c1.783,0.961,1.845,3.102,3.259,4.355
			c-0.124-2.409-0.31-4.704-0.337-7c-0.016-1.331-0.203-3.211,1.346-3.523c1.883-0.38,2.151,1.687,2.61,2.968
			c1.077,2.997,1.958,6.067,3.047,9.514c1.673-2.298,1.843-4.607,2.675-6.646c0.738-1.81,1.329-3.682,2.131-5.461
			c0.43-0.956,1.059-2.088,2.28-2.018c1.271,0.072,1.642,1.284,1.867,2.339c0.612,2.869,1.146,5.739,0.726,8.718
			c-0.281,1.993-0.316,4.021-0.47,6.168c1.336-0.051,1.437-0.972,1.875-1.521c0.788-4.215,3.021-7.403,7.002-10.047
			C294.238,179.305,292.562,182.127,291.309,185.003z M213.475,217.875c-0.599-1.006-0.371-2.075-0.125-3.091
			c0.691-2.873,1.996-3.377,4.416-1.763c0.883,0.59,1.774,1.177,2.604,1.838c3.453,2.745,3.442,2.887-0.062,5.878
			C216.732,223.164,214.657,222.295,213.475,217.875z M217.514,233.559c-2.611,1.297-5.268,2.479-8.175,3.197
			c-0.389-1.093-0.45-2.095,0.136-3.076c1.187-5.244,3.174-5.854,7.912-2.428C219.327,231.916,219.229,232.707,217.514,233.559z
			 M218.359,228.855c-2.106-0.674-3.971-1.27-5.834-1.865c-2.694,0.535-2.694,0.535-4.394,2.852
			c-1.53-2.943-1.188-4.228,1.515-5.698C213.464,223.136,215.761,224.321,218.359,228.855z M209.479,214.228
			c-0.679,3.157-2.74,5.322-5.353,6.909c-2.491,1.514-4.741,0.736-6.008-1.939c-1.361-2.874-1.722-5.941-1.289-9.094
			c1.217-3.624,3.038-4.617,6.569-3.472c3.153,1.021,6.543,1.865,6.474,6.235C209.863,213.322,209.616,213.774,209.479,214.228z
			 M199.984,231.374c2.615,0.229,3.873,2.251,4.492,4.655c1.086,1.293,0.748,2.066-0.859,2.4c-2.565,0.531-5.126,1.074-7.688,1.614
			c-2.3,0.485-2.683-0.343-1.537-2.229c0.277-0.812,0.455-1.676,0.849-2.429C196.271,233.411,197.32,231.139,199.984,231.374z
			 M193.084,208.941c-1.141,3.691-3.172,6.85-6.104,9.31c-2.479,2.079-4.578,1.56-5.715-1.417c-1.205-3.152-1.685-6.452-0.433-9.768
			c2.623-4.181,7.26-5.274,11.376-2.628C194.018,205.6,194.273,207.152,193.084,208.941z M184.083,234.104
			c2.647-0.17,3.604,2.201,4.617,4.199c1.2,1.741,1.353,2.91-1.341,3.082c-2.397,0.151-4.779,0.584-7.166,0.913
			c-1.555,0.214-1.733-0.378-0.965-1.569c0.24-0.73,0.4-1.498,0.737-2.179C180.898,236.658,181.641,234.259,184.083,234.104z
			 M302.867,105.912c-3.008,7.691-3.358,15.504-1.852,23.561c1.607,8.597-0.021,16.844-3.31,24.83
			c-1.896,4.914-3.79,9.829-5.687,14.742c-0.434,2.2-1.1,4.3-2.854,6.636c-0.302-2.882-0.452-5.22-0.818-7.523
			c-0.289-1.805-0.533-3.856-2.748-4.41c-2.349-0.586-3.64,1.116-4.694,2.757c-1.415,2.204-2.603,4.555-4.091,7.203
			c-0.59-1.178-1.014-2.206-1.59-3.143c-1.355-2.211-2.384-4.652-5.793-4.566c-1.649,0.041-1.822-2.294-2.941-3.315
			c-2.998-2.56-6.512-4.176-10.145-5.6c-6.216-2.438-8.199-5.885-7.418-12.709c0.026-7.208,4.643-10.769,11.496-8.949
			c3.021,0.802,6.077,1.472,9.133,2.136c5.436,1.182,8.01,6.175,5.271,10.3c-2.248,2.934-5.272,3.816-8.81,3.323
			c-3.748-0.524-7.205-2.037-10.927-3.47c3.509,5.746,13.153,8.3,18.951,4.949c2.222-1.284,2.69-0.404,3.09,1.417
			c0.472,2.137,0.14,4.237-0.313,6.348c2.82-2.952,3.58-6.369,2.125-10.154c-0.829-2.156-0.625-2.784,1.908-2.292
			c4.209,0.818,7.221-1.074,8.347-5.012c1.431-5.013,0.791-10-0.759-14.974c-0.235,2.818-0.457,5.639-0.711,8.456
			c-0.211,2.355-0.684,4.665-1.89,6.72c-1.733,2.948-4.396,2.997-6.217,0.136c-0.944-1.483-1.578-3.119-1.771-4.893
			c-0.91-4.947-1.361-9.905,0.438-14.746c1.451-3.901,4.571-4.97,8.242-3.098c1.856,0.946,1.796,2.857,2.465,4.409
			c0.194,0.215,0.367,0.585,0.591,0.617c1.098,0.16,0.557-0.731,0.504-1.048c-0.49-2.999-0.713-6.022-0.521-9.042
			c0.524-8.233,2.766-15.873,8.112-22.372c1.258-1.571,2.739-3.059,4.887-2.343c2.383,0.795,2.379,3.137,2.436,5.174
			C305.104,99.436,304.107,102.739,302.867,105.912z"/>
		<path fill="#0B092B" d="M165.612,357.029c0.007-0.019,0.007-0.03,0.012-0.048c-0.023-0.004-0.047-0.01-0.071-0.014
			L165.612,357.029z"/>
		<path fill="#0B092B" d="M163.811,355.89c0.004-0.022-0.005-0.034-0.003-0.055c-0.017,0.003-0.03,0.001-0.046,0.004L163.811,355.89
			z"/>
		<path fill="#0B092B" d="M49.804,211.281c-0.001-0.007-0.004-0.011-0.006-0.018c-0.003,0-0.006,0-0.009,0L49.804,211.281z"/>
	</g>
	<path fill="#71BF17" d="M111.596,373.455c1.838,1.125,2.43,3.199,3.56,4.838c4.299,6.229,10.406,7.945,17.413,6.923
		c6.46-0.942,10.954-4.811,13.544-10.755c0.964-2.214,2.181-4.514,0.997-7.084c0.339-1.25,0.8-2.737,2.275-2.554
		c1.16,0.145,1.219,1.729,1.248,2.729c0.292,9.667-3.818,20.214-17.07,22.234C122.998,391.396,113.219,384.139,111.596,373.455z"/>
	<path fill="#DBD4E6" d="M240.832,208.324c1.143-6.136,0.131-12.248-0.298-18.352c-0.562-7.983-2.13-15.821-3.907-23.614
		c3.7,0.19,5.424,1.928,6.152,5.8c2.082,11.072,3.414,22.17,2.887,33.436C245.46,209.992,245.297,209.994,240.832,208.324z"/>
	<path fill="#71BF17" d="M179.229,394.097c-0.967-0.555-0.623-1.534-0.768-2.355c-0.619-3.545-3.667-5.505-7.118-4.41
		c-5.999,1.902-9.269,6.37-11.169,12.114c-0.4,1.209-0.053,2.783-1.525,3.543c-0.584-6.501,0.416-12.801,2.392-18.981
		c0.354-1.105,0.786-1.894,2.209-1.784c7.028,0.539,14.005,0.014,20.938-1.211c0.071,0.077,0.147,0.152,0.227,0.226
		C182.686,385.522,180.957,389.81,179.229,394.097z"/>
	<path fill="#DBD4E6" d="M235.057,161.787c-2.675-11.422-6.272-22.406-14.724-31.094c-1.438-4.312-4.187-7.659-7.625-10.541
		c-0.687-0.574-2.476-1.104-1.3-2.338c0.955-1.003,1.768,0.55,2.492,1.116c11.906,9.301,18.976,21.85,23.901,35.812
		c0.941,2.668,1.729,5.392,2.574,8.093c0.076,0.244,0.046,0.521,0.084,1.038C238.43,163.452,236.521,163.253,235.057,161.787z"/>
	<path fill="#71BF17" d="M54.402,328.164c2.207-2.316,4.564-0.338,6.686,0.032c3.527,0.617,6.875,2.201,10.386,2.981
		c10.715,2.387,19.992-1.042,28.424-7.478c0.854-0.652,1.546-1.543,2.799-1.244c-6.479,12.75-21.752,18.443-33.439,12.456
		c-0.776-0.397-1.619-0.775-2.232-1.368C63.494,330.129,59.187,328.604,54.402,328.164z"/>
	<path fill="#DBD4E6" d="M297.703,154.304c-0.941-3.322,0.709-6.413,0.91-9.646c0.229-3.714,0.424-7.356-0.148-11.073
		c-1.5-9.754-1.109-19.46,1.271-29.064c0.377-1.512,0.736-3.031,1.021-4.562c0.715-3.818,0.167-4.988-3.078-6.821
		c1.258-1.57,2.738-3.059,4.887-2.343c2.383,0.795,2.379,3.137,2.436,5.174c0.098,3.47-0.898,6.772-2.139,9.945
		c-3.008,7.69-3.357,15.504-1.853,23.561C302.62,138.07,300.991,146.317,297.703,154.304z"/>
	<path fill="#DBD4E6" d="M233.162,370.883c-5.254-8.113-13.287-10.157-22.26-10.329c-7.814-0.149-15.531,0.697-23.276,1.6
		c-7.087,0.824-14.001-0.247-20.405-3.672c-0.683-0.364-1.457-0.628-1.669-1.512c3.138,0.493,5.989,1.968,9.152,2.482
		c6.312,1.025,12.448-0.19,18.642-0.928c8.43-1.006,16.857-2.303,25.329-0.334c5.991,1.392,10.792,4.423,13.757,9.972
		C232.877,368.997,233.525,369.814,233.162,370.883z"/>
	<path fill="#DBD4E6" d="M54.41,120.324c0.179-8.8,2.449-17.101,6.132-25.028c1.234-2.657,2.515-5.269,3.106-8.161
		c0.383-1.87,0.155-3.521-1.664-4.553c-1.729-0.979-3.187-0.288-4.521,0.881c-2.788,2.441-4.319,5.725-5.942,8.938
		c-0.391,0.774-0.534,1.703-1.543,1.98c0.6-4.799,2.907-8.888,5.495-12.814c2.327-3.529,5.271-4.305,8.851-2.606
		c3.055,1.449,4.274,4.708,2.934,8.519c-0.774,2.199-1.89,4.283-2.91,6.391c-3.598,7.431-6.077,15.221-7.662,23.316
		C56.427,118.502,56.623,120.342,54.41,120.324z"/>
	<path fill="#F7F24F" d="M174.508,217.813c-0.021-3.395-1.695-5.794-4.438-7.638c-3.025-2.033-6.485-2.956-9.881-4.055
		c-0.658-0.213-1.349-0.205-1.832,0.455c-2.523-2.646-5.499-4.336-9.259-4.361c-0.634-0.742-1.795,0.016-2.389-0.84
		c9.664-0.556,19.306-0.034,28.946,0.602c1.515,0.1,2.234,0.273,1.89,2.199C176.723,208.771,175.921,213.356,174.508,217.813z"/>
	<path fill="#66A316" d="M24.158,198.276c2.771,2.341,3.383,6.014,5.47,8.82c2.918,3.926,5.82,7.831,9.864,10.646
		c4.31,2.998,9.201,3.504,14.272,2.721c6.191-0.957,11.429-4.287,16.958-6.887c0.189,0.97,0.408,1.905-0.681,2.584
		c-6.597,4.117-13.496,7.578-21.392,8.056c-7.9,0.478-13.659-3.595-17.786-9.896C27.667,209.437,25.246,204.103,24.158,198.276z"/>
	<path fill="#71BF17" d="M237.906,342.008c-1.36,2.012-3.707,1.999-5.68,2.606c-4.5,1.385-9.213,1.458-13.869,1.856
		c-4.029,0.348-7.894,1.299-11.287,3.62c-1.204,0.824-2.375,1.747-2.859,3.238c-1.486,0.442-2.467,0.373-2.199-1.663
		c0.415-3.188,0.729-6.391,0.973-9.596c0.087-1.134,0.402-1.732,1.57-1.321c9.84,3.473,19.857,1.885,29.854,1.11
		C235.562,341.771,236.739,341.952,237.906,342.008z"/>
	<path fill="#66A316" d="M251.914,220.671c1.408-1.066,3.05-0.576,4.529-0.473c10.48,0.737,17.272-4.343,22.104-13.211
		c3.425-6.284,6.101-12.856,8.771-19.455c0.298-0.733,0.734-1.442-0.154-2.07c0.788-4.215,3.02-7.403,7.002-10.047
		c0.072,3.889-1.604,6.711-2.855,9.587c-3.938,9.036-7.146,18.442-12.812,26.636c-5.581,8.071-13.178,11.649-23.01,9.81
		C254.295,221.224,252.891,221.892,251.914,220.671z"/>
	<path fill="#A1D350" d="M267.225,118.727c-1.449,2.052-2.875,4.118-3.723,7.123c-4.678-9.839-5.041-19.138-0.783-28.553
		c4.122,0.019,5.02,0.736,5.006,4.104c-0.002,0.669-0.195,1.338-0.297,2.007C266.661,108.504,266.005,113.603,267.225,118.727z"/>
	<path fill="#71BF17" d="M220.775,353.488c1.033-0.878,2.26-0.522,3.36-0.368c6.929,0.973,13.794,0.459,20.577-0.985
		c8.866-1.888,14.777-7.824,19.803-14.91c1.276-1.801,1.782-4.103,3.625-5.523c-1.566,9.998-6.589,17.327-16.154,21.31
		c-7.407,3.084-15.118,3.852-23.002,3.278C226.066,356.076,223.434,354.658,220.775,353.488z"/>
	<path fill="#DBD4E6" d="M48.592,207.919c-6.701-7.253-4.815-15.442-2.521-23.639c1.443-5.157,3.062-10.265,4.521-15.417
		c0.377-1.333,1.01-2.818-0.457-3.995c0.3-1.138,1.09-1.287,2.046-0.95c1.039,0.366,1.513,1.234,1.621,2.25
		c0.22,2.084-0.355,4.081-0.865,6.062c-1.409,5.479-2.965,10.921-4.312,16.414c-1.734,7.069-2.241,13.959,4.169,19.406
		C51.148,208.804,49.867,208.401,48.592,207.919z"/>
	<path fill="#DBD4E6" d="M66.858,145.559c-1.098-0.926-0.636-2.195-0.613-3.296c0.094-4.503-0.159-8.968-1.241-13.35
		c-0.926-3.751-2.507-4.627-6.192-3.537c-2.712,0.802-5.396,1.7-8.118,2.462c-2.782,0.777-5.266,2.029-7.305,4.104
		c-0.823-3.003,0.479-5.061,3.194-5.982c4.598-1.562,9.245-3.053,13.972-4.138c4.386-1.008,7.523,1.47,7.932,5.898
		c0.375,4.069,0.486,8.163,0.788,12.24C69.447,142.284,68.76,144.165,66.858,145.559z"/>
	<path fill="#71BF17" d="M37.468,150.888c-0.075,0.955,0.19,1.668,1.193,2.034c2.63,0.962,4.142,3.045,5.251,5.466
		c0.53,1.156,1.151,1.493,2.18,0.567c1.25-1.125,3.085-1.627,3.674-3.456c0.96,0.012,1.879,0.254,1.791,1.403
		c-0.104,1.364-0.417,2.831-1.748,3.522c-2.862,1.483-4.854,3.826-6.863,6.795c-0.497-2.108-0.863-3.843-1.317-5.553
		c-0.648-2.439-1.657-4.888-4.379-5.327c-2.542-0.41-4.627,1.081-6.367,2.958c-1.084,1.17-1.641,2.634-2.556,4.218
		c-2.297-4.119-7.591-4.473-9.774-8.535c2.812-0.493,5.155,0.434,7.202,2.331c1.181,1.094,2.1,1.388,3.154-0.401
		c1.325-2.245,3.452-3.744,6.082-4.176c1.292-0.213,1.949-0.684,1.905-2.001C37.087,150.785,37.277,150.837,37.468,150.888z"/>
	<path fill="#A1D350" d="M31.839,115.81c-1.899,4.391-3.058,8.97-3.314,13.749c-0.127,2.34-1.876,3.013-3.595,3.631
		c-1.783,0.641-3.208,0.077-3.978-1.767c1.09-1.059,0.53-2.406,0.55-3.609c0.046-2.863,0.516-5.636,1.593-8.268
		C25.084,114.688,26.979,113.915,31.839,115.81z"/>
	<path fill="#71BF17" d="M266.486,162.684c5.185-2.059,8.236,0.453,10.285,5.265c1.854-2.354,3.203-4.6,5.164-6.366
		c3.467-3.12,6.756-2.433,8.334,1.907c0.662,1.822,1.17,3.7,1.748,5.555c-0.435,2.202-1.101,4.302-2.854,6.638
		c-0.304-2.883-0.452-5.221-0.819-7.523c-0.287-1.805-0.531-3.856-2.748-4.41c-2.349-0.586-3.64,1.116-4.693,2.757
		c-1.416,2.204-2.604,4.555-4.092,7.203c-0.588-1.178-1.014-2.206-1.588-3.143c-1.355-2.211-2.385-4.652-5.795-4.566
		C267.779,166.04,267.607,163.704,266.486,162.684z"/>
	<path fill="#DBD4E6" d="M30.503,271.846c2.417,2.779,3.643,6.303,6.185,9.096c6.92,7.604,18.437,5.658,24.539,0.283
		c3.104-2.732,5.028-6.137,6.057-10.09c0.19-0.732,0.058-1.643,1.208-1.646c0.516,9.965-7.766,18.695-18.29,19.283
		C40.498,289.312,31.046,281.191,30.503,271.846z"/>
	<path fill="#DBD4E6" d="M67.973,322.997c-12.351-3.812-24.29,0.579-29.347,12.605c-0.937,2.229-1.639,4.555-2.45,6.835
		c-0.797-8.638,5.508-18.812,14.423-21.942c7.386-2.593,15.073-2.98,22.562,0.208c0.521,0.223,1.009,0.522,1.942,1.014
		C72.498,322.604,70.235,322.8,67.973,322.997z"/>
	<path fill="#FDFDFD" d="M243.339,336.44c7.935-5.796,12.903-13.517,16.022-22.645c1.259,6.073,1.443,11.989-2.819,17.062
		C253.124,334.923,248.473,336.362,243.339,336.44z"/>
	<path fill="#66A316" d="M126.184,280.645c1.512-0.201,2.293,0.91,3.158,1.811c2.651,2.756,5.545,5.184,8.885,7.088
		c2.012,1.146,3.527,1.221,5.391-0.604c2.441-2.394,3.717-5.709,6.521-7.746c-1.63,5.266-4.554,9.865-7.553,14.402
		c-0.958,1.449-2.406,1.655-4.093,0.662c-2.612-1.537-4.439-3.82-6.147-6.166C130.135,287.055,127.636,284.184,126.184,280.645z"/>
	<path fill="#FFFFFF" d="M193.084,208.941c-1.141,3.69-3.172,6.85-6.104,9.31c-2.479,2.079-4.578,1.56-5.715-1.417
		c-1.205-3.151-1.685-6.451-0.434-9.767C184.915,207.693,188.999,208.317,193.084,208.941z"/>
	<path fill="#71BF17" d="M65.541,409.411c-2.162-1.169-2.275-3.484-2.801-5.433c-2.013-7.456-1.721-14.959,0.125-22.409
		c0.284-1.147,0.482-2.27,0.493-3.438c0.194,0.011,0.396-0.009,0.582,0.037c4.92,1.236,4.965,1.252,3.353,5.979
		C64.472,392.422,63.854,400.832,65.541,409.411z"/>
	<path fill="#71BF17" d="M202.281,113.221c2.035,0.832,4.087,1.531,6.312,0.726c-2.263,5.523-5.721,10.396-8.505,15.634
		c-1.152,2.17-2.509,1.032-3.915,0.445c-1.567-0.653-1.655-1.652-0.938-3.034C197.605,122.414,199.936,117.812,202.281,113.221z"/>
	<path fill="#F7F24F" d="M138.562,206.527c-4.858-0.878-9.002,0.752-12.775,3.654c-0.681,0.523-1.302,1.123-1.951,1.687
		c-1.085-1.895-1.074-4.086-1.659-6.115c-0.464-1.61,0.759-1.735,1.814-1.923c5.181-0.923,10.373-1.762,15.637-2.057
		c0.228-0.021,0.456-0.043,0.685-0.065c0.542-0.047,1.085-0.095,1.625-0.142c0.249,0.259,0.466,0.203,0.659-0.069
		c0.801-0.026,1.603-0.054,2.403-0.081c0.18,0.327,0.362,0.654,0.544,0.98c-0.232,0.044-0.464,0.087-0.696,0.131
		c-0.45-0.12-0.803,0.009-1.051,0.407C141.745,203.686,140.138,205.083,138.562,206.527z"/>
	<path fill="#71BF17" d="M129.149,345.31c-7.896-1.558-12.629,2.823-16.529,8.787c-0.457,0.698-0.578,1.73-1.697,1.819
		c0.239-3.981,1.364-7.364,5.343-9.297c3.254-1.582,6.218-3.694,8.973-6.057c2.646-2.266,5.028-4.791,7.309-8.411
		C132.592,337.436,133.792,342.137,129.149,345.31z"/>
	<path fill="#DBD4E6" d="M274.825,147.861c-0.191-0.316-0.521-0.619-0.554-0.95c-0.375-3.937-2.186-6.126-6.451-6.344
		c-2.258-0.116-4.479-1.196-6.689-1.92c-5.236-1.714-7.428-0.978-10.634,3.64c-0.496,0.715-1.047,1.394-1.571,2.088
		c0.026-7.208,4.643-10.77,11.496-8.949c3.021,0.802,6.077,1.472,9.133,2.136C274.99,138.743,277.564,143.736,274.825,147.861z"/>
	<path fill="#FFFFFF" d="M209.479,214.228c-0.679,3.157-2.739,5.322-5.353,6.909c-2.491,1.514-4.741,0.735-6.008-1.939
		c-1.361-2.874-1.722-5.94-1.29-9.093C201.045,211.479,205.262,212.854,209.479,214.228z"/>
	<path fill="#DBD4E6" d="M23.416,110.347c-1.927-0.438-1.307-2.045-1.178-3.107c0.478-3.941,0.347-7.95,1.416-11.833
		c0.494-1.793,0.735-3.71-1.191-5.002c-1.938-1.3-3.259,0.164-4.704,1.073c-0.317,0.2-0.667,0.351-1.003,0.523
		c0.299-2.497,1.743-4.29,3.717-5.635c1.532-1.044,3.281-1.269,4.945-0.232c1.55,0.965,2.343,2.559,1.958,4.251
		c-1.363,5.984-2.439,11.986-2.308,18.154C25.093,109.656,24.121,109.885,23.416,110.347z"/>
	<path fill="#DBD4E6" d="M267.225,118.727c-1.22-5.124-0.562-10.223,0.203-15.319c0.102-0.669,0.295-1.338,0.297-2.007
		c0.014-3.367-0.884-4.085-5.006-4.104c0.79-1.868,2.057-3.315,3.873-4.225c2.033-1.017,3.417-0.433,3.942,1.813
		c0.497,2.124,0.34,4.295,0.12,6.424c-0.502,4.86-1.262,9.7-0.93,14.606C269.85,117.767,268.29,117.999,267.225,118.727z"/>
	<path fill="#66A316" d="M183.512,270.516c0.291,3.186,0.752,6.344,1.65,9.418c1.209,4.135,3.137,4.672,6.128,1.664
		c2.263-2.275,4.062-4.93,5.808-7.613c0.672-1.029,1.061-2.317,2.391-2.789c-2.021,6.164-5.088,11.785-9.223,16.752
		c-2.322,2.787-4.002,2.359-5.34-1.145c-1.539-4.031-2.367-8.236-2.307-12.562C182.639,272.982,181.947,271.445,183.512,270.516z"/>
	<path fill="#DBD4E6" d="M47.584,117.179c-0.931,0.292-1.406-0.437-2.024-0.881c-3.132-2.253-6.092-1.66-8.171,1.661
		c-3.736,5.971-4.502,12.565-4.028,19.414c-1.878-0.831-2.301-2.543-2.406-4.305c-0.357-5.984,1.104-11.601,3.996-16.783
		c1.627-2.914,4.285-4.562,7.77-4.1C45.549,112.561,47.166,114.342,47.584,117.179z"/>
	<path fill="#FFFFFF" d="M143.172,243.537c0.331-0.873,0.447-1.579,0.821-2.1c1.835-2.56,3.184-6.595,6.797-6.057
		c3.847,0.572,5.113,4.6,6.603,8.016C152.515,244.068,147.97,243.659,143.172,243.537z"/>
	<path fill="#66A316" d="M158.663,270.6c1.854,1.721,1.84,4.377,3.171,6.367c0.314,0.471,0.373,1.104,0.629,1.623
		c2.829,5.729,5.176,6.085,9.727,1.693c1.293-1.247,2.086-3.055,3.941-3.7c-1.753,4.306-4.497,7.908-7.846,11.085
		c-0.86,0.816-1.85,0.939-2.529-0.027c-3.535-5.029-6.303-10.423-7.391-16.552C158.34,270.948,158.559,270.764,158.663,270.6z"/>
	<path fill="#F7F24F" d="M209.479,214.228c-4.217-1.374-8.434-2.748-12.649-4.123c1.218-3.624,3.039-4.617,6.569-3.474
		c3.152,1.021,6.543,1.865,6.474,6.235C209.863,213.321,209.615,213.773,209.479,214.228z"/>
	<path fill="#DBD4E6" d="M288.997,124.981c-0.388-0.034-0.798,0.007-1.156-0.112c-5.854-1.928-7.893-0.564-8.931,5.55
		c-0.453,2.661-0.049,5.424-1.059,7.997c-0.91-4.947-1.361-9.905,0.438-14.746c1.451-3.9,4.57-4.97,8.242-3.098
		C288.389,121.519,288.328,123.43,288.997,124.981z"/>
	<path fill="#DBD4E6" d="M31.839,115.81c-4.86-1.895-6.755-1.122-8.744,3.736c-1.077,2.632-1.547,5.404-1.593,8.268
		c-0.02,1.203,0.54,2.551-0.55,3.609c-2.715-5.788-0.665-14.727,4.277-18.739c1.297-1.054,2.769-1.434,4.386-1.245
		C32.369,111.759,33.118,113.262,31.839,115.81z"/>
	<path fill="#A1D350" d="M274.384,123.28c-0.604,4.135-1.093,8.275-0.399,12.605c-2.049-0.513-3.883-0.971-5.719-1.43
		c0.041-1.351,0.012-2.707,0.139-4.049C268.842,125.755,270.639,123.646,274.384,123.28z"/>
	<path fill="#71BF17" d="M212.04,63.837c-1.752-0.402-1.036-1.834-1.13-2.86c-0.631-6.821-1.086-13.675-4.357-19.917
		c0.398-0.923,0.922-1.939,2.016-1.823c1.007,0.109,1.06,1.306,1.293,2.1C212.02,48.693,213.182,56.156,212.04,63.837z"/>
	<path fill="#71BF17" d="M141.793,39.829c-2.513-0.167-3.49,1.902-4.549,3.469c-2.997,4.438-5.107,9.356-7.078,14.325
		c-0.391,0.985-0.649,2.053-1.649,2.661c1.564-8.318,4.789-15.922,9.826-22.734c0.477-0.643,0.769-1.845,1.809-1.551
		c0.856,0.242,1.051,1.318,1.292,2.155C141.601,38.701,141.68,39.27,141.793,39.829z"/>
	<path fill="#A1D350" d="M193.762,114.384c0.012,0.811-0.3,1.512-1.544,1.2c-4.11-1.029-8.215-1.914-12.237,0.35
		c-0.813,0.457-1-0.262-1.19-0.779c-0.664-1.787-0.112-3.127,1.703-3.703c4.358-1.383,8.481,0.054,12.588,1.287
		C193.83,112.964,193.773,113.176,193.762,114.384z"/>
	<path fill="#DBD4E6" d="M102.188,130.789c-0.298,0.337-0.595,0.675-0.893,1.012c-6.353,6.188-10.713,13.784-15.096,21.364
		c-0.239-0.238-0.478-0.478-0.717-0.716c3.18-7.976,7.87-14.977,13.705-21.238C100.069,130.265,100.934,129.13,102.188,130.789z"/>
	<path fill="#66A316" d="M112.021,287.746c6.752,2.086,7.782,1.465,9.092-5.484c2.035,3.077,2.387,6.439,1.453,9.915
		c-0.561,2.093-2.133,2.484-3.899,1.479C116.049,292.167,113.72,290.297,112.021,287.746z"/>
	<path fill="#FFFFFF" d="M125.868,240.721c1.054-2.887,2.354-6.138,5.785-6.052c3.718,0.095,5.229,3.453,6.364,6.64
		C133.968,241.111,129.918,240.916,125.868,240.721z"/>
	<path fill="#F7F24F" d="M193.084,208.941c-4.085-0.624-8.169-1.248-12.252-1.874c2.624-4.182,7.261-5.274,11.377-2.629
		C194.018,205.601,194.273,207.152,193.084,208.941z"/>
	<path fill="#DBD4E6" d="M274.384,123.28c-3.745,0.366-5.542,2.475-5.979,7.127c-0.127,1.342-0.098,2.698-0.139,4.049
		c-0.687,0.16-1.318,0.275-1.676-0.601c-1.457-3.576,0.758-11.4,3.971-13.629c1.424-0.987,3.266-2.354,4.742-1.027
		C276.574,120.342,274.648,121.866,274.384,123.28z"/>
	<path fill="#DBD4E6" d="M65.583,258.932c-1.867-2.168-1.773-4.354-0.591-6.922c1.848-4.01,4.003-7.839,6.5-11.436
		c1.004-1.444,2.211-3.463,4.711-2.822C70.843,243.898,67.535,251.075,65.583,258.932z"/>
	<path fill="#66A316" d="M202.593,272.438c1.447,0.101,1.397,1.529,1.834,2.34c2.291,4.25,5.021,5.166,8.808,0.418
		c0.606-0.762,1.142-1.59,2.285-1.537c-1.172,3.24-3.233,5.885-5.582,8.341c-1.289,1.349-2.432,1.229-3.654-0.151
		c-2.041-2.304-3.09-5.117-4.213-7.892C201.859,273.438,201.971,272.789,202.593,272.438z"/>
	<path fill="#FFFFFF" d="M117.985,208.954c0.07,1.604-0.475,3.057-1.118,4.481c-1.787,3.951-4.605,4.342-7.301,1.008
		c-0.74-0.915-1.393-1.884-1.419-3.128C111.427,210.529,114.706,209.742,117.985,208.954z"/>
	<path fill="#DBD4E6" d="M70.118,211.539c-6.021,1.919-12.108,2.971-18.342,1.115c-0.721-0.214-2.239,0.34-1.986-1.393
		c2.487,0.07,4.976,0.139,7.464,0.214c3.836,0.116,7.527-0.558,11.112-1.922c0.588-0.224,1.293-0.973,1.852-0.391
		C70.862,209.835,70.742,210.768,70.118,211.539z"/>
	<path fill="#F7F24F" d="M213.475,217.875c-0.599-1.006-0.371-2.075-0.127-3.091c0.692-2.873,1.996-3.377,4.416-1.763
		c0.885,0.59,1.775,1.177,2.605,1.838c3.453,2.745,3.443,2.887-0.061,5.879C218.352,219.018,216.646,216.695,213.475,217.875z"/>
	<path fill="#71BF17" d="M138.039,351.129c2.476,3.838,5.096,7.569,8.161,10.971c-0.568,1.481-0.701,3.856-2.224,3.971
		c-1.347,0.1-1.877-2.229-2.492-3.618C139.88,358.823,138.343,355.159,138.039,351.129z"/>
	<path fill="#FFFFFF" d="M109.004,237.206c0.773-0.587,1.553-1.167,2.319-1.763c3.894-3.026,5.399-2.697,7.883,1.754
		c0.233,0.417,0.359,0.893,0.535,1.34c-0.217,0.3-0.483,0.89-0.642,0.861C115.705,238.807,112.085,239.225,109.004,237.206z"/>
	<path fill="#FFFFFF" d="M161.922,241.898c0.066-1.469,1.006-2.526,1.829-3.586c1.903-2.446,3.832-2.64,6.248-0.604
		c1.032,0.868,1.875,1.962,2.803,2.953C169.354,242.654,165.564,241.631,161.922,241.898z"/>
	<path fill="#FFFFFF" d="M194.393,237.814c0.276-0.812,0.455-1.676,0.849-2.43c1.03-1.975,2.079-4.246,4.743-4.012
		c2.615,0.23,3.873,2.251,4.492,4.654C201.114,236.624,197.754,237.219,194.393,237.814z"/>
	<path fill="#FFFFFF" d="M179.229,240.729c0.24-0.729,0.4-1.498,0.736-2.179c0.934-1.893,1.676-4.291,4.117-4.446
		c2.648-0.17,3.605,2.201,4.617,4.198C185.921,240.59,182.377,239.887,179.229,240.729z"/>
	<path fill="#71BF17" d="M127.862,90.856c1.15,1.245,0.356,2.767,0.582,4.144c0.146,0.883-0.329,2.054,1.134,2.271
		c-0.481,1.86-0.987,3.715-1.436,5.583c-0.229,0.954-0.692,1.655-1.729,1.606c-1.213-0.057-1.244-1.155-1.271-1.946
		C125.001,98.396,126.092,94.542,127.862,90.856z"/>
	<path fill="#F7F24F" d="M117.985,208.954c-3.279,0.788-6.559,1.575-9.838,2.361c-0.708-1.792-0.063-3.039,1.642-3.71
		c1.613-0.634,3.257-1.23,4.936-1.653C117.205,205.325,117.962,206.082,117.985,208.954z"/>
	<path fill="#A1D350" d="M215.759,133.529c-1.243-3.718-3.38-6.572-6.348-8.785c-1.009-0.752-1.53-1.543-0.615-2.66
		c1.106-1.351,1.713,0.083,2.3,0.575c2.18,1.824,4.2,3.835,5.416,6.457C217.158,130.512,217.852,132.04,215.759,133.529z"/>
	<path fill="#DBD4E6" d="M261.893,215.414c-5.319-0.235-10.732,0.497-15.873-1.61c-0.894-0.365-1.918-0.42-2.348-1.482
		c5.975,1.494,11.975,1.704,18.042,0.54C263.13,212.589,263.17,212.799,261.893,215.414z"/>
	<path fill="#F7F24F" d="M109.004,237.206c3.081,2.019,6.701,1.601,10.096,2.192c0.158,0.027,0.425-0.562,0.642-0.861
		c0.646,0.88,1.293,2.059,0.827,2.902c-0.599,1.086-1.934,0.279-2.896,0.146c-2.769-0.392-5.521-0.911-8.262-1.47
		c-0.854-0.174-2.24,0.173-2.353-1.066C106.967,238.029,108.084,237.555,109.004,237.206z"/>
	<path fill="#F7F24F" d="M125.868,240.721c4.05,0.195,8.1,0.391,12.149,0.588c0.922,1.275,1.655,2.457-0.955,2.241
		c-3.375-0.278-6.752-0.522-10.127-0.8C125.549,242.636,124.481,242.312,125.868,240.721z"/>
	<path fill="#FFFFFF" d="M95.429,227.753c2.864-2.246,5.277-2.37,7.245-0.297c0.654,0.69,1.504,1.471,1.2,2.517
		c-0.28,0.969-1.418,0.945-2.22,1.146c-0.823,0.206-1.726,0.095-2.593,0.122C98.069,229.85,96.241,229.33,95.429,227.753z"/>
	<path fill="#66A316" d="M90.971,271.212c1.847,0.244,3.7,1.235,5.533-0.047c1.495,1.899,0.921,4.078,0.646,6.129
		c-0.206,1.534-1.201,2.013-2.313,0.585C93.246,275.84,91.689,273.764,90.971,271.212z"/>
	<path fill="#66A316" d="M223.216,268.264c1.896-0.287,2.72-1.918,3.818-3.152c0.565-0.635,0.896-1.453,1.886-1.529
		c-0.663,3.646-2.12,6.996-3.874,10.229c-0.159,0.295-0.522,0.647-0.812,0.666c-0.603,0.039-0.736-0.586-0.844-1.014
		C222.964,271.748,223.111,270.002,223.216,268.264z"/>
	<path fill="#F7F24F" d="M194.393,237.814c3.361-0.597,6.723-1.19,10.084-1.785c1.086,1.293,0.748,2.064-0.859,2.398
		c-2.564,0.531-5.126,1.074-7.688,1.614C193.63,240.527,193.246,239.7,194.393,237.814z"/>
	<path fill="#F7F24F" d="M97.217,217.211c-2.28-1.391-2.164-2.675,0.144-3.916c0.935-0.503,1.785-1.174,2.741-1.626
		c0.99-0.47,2.08-1.565,3.153-0.563c0.901,0.842,0.716,2.11,0.185,3.228C100.862,214.206,98.794,215.178,97.217,217.211z"/>
	<path fill="#FFFFFF" d="M209.475,233.68c1.188-5.244,3.174-5.854,7.912-2.429c-0.949,0.476-1.863,1.056-2.857,1.399
		C212.898,233.215,211.457,234.836,209.475,233.68z"/>
	<path fill="#F7F24F" d="M209.475,233.68c1.982,1.156,3.426-0.465,5.055-1.027c0.994-0.346,1.908-0.926,2.857-1.4
		c1.94,0.665,1.844,1.456,0.127,2.309c-2.611,1.295-5.268,2.479-8.175,3.196C208.949,235.663,208.889,234.661,209.475,233.68z"/>
	<path fill="#F7F24F" d="M161.922,241.898c3.643-0.269,7.434,0.756,10.88-1.237c0.699,0.424,1.31,1.09,1.134,1.84
		c-0.192,0.824-1.156,0.454-1.771,0.503c-3.078,0.245-6.16,0.43-9.242,0.626C161.448,243.725,160.762,243.342,161.922,241.898z"/>
	<path fill="#F7F24F" d="M179.229,240.729c3.148-0.842,6.692-0.139,9.472-2.427c1.2,1.742,1.353,2.911-1.341,3.083
		c-2.397,0.151-4.779,0.584-7.166,0.913C178.639,242.512,178.46,241.92,179.229,240.729z"/>
	<path fill="#FFFFFF" d="M213.475,217.875c3.172-1.18,4.877,1.143,6.834,2.863C216.73,223.164,214.656,222.295,213.475,217.875z"/>
	<path fill="#F7F24F" d="M209.646,224.145c3.817-1.008,6.114,0.177,8.713,4.71c-2.106-0.672-3.971-1.27-5.836-1.864
		C212.166,225.434,211.025,224.668,209.646,224.145z"/>
	<path fill="#FFFFFF" d="M209.646,224.145c1.379,0.523,2.52,1.289,2.877,2.846c-2.692,0.536-2.692,0.536-4.392,2.853
		C206.604,226.899,206.943,225.614,209.646,224.145z"/>
	<path fill="#71BF17" d="M204.802,38.557c-1.557-0.752-3.146-0.408-4.731-0.136c0.701-1.609,2.138-2.467,3.521-3.342
		c1.08-0.684,2.226-0.768,3.144,0.318c1.195,1.411-0.521,1.729-1.017,2.484C205.521,38.179,205.114,38.336,204.802,38.557z"/>
	<path fill="#FFFFFF" d="M105.499,223.419c0.647,0.194,1.356,0.283,1.929,0.61c0.798,0.455,2.068,0.833,1.903,1.893
		c-0.165,1.054-1.428,1.521-2.308,2.075c-1.198,0.755-1.286-0.723-1.889-1.159c-0.543-0.394-0.975-0.939-1.454-1.418
		C103.803,224.313,105.105,224.28,105.499,223.419z"/>
	<path fill="#FFFFFF" d="M97.217,217.211c1.577-2.033,3.646-3.005,6.223-2.878C102.305,218.506,100.582,219.303,97.217,217.211z"/>
	<path fill="#F7F24F" d="M95.429,227.753c0.812,1.577,2.641,2.097,3.633,3.486c-1.035,0.624-2.058,0.03-3.039-0.136
		c-0.869-0.148-2.175-0.19-2.311-1.317C93.593,228.799,94.391,228.046,95.429,227.753z"/>
	<path fill="#FDFDFD" d="M119.118,222.599c0.819-0.833,1.605-1.701,2.471-2.482c0.415-0.376,0.791-1.427,1.523-0.631
		c0.508,0.552,0.614,1.418-0.209,2.047c-1.229,0.938-2.429,1.912-3.641,2.871l-0.17-0.154
		C119.101,223.699,119.109,223.148,119.118,222.599z"/>
	<path fill="#F7F24F" d="M105.499,223.419c-0.394,0.861-1.696,0.895-1.818,2.001c-0.866-0.554-2.768-0.152-2.512-1.554
		c0.207-1.136,1.917-0.919,3.048-0.884C104.647,222.995,105.071,223.266,105.499,223.419z"/>
	<path fill="#66A316" d="M57.149,134.532c1.238-0.903,2.608-1.443,4.564-1.785c-1.089,1.656-2.234,2.424-3.649,2.853
		C57.76,135.244,57.454,134.888,57.149,134.532z"/>
	<path fill="#FDFDFD" d="M119.263,224.403c-0.817,1.174-1.96,1.988-3.102,2.801c-0.432-0.241-0.863-0.483-1.294-0.725
		c0.905-0.808,1.81-1.615,2.714-2.424c0.504,0.065,1.008,0.13,1.512,0.193L119.263,224.403z"/>
	<path fill="#A1D350" d="M85.482,152.449c0.239,0.238,0.478,0.478,0.717,0.716c-0.618,1.286-0.614,3.001-2.4,3.482
		C83.919,155.071,84.605,153.722,85.482,152.449z"/>
	<path fill="#71BF17" d="M145.544,202.396c-0.182-0.326-0.364-0.653-0.544-0.98c0.57-0.014,1.141-0.027,1.71-0.041
		c0.594,0.855,1.755,0.098,2.389,0.84C147.913,202.275,146.729,202.336,145.544,202.396z"/>
	<path fill="#A1D350" d="M47.539,211.185c-1.193-0.356-2.454-0.605-3.071-1.897c1.248,0.365,2.594,0.441,3.7,1.232
		C47.959,210.742,47.749,210.964,47.539,211.185z"/>
	<path fill="#66A316" d="M247.802,220.085c1.009-0.735,1.884-0.876,2.41,0.539C249.346,220.73,248.441,221,247.802,220.085z"/>
	<path fill="#66A316" d="M157.899,263.652c0.05-0.555,0.262-1.528,0.705-1.236c0.891,0.588,0.515,1.598-0.017,2.415
		C158.358,264.438,158.129,264.046,157.899,263.652z"/>
	<path fill="#DBD4E6" d="M114.867,226.479c0.431,0.241,0.862,0.483,1.294,0.725c-0.264,0.521-0.611,0.944-1.213,1.086
		c-0.206-0.458-0.412-0.917-0.618-1.376C114.509,226.77,114.688,226.625,114.867,226.479z"/>
	<path fill="#71BF17" d="M50.865,328.725c0.381-1.121,0.977-1.324,1.83-0.429C52.219,329.008,51.545,328.877,50.865,328.725z"/>
	<path fill="#DBD4E6" d="M119.093,224.249c-0.504-0.063-1.008-0.128-1.512-0.193c0.36-0.646,0.834-1.172,1.537-1.457
		C119.109,223.148,119.101,223.699,119.093,224.249z"/>
	<path fill="#A1D350" d="M83.807,156.645c0.182,0.742,0.172,1.424-0.601,1.858C82.458,157.577,83.387,157.193,83.807,156.645z"/>
	<path fill="#66A316" d="M227.199,190.141c0.004,0.843-0.398,1.227-1.249,1.102C226.061,190.527,226.471,190.151,227.199,190.141z"
		/>
	<path fill="#71BF17" d="M211.898,66.203c-0.348-0.098-0.762-0.188-0.735-0.634c0.024-0.441,0.438-0.497,0.8-0.548
		C211.941,65.415,211.92,65.809,211.898,66.203z"/>
	<path fill="#DBD4E6" d="M47.539,211.185c0.21-0.221,0.42-0.442,0.629-0.665c0.553,0.238,1.435-0.233,1.637,0.76
		C49.026,211.799,48.289,211.336,47.539,211.185z"/>
	<path fill="#71BF17" d="M141.903,42.686c-0.449-0.597-0.459-1.195-0.003-1.792C141.902,41.491,141.902,42.089,141.903,42.686z"/>
	<path fill="#A1D350" d="M87.562,363.157c-0.372,0.301-0.739,0.628-1.228,0.194c0.234-0.257,0.469-0.514,0.702-0.771
		C87.211,362.772,87.387,362.965,87.562,363.157z"/>
	<path fill="#DBD4E6" d="M16.814,91.986c0.012,0.505,0.006,1.001-0.57,1.233C16.303,92.748,16.135,92.171,16.814,91.986z"/>
	<path fill="#DBD4E6" d="M164.982,356.456c-0.5-0.021-0.996-0.053-1.221-0.618C164.329,355.729,164.773,355.858,164.982,356.456z"/>
	<path fill="#FDFDFD" d="M80.117,341.59c0.356-0.38,0.737-0.425,1.147-0.085c-0.311,0.101-0.622,0.2-0.933,0.302
		C80.261,341.733,80.189,341.661,80.117,341.59z"/>
	<path fill="#DBD4E6" d="M47.954,118.454c-0.46-0.283-0.571-0.709-0.498-1.211C48.262,117.385,47.901,118.004,47.954,118.454z"/>
	<path fill="#71BF17" d="M184.188,381.011c0.137-0.051,0.272-0.103,0.41-0.152c-0.062,0.126-0.123,0.251-0.185,0.378
		C184.335,381.163,184.259,381.088,184.188,381.011z"/>
	<path fill="#71BF17" d="M142.597,201.497c-0.193,0.272-0.41,0.328-0.659,0.069C142.158,201.543,142.377,201.521,142.597,201.497z"
		/>
	<path fill="#71BF17" d="M140.312,201.708c-0.229,0.022-0.457,0.044-0.685,0.065C139.826,201.431,140.05,201.363,140.312,201.708z"
		/>
	<path fill="#A1D350" d="M124.975,371.173c0.099,0.069,0.199,0.141,0.298,0.21c-0.065,0.011-0.167,0.053-0.19,0.026
		c-0.055-0.062-0.072-0.157-0.104-0.239L124.975,371.173z"/>
	<path fill="#DBD4E6" d="M165.609,357.03c-0.219-0.211-0.438-0.421-0.654-0.631C165.32,356.456,165.854,356.34,165.609,357.03z"/>
	<path fill="#DBD4E6" d="M163.812,355.89c-0.205-0.232-0.412-0.468-0.619-0.7C163.523,355.312,163.889,355.407,163.812,355.89z"/>
	<path fill="#71BF17" d="M141.592,45.12c0.049-0.24,0.096-0.479,0.144-0.718C141.688,44.642,141.64,44.88,141.592,45.12z"/>
	<path fill="#71BF17" d="M102.705,322.442c0.173-0.21,0.347-0.421,0.52-0.631C103.051,322.022,102.877,322.232,102.705,322.442z"/>
	<path fill="#0B092B" d="M84.78,163.618c1.493-7.405,3.966-14.294,10.619-18.729c7.007-4.671,13.837-2.733,16.247,5.262
		c4.631,15.359,3.657,30.099-7.835,42.474c-4.942,5.323-11.61,7.842-19.046,8.214c1.035-0.65,2.07-1.301,3.105-1.95
		c2.385-0.978,4.716-2.051,7.001-3.692c-2.237-0.926-4.305-1.382-5.901-3.021c-3.613-3.712-4.267-8.438-4.517-13.169
		C84.184,173.889,84.177,168.736,84.78,163.618z M95.904,192.138c-1.637-2.919-3.215-5.119-3.873-7.765
		c-2.159-8.672-1.809-17.26,0.957-25.722c1.621-4.961,4.828-8.645,9.605-10.91c0.61-0.29,1.853-0.3,1.52-1.363
		c-0.234-0.747-1.257-0.85-2.062-0.793c-2.962,0.21-5.074,1.958-6.886,4.058c-5.143,5.961-7.123,13.17-7.742,20.799
		c-0.388,4.77-0.6,9.586,1.061,14.228C89.697,188.063,91.641,190.744,95.904,192.138z"/>
	<path fill="#0B092B" d="M188.624,248.075c-21.002,10.171-42.474,10.229-64.251,2.803c10.688,0.858,21.396,1.381,32.133,1.159
		C167.367,251.812,178.014,250.011,188.624,248.075z"/>
	<path fill="#66A316" d="M84.78,163.618c-0.604,5.118-0.597,10.271-0.326,15.387c0.25,4.731,0.903,9.457,4.517,13.169
		c1.597,1.64,3.664,2.096,5.901,3.021c-2.285,1.642-4.616,2.715-7.001,3.692c-2.865-3.196-5.183-6.605-6.109-10.978
		c-1.723-8.122-0.162-15.849,2.188-23.539C84.044,164.064,84.495,163.866,84.78,163.618z"/>
	<path fill="#0B092B" d="M180.74,192.571c-0.195,0.226-0.389,0.45-0.584,0.676c-8.092-1.589-16.232-2.969-24.487-3.014
		c-9.13-0.049-18.184,1.052-27.143,2.846c0-0.373,0-0.747,0-1.12c8.086-3.117,16.573-4.42,25.129-4.432
		c8.162-0.012,16.31,1.006,24.037,4.053C178.684,191.972,179.723,192.244,180.74,192.571z"/>
	<path fill="#66A316" d="M128.526,191.959c0,0.373,0,0.747,0,1.12c-1.421,0.424-2.842,0.848-4.264,1.271
		c-0.107-0.28-0.215-0.561-0.322-0.841C125.229,192.489,126.784,192.03,128.526,191.959z"/>
	<path fill="#66A316" d="M241.51,218.92c0.221,0.532-0.13,0.613-0.392,0.581c-0.249-0.031-0.582-0.182-0.69-0.381
		c-0.179-0.328,0.094-0.573,0.418-0.534C241.1,218.616,241.331,218.824,241.51,218.92z"/>
	<path fill="#66A316" d="M122.821,194.59c-0.172,0.082-0.34,0.227-0.5,0.219c-0.155-0.007-0.305-0.171-0.456-0.266
		c0.164-0.081,0.33-0.229,0.49-0.225C122.51,194.324,122.658,194.488,122.821,194.59z"/>
	<path fill="#0B092B" d="M61.01,261.139c-1.004,1.422-1.839,2.61-2.68,3.797c-2.602,3.67-2.602,3.668,0.839,6.396
		c3.747,2.97,3.747,2.97,0.729,6.819c-2.921,3.729-2.921,3.729-6.751,0.701c-2.996-2.365-2.996-2.365-5.204,0.729
		c-2.86,4.005-2.861,4.005-6.979,1.07c-3.743-2.67-3.743-2.67-1.104-6.342c2.708-3.771,2.708-3.771-1.062-6.771
		c-3.416-2.719-3.416-2.719-0.674-6.239c3.141-4.032,3.268-4.179,7.191-0.759c2.261,1.97,3.358,1.742,4.942-0.745
		c2.764-4.341,2.929-4.24,7.156-1.256C58.583,259.365,59.735,260.216,61.01,261.139z"/>
	<path fill="#0B092B" d="M197.959,160.232c1.271,0.114,2.041,0.905,1.406,2.672c-0.956,2.659-5.979,6.023-8.838,5.896
		c-1.775-0.08-2.475-0.966-1.873-2.694C189.557,163.508,194.723,160.082,197.959,160.232z"/>
	<path fill="#0B092B" d="M211.488,161.062c2.783,0.104,7.378,3.717,8.178,6.431c0.588,1.995-0.346,3.153-2.382,2.66
		c-3.396-0.82-5.989-2.872-7.579-5.971C208.711,162.243,209.543,160.988,211.488,161.062z"/>
	<path fill="#0B092B" d="M145.544,202.396c1.185-0.061,2.369-0.121,3.555-0.182c3.76,0.025,6.735,1.715,9.259,4.361
		c3.154,5.43,2.599,10.43-1.551,13.947c-4.494,3.809-11.611,3.917-16.269,0.298c-4.165-3.239-5.573-9.104-1.978-14.293
		c1.577-1.445,3.185-2.843,5.235-3.593c0.453,0.13,0.822,0.042,1.052-0.408C145.08,202.483,145.312,202.44,145.544,202.396z
		 M142.627,206.686c-2.871,1.212-3.861,3.443-4.025,6.038c-0.179,2.837,1.683,5.471,5.336,7.277
		C141.248,215.43,140.331,211.19,142.627,206.686z"/>
	<path fill="#0B092B" d="M91.035,361.961c0.061,0.003,0.14-0.017,0.176,0.014c0.047,0.039,0.099,0.14,0.08,0.179
		c-0.12,0.243-0.253,0.236-0.348-0.019C90.928,362.095,91.002,362.02,91.035,361.961z"/>
	<path fill="#71BF17" d="M144.848,202.527c-0.229,0.45-0.599,0.538-1.052,0.408C144.045,202.536,144.397,202.407,144.848,202.527z"
		/>
	<path fill="#A1D350" d="M95.904,192.138c-4.264-1.394-6.207-4.074-7.421-7.469c-1.66-4.642-1.448-9.458-1.061-14.228
		c0.619-7.629,2.6-14.838,7.742-20.799c1.812-2.1,3.924-3.848,6.886-4.058c0.806-0.057,1.828,0.046,2.062,0.793
		c0.333,1.063-0.909,1.073-1.52,1.363c-4.777,2.266-7.984,5.949-9.605,10.91c-2.766,8.462-3.116,17.05-0.957,25.722
		C92.689,187.019,94.268,189.219,95.904,192.138z"/>
	<path fill="#71BF17" d="M142.627,206.686c-2.296,4.505-1.379,8.744,1.311,13.315c-3.653-1.807-5.515-4.44-5.336-7.277
		C138.766,210.129,139.756,207.897,142.627,206.686z"/>
</g>
<image overflow="visible" width="1151" height="594" xlink:href="../../../../../Desktop/Bildschirmfoto 2015-11-30 um 16.39.32.png"  transform="matrix(1 0 0 1 360 -46)">
</image>
<path fill="#45A9B6" d="M244.555,357.837l64.24-0.657c0,0-9.24-26.749-33.191-23.741
	C251.652,336.445,244.555,357.837,244.555,357.837z"/>
<path fill="#45A9B6" d="M187.277,400.567l77.39-0.696c0,0-11.132-28.333-39.985-25.147S187.277,400.567,187.277,400.567z"/>
<path fill="#88C3CB" d="M204.259,414.977l57.32-0.696c0,0-8.245-28.333-29.616-25.147S204.259,414.977,204.259,414.977z"/>
<path fill="#88C3CB" d="M35.465,427.842l57.32-0.696c0,0-8.245-28.333-29.616-25.147S35.465,427.842,35.465,427.842z"/>
<path fill="#88C3CB" d="M147.651,444.824l57.32-0.696c0,0-8.244-28.333-29.615-25.147
	C153.984,422.166,147.651,444.824,147.651,444.824z"/>
</svg>
