<?xml version="1.0" encoding="utf-8"?>
<!-- Generator: Adobe Illustrator 18.0.0, SVG Export Plug-In . SVG Version: 6.00 Build 0)  -->
<!DOCTYPE svg PUBLIC "-//W3C//DTD SVG 1.1//EN" "http://www.w3.org/Graphics/SVG/1.1/DTD/svg11.dtd">
<svg version="1.1" id="Ebene_1" xmlns="http://www.w3.org/2000/svg" xmlns:xlink="http://www.w3.org/1999/xlink" x="0px" y="0px"
	 viewBox="0 0 435.5 454" enable-background="new 0 0 435.5 454" xml:space="preserve">
<ellipse fill="#168099" cx="257" cy="202.3" rx="114" ry="108.3"/>
<ellipse fill="#168099" cx="323" cy="66.8" rx="30" ry="28.5"/>
<ellipse fill="#168099" cx="104.7" cy="96.6" rx="64.6" ry="61.4"/>
<ellipse fill="#168099" cx="213.4" cy="95.9" rx="64.6" ry="61.4"/>
<ellipse fill="#168099" cx="161.9" cy="279.6" rx="81.1" ry="77.1"/>
<ellipse fill="#168099" cx="118.7" cy="183.9" rx="64.6" ry="61.4"/>
<g>
	<path fill="#1996BC" d="M244.7,150.6c4.6-3.8,3.9-9,3.5-14.1c-0.1-1.2-0.1-2.4-0.3-3.6c-0.3-2,0.5-2.5,2.3-1.7
		c0.6,0.3,1.3,0.5,1.9,0.8c1.4,6.1,2.6,12.3,3.1,18.5c0.3,4.8,1.1,9.6,0.2,14.4c-0.9-0.1-1.9-0.2-3.1-0.3c1.8,1.5,3.5,2.5,5.4,3.4
		c0.3,0.8,1.1,0.9,1.8,1.2c4,1.7,8.3,1.1,12.5,1.3c0,0.5,0.1,1.1,0.1,1.7c1.4-0.4,1.8-1.7,2.3-2.6c2.9-5.2,3-10.9,2.4-16.6
		c-0.3-3.1-1-6.2-1.6-9.3c-0.2-0.9-0.4-1.8,0-2.9c1.4,0.8,1.4,2.4,2.6,3.4c-0.1-1.9-0.2-3.7-0.3-5.5c0-1-0.2-2.5,1.1-2.8
		c1.5-0.3,1.7,1.3,2,2.3c0.8,2.4,1.5,4.8,2.4,7.5c1.3-1.8,1.4-3.6,2.1-5.2c0.6-1.4,1-2.9,1.7-4.3c0.3-0.7,0.8-1.6,1.8-1.6
		c1,0.1,1.3,1,1.5,1.8c0.5,2.3,0.9,4.5,0.6,6.8c-0.2,1.6-0.2,3.2-0.4,4.8c1,0,1.1-0.8,1.5-1.2c0.7,0.5,0.4,1,0.1,1.6
		c-2.1,5.2-4.2,10.3-6.9,15.3c-3.8,7-9.1,10.9-17.4,10.4c-1.2-0.1-2.4-0.5-3.6,0.4c-0.4,0-0.9,0-1.3,0c-0.4-1.1-1.1-1-1.9-0.4
		c-1.3,0.1-2.6-0.8-4.3-0.1c2.6,1.3,1.7,3.3,1.6,5.2c-0.5,5-1.6,9.8-3.4,14.5c-0.3,0.8-0.6,1.7-1.5,2.4c-1.1-2.7-0.3-5.5-1.4-8.1
		c-1.4,6.9-3.1,13.7-5.8,20.2c-0.8,0.1-1,0.7-1.5,1.2c-0.9,1-1.5,2.2-3,2.5c0-1.5,0-3,0-4.5c-0.2-0.1-0.4-0.2-0.5-0.3
		c-1.5,3.2-3.6,6.1-5.5,9c-0.9,0-1.3,0.6-1.8,1.2c-3,3.7-5.1,3-6.9-0.3c-0.3-0.6-0.3-1.8-1.4-1.8c0-2,0-4,0-6
		c-0.1,0-0.3-0.1-0.4-0.1c-0.7,1.7-1.4,3.4-2,5.1c-1,0.4-1.3,1.4-1.9,2.2c-1.4,2.1-2.8,4.2-4.6,6c-2.3,2.4-3.9,1.9-4.8-1.3
		c-0.7-2.4-1.1-4.9-1.3-7.4c0-2,0-3.9,0-6.7c-1.6,4.4-3.8,7.9-5.8,11.4c-1.5,0.5-2.1,1.9-3.1,2.9c-3.6,3.4-5.4,3.2-7.6-1.3
		c-0.2-0.4-0.2-0.9-0.5-1.3c-1-1.6-1-3.6-2.5-5c0-1.5,0-3-0.1-4.5c0.4-0.6,0.7-1.4,0-1.9c-0.3-0.2-0.5,0.5-0.6,1
		c-1.7,4.8-3.8,9.3-6.1,13.8c-2.2,1.6-3.2,4.2-5.1,6.1c-1.5,1.4-2.7,1.4-4.2,0.5c-2.6-1.5-4.9-3.4-7-5.6c-0.7-0.7-1.3-1.6-2.5-1.4
		c-1.6-2-3.1-4.1-4.9-6.5c-0.6,3,1,5.3,1,7.8c-1,5.5-1.8,5.9-7.1,4.3c-4.2-3.9-6.8-9-9.9-13.7c-1.3-2.1-2.5-4.2-3.8-6.3
		c-0.3-0.5-0.4-1.2-1.5-1.1c1,2.7,2,5.4,3,8c-1.4,1-2.9,0.2-4.3,0c-5-6.9-6.9-15-9.1-23c-0.4-1.5,0.2-2.2,1.5-2.5
		c1.9-0.6,3.8-0.5,5.7-0.1c5.6,1.2,11.2,2.6,16.8,3.7c7.5,1.5,15.2,2.2,22.8,2.6c6.6,0.4,13.2,0.3,19.8-0.1
		c13.2-0.8,26.5-1.9,39.1-6.4c2.9-1,5.6-2.4,8.1-4.4c4.8-3.9,5.2-9.4,1-13.8c-4.1-4.4-9.5-6.7-15.1-8.5c-9.4-3.1-19.2-4-29-4.7
		c-8.1-0.6-16.1-0.7-24.1,0.2c-12.5,1.3-24.8,3.6-35.5,10.8c-2.5,1.7-4.9,3.5-6.6,6c-0.7,1.1-1.2,2.3-1.4,3.6c-0.2,1,0.6,2.7-0.2,3
		c-1.2,0.5-2.7,0.1-4.1,0.3c-0.7,0.1-1-0.4-1.1-1.2c-1.2-9.3-1.6-18.6-0.7-28c0.7-6.8,2-13.5,3.8-20.1c0.6-2.1,1.3-4,2.3-5.9
		c0.6-0.3,0.6-0.9,0.5-1.5l0,0c1.4-0.4,1.4-1.7,1.9-2.7c3.4-5.9,6.9-11.9,11.8-16.8c1.1,1,2.5,1.1,3.8,1.5c4.2,1.3,8.5,2.5,12.7,3.7
		c11.8,3.5,23.5,7.1,35.3,10.6c1.7,0.5,2.3,1.3,2.3,3c0.1,6.1,0.9,12.2,2.5,18.1c1,3.7,2.4,7.3,5.6,9.7c0.5,0.4,0.6,0.6,0.1,1
		c-0.8-0.3-1.6-0.5-2.4-0.8c-6.1-2.4-12.5-3.2-18.9-3.2c-6.7,0-13.4,1-19.7,3.5c-1.4,0.1-2.6,0.4-3.6,1.2c0.1,0.2,0.2,0.4,0.3,0.7
		c1.1-0.3,2.2-0.7,3.3-1c7-1.4,14.1-2.3,21.3-2.2c6.5,0,12.9,1.1,19.2,2.4c2.4,1.3,5.1,1.4,7.6,2.2c7.6,2.5,15.3,2,22.8-0.3
		c1.9-0.6,4.2-1,5.2-3.4c0.1,0,0.2-0.1,0.4-0.1C244.4,151.6,244.7,151.3,244.7,150.6z M133,129.8c-0.2,0.2-0.6,0.4-0.7,0.6
		c-1.8,6-3.1,12.1-1.7,18.5c0.7,3.4,2.5,6.1,4.8,8.6c-0.8,0.5-1.6,1-2.4,1.5c5.8-0.3,11.1-2.3,15-6.4c9-9.7,9.8-21.3,6.2-33.3
		c-1.9-6.3-7.3-7.8-12.8-4.1C136.1,118.6,134.1,124,133,129.8z M214.5,196.1c-8.3,1.5-16.7,2.9-25.2,3.1c-8.4,0.2-16.8-0.2-25.2-0.9
		C181.1,204.1,198,204.1,214.5,196.1z M256,173.2c-0.1-0.1-0.3-0.2-0.5-0.3c-0.3,0-0.5,0.2-0.3,0.4c0.1,0.2,0.3,0.3,0.5,0.3
		C255.9,173.7,256.1,173.6,256,173.2z M162.8,154.1c-0.1-0.1-0.2-0.2-0.4-0.2c-0.1,0-0.3,0.1-0.4,0.2c0.1,0.1,0.2,0.2,0.4,0.2
		C162.5,154.3,162.7,154.2,162.8,154.1z"/>
	<path fill="#BAC699" d="M206,242.9c-5.2,6.7-6.5,14.5-6.3,22.8c0.2,4.5,1,8.8,2.2,13.1c0.6,2.2,0.5,2.3-1.8,1.8
		c-1.9-0.4-3.7-0.8-5.6-1.2c-0.1,0-0.8-0.3-0.5,0.4c0.1,0.2,0.3,0.3,0.5,0.4c0.2,0.2,0.3,0.4,0.5,0.5c0,0,0,0,0,0
		c0.2,0.4,0.6,0.5,1,0.5l0,0c0.2,0.2,0.3,0.3,0.5,0.5c0,0,0,0,0,0c0.2,0.7,0.8,0.9,1.3,1.2c5,2.7,10.5,3.5,16,2.9
		c6.1-0.7,12.1-1.4,18.3-1.3c7,0.1,13.3,1.7,17.5,8.1c1.4,1.5,1.3,3.6,1.2,5.3c-0.4,6.8-3.2,12.5-8,17.4c-0.2,0.2-0.4,0.5-0.7,0.6
		c-1,0.6-2.2,1.5-3.1,0.7c-1-0.9,0.2-1.9,0.8-2.7c1.9-2.9,4.6-5.4,5.3-9c0.5-0.1,0.7-0.5,0.8-1c2-6.7-4.1-14.9-11.1-15.2
		c-8.8-0.4-17.2,1.7-25.6,3.4c-7.4,1.5-14.7,2.4-21.8-1.1c-0.1-1.1-0.2-2.3-0.4-3.4c-0.3-1.4-0.5-2.9-2.1-3.5
		c-1.6-0.6-2.4,0.8-3.5,1.6c-2.4-2.7-4.5-5.6-6.4-8.6c-2.2-8.4-2.3-17-2.4-25.6c0-2.6,0-5.2,0-7.3c-0.5,1-0.7,2.6-1,4.3
		c-2,0.9-2.3,3.1-3.4,4.7c-3.3,4.8-6.7,9.5-11.8,12.7c-4.5,2.9-9.4,5.2-14.1,7.7c-5.3,2.8-10.5,5.7-14.9,9.9
		c-1.2,1.2-2.8,2.3-2.8,4.3c-2.4-0.1-4.3-1.4-6.2-2.7c-0.9-0.7-0.6-1.2-0.1-1.9c3.6-4.4,7.7-8.2,12.9-10.9
		c9.6-5,16.5-12.6,20.9-22.4c0.3-0.7,0.8-1.5,0.5-2.7c-1.7,2.5-2.9,5-4.9,7c-0.1,0.2-0.3,0.3-0.4,0.5l0,0c-1-0.2-1.5,0.5-2.2,1
		c-6.6,5.1-13.9,7.7-22.3,5.9c-2.8-0.6-5.4-1.9-8.2-2.3c-1.7-0.3-3.5-1.8-5.2,0c-0.4,0-0.9,0.1-1.3,0.1c-0.7-0.7-1.1-0.5-1.4,0.3
		c-5.5,1.6-8.2,5.7-9.7,10.9c0,0.1,0,0.2,0,0.2c-0.3,0.6-0.1,1.9-1,1.8c-0.9-0.1-0.8-1.3-0.8-2.1c0.6-1.8,1.2-3.6,1.9-5.4
		c4-9.4,13.3-12.9,23-9.9c0.3,0.6,0.7,0.9,1.4,0.9c9.6-0.4,18.7-2.3,26.4-8.7c3.3-2.7,5.4-6.2,7.1-10.1c0.8,0.7,1.6,1.5,2.5,2.1
		c4.7,3.3,7.1,3.1,11.2-0.8c0.9-0.8,1.3-0.4,1.9,0.2c1.3,1.3,2.6,2.6,4.1,3.6c3.6,2.6,6.9,2,9.4-1.7c1.2-1.8,2.4-3.7,3.2-5.8
		c0.6-1.4,0.8-3.1,2.1-4.3c2,2.7,4.1,5.3,7.5,5.9c3.5,0.6,6-1.6,8.5-4.1c0.8,2.4,1.6,4.4,4.1,5.1c3.2,0.9,6.1,0.1,8.6-1.9
		c1.9-1.5,3.6-3.3,5.1-5.2c0.4-0.6,0.9-1,1.3-0.1c1,2.1,3,2.4,4.9,3c0.8,3.6,1.8,7.1,3.8,10.3c2,3.2,4.9,5.4,8.6,6.8
		c-3.2,0.5-6.4,1-10.1,1.6c1.4,0.2,2.2,0.3,3,0.4c0.2,0.7,0.7,0.7,1.2,0.8c8.5,1.6,15.7-1.1,21.9-6.9c5.1-4.8,7.9-11,9.6-17.8
		c1.4-5.4,3.2-10.5,6.3-15.2c4.1-6.1,13.1-6.2,16.5-3.1c2.9,2.6,4,6,4.4,9.8c-1.1-0.5-1.2-1.7-1.5-2.7c-1-3.1-3.1-4.9-6.2-5.4
		c-3.2-0.6-5.6,0.6-7.5,3.2c-3.9,5.4-6.1,11.6-7.7,18c-0.4,1.6-0.8,2.7-2.8,2.1c-1.2-0.3-2.5,0.2-3.1,1.4c-0.7,1.2-0.2,2.4,0.5,3.4
		c0.5,0.7,1,1.5,1.6,2.3c-0.3,0.5-0.6,1.1-0.8,1.6c-3.1,8.1-8.3,14.5-16.5,17.9c-8.7,3.6-17.3,3.4-25.7-1
		c-7.6-3.9-12.1-10.6-15.7-18c-0.3-0.6-0.3-1.6-1.1-1.6C206.6,241.3,206.1,242.1,206,242.9z"/>
	<path fill="#1996BC" d="M207,86.3c-3.5,3.8-3.5,6.5,0.4,10.5c7,7.2,15.5,11.7,25.7,12.2c4,0.2,5.5-1.2,6.3-5.1
		c6.6,6.8,9.5,15.4,11.6,24.4c-1.6,0.1-3.1,0.1-3.4-2c-0.1-0.7-0.8-1.1-1.4-1.5c-11.1-8.3-23.6-11.4-37.3-9.8
		c-2,0.2-4.3-0.2-5.8,1.9c-0.2,0.3-1.3,0-2-0.2c-16.7-4.8-33.4-9.7-50.1-14.5c-0.5-0.1-1.1-0.1-1.3-0.8c1-2,3-3,4.7-4.2
		c10.2-7.2,21.7-11.1,34.1-12.1C194.6,84.8,200.9,84.6,207,86.3z"/>
	<path fill="#BAC699" d="M282.1,117.5c-1.8,2.3-4.1,3-6.9,2.6c-2.9-0.4-5.7-1.6-8.6-2.7c2.8,4.5,10.3,6.5,14.9,3.9
		c1.7-1,2.1-0.3,2.4,1.1c0.4,1.7,0.1,3.3-0.2,5c2.2-2.3,2.8-5,1.7-8c-0.7-1.7-0.5-2.2,1.5-1.8c3.3,0.6,5.7-0.8,6.6-3.9
		c1.1-3.9,0.6-7.8-0.6-11.8c-0.2,2.2-0.4,4.4-0.6,6.6c-0.2,1.8-0.5,3.7-1.5,5.3c-1.4,2.3-3.5,2.4-4.9,0.1c-0.7-1.2-1.2-2.4-1.4-3.8
		c0.8-2,0.5-4.2,0.8-6.3c0.8-4.8,2.4-5.9,7-4.4c0.3,0.1,0.6,0.1,0.9,0.1c0.2,0.2,0.3,0.5,0.5,0.5c0.9,0.1,0.4-0.6,0.4-0.8
		c-0.4-2.4-0.6-4.7-0.4-7.1c0.4-6.5,2.2-12.5,6.4-17.6c2.5,1.4,3,2.4,2.4,5.4c-0.2,1.2-0.5,2.4-0.8,3.6c-1.9,7.5-2.2,15.2-1,22.8
		c0.4,2.9,0.3,5.8,0.1,8.7c-0.2,2.5-1.5,5-0.7,7.6c-1.5,3.9-3,7.7-4.5,11.6c-0.5-1.5-0.9-2.9-1.4-4.4c-1.2-3.4-3.8-3.9-6.5-1.5
		c-1.5,1.4-2.6,3.1-4.1,5c-1.6-3.8-4-5.7-8.1-4.1c-2.4-2-5.1-3.3-8-4.4c-4.9-1.9-6.4-4.6-5.8-10c0.4-0.5,0.8-1.1,1.2-1.6
		c2.5-3.6,4.2-4.2,8.3-2.9c1.7,0.6,3.5,1.4,5.2,1.5c3.4,0.2,4.8,1.9,5.1,5C281.7,117,282,117.2,282.1,117.5z"/>
	<path fill="#1996BC" d="M85.4,157c-1.6-4.3-2.4-8.8-2.9-13.4c-0.4-3.6-1-7.3-0.1-11c0.1-0.6,0.2-1.2,0.5-1.8
		c0.7-1.8,1.9-2.1,3.2-0.5c0.7,0.9,1.3,1.9,1.5,3.1c0.4,1.9,0.9,3.8,1.5,5.7c0-3.3,0.7-6.4,2.3-9.3c0.8-1.3,1.6-2.8,3.4-2.7
		c1.9,0.1,2.3,1.8,2.8,3.2c1.4,3.6,0.9,7.4,0.8,11.2c0.6-1.6,1.1-3.3,1.9-4.8c1.3-2.4,2.3-5.2,5.4-6c1.2,0.9,0.7,2.1,0.4,3.1
		c-1.1,4-2.4,8.1-3.5,12.1c-1.8,6.4-3.3,12.9,2,18.6c-0.8,1.3-2.5-0.3-3.2,1.1c0.5,1,1.5,1.2,2.4,1.5c0.6,0.1,1.2,0.5,1.8,0.1l0,0
		c-0.2,1.4,1,0.9,1.6,1.1c4.9,1.5,9.7,0.6,14.4-0.9c0.6,0.4,0.5,1,0.5,1.6c-4.3,2-8.5,4.7-13.3,5.4c-4,0.6-7.8,0.2-11.2-2.1
		c-3.2-2.2-5.5-5.3-7.7-8.4C88,161.7,87.5,158.9,85.4,157z"/>
	<path fill="#BAC699" d="M227.2,31.7c-3,5.8-3,12.2-2.8,18.5c0.3,7.9,1,15.8,1.4,23.7c0.3,5.7-0.2,11.1-3.8,16.5
		c0.9-5.9,0.8-11.3,0.8-16.7c0-8.3-1.5-16.4-2.6-24.5c-1.1-8.4-1.1-16.8,0.5-25.2c0.1-0.3,0.1-0.6,0.4-0.7c1.1-1.4,2.2-3,3.5-4.3
		c3.2-3.2,6.4-3.2,9.6,0.1c2.8,3,4,6.9,5,10.7c2,7.6,2.3,15.4,1.5,23.2c-0.8,7.7-2.3,15.2-4.5,22.7c-0.5,1.7-1.7,3.4-1.2,5.4
		c-1.4,3.4-2.9,6.8-4.9,9.9c-1.7,0.6-3.4,0.1-5-0.6c1.6-4.1,3.2-8.3,4.7-12.4c4.7-13.1,6.4-26.7,4.8-40.6c-0.4-3.1-1-6.1-2.5-8.8
		c-1.4-2.4-3.9-3.7-5.9-3.1c-1.8,0.6-3.6,3.4-3.7,5.7c0,0.9,0.3,0.9,0.9,0.4C224.7,31.3,225.9,31.1,227.2,31.7z"/>
	<path fill="#BAC699" d="M166.8,72.7c2-7.4,5.8-14.2,8.4-21.4c2.2-6.1,4.6-12.2,4.2-18.9c-0.1-1.1,0-2.1-0.5-3.2
		c-0.2-0.5-1-1-0.2-1.6c0.7-0.5,1.5-0.3,2.1,0.3c0.5,0.6,0.9,1.2,1.4,1.8c0.4,0.6,0.5,1.5,1.2,1.8c1.1-2.6,0.6-5.7-1.1-7
		c-1.6-1.2-4.7-0.8-6.8,1c-2.5,2.2-4.1,5.2-5.5,8.2c-6,12.9-8.4,26.6-7.9,40.7c0.1,2.8,0.2,5.5,0.5,8.3c0.2,2-0.5,3.1-2.4,3.3
		c-0.5-0.2-0.6-0.6-0.7-1.1c-1.1-9.4-1.9-18.9-1-28.4c0.7-8.1,2.2-16.1,5.1-23.7c2.3-6.1,5.3-11.8,10.4-16c2.3-1.9,4.8-3.6,8-2.6
		c3.2,1,4,3.9,4.8,6.8c0.5,1.8,0,3.7,0.8,5.4c-1.2,8.8-4.3,16.9-8.3,24.7c-4.4,8.5-8.4,17.2-11.1,26.5c-1.1-0.2-0.8-1.1-0.9-1.8
		C167,74.9,167.7,73.7,166.8,72.7z"/>
	<path fill="#FDFDFD" d="M90.3,214.8c-1-6.1,1.4-10.8,6.2-14.4c4.8-3.5,10.2-3.2,15.6-1.7c0.3-0.8-0.2-1.1-0.5-1.2
		c-2.7-0.8-1.6-2.2-0.7-3.7c5.7-9,14.5-12.5,24.8-9.8c1.7,0.4,3.4,0.9,5.1,1.4c3.5,1,6.7,0.6,9.6-1.6c1.9-1.4,3.8-2.9,5.7-4.3
		c0.2,0.4,0.3,0.7,0.5,1.1c-1.7,1.5-3.3,3-5,4.4c-3.6,2.8-7.7,3.7-12.1,2.3c-2.1-0.6-4.3-1.1-6.5-1.2c-2.4-0.1-4.7,0.7-6.7,1.9
		c-2-0.5-2.9,1.1-3.7,2.2c-2,2.8-3.7,5.8-5.1,9c-0.9,2-1,3.7,0.5,5.4c1.7,2.5,2.5,5.3,2.3,8.3c-0.9,0-0.8,0.7-0.9,1.3
		c-0.8,3.1-2.3,5.8-4.8,7.9c-4.8,4.2-13.8,5.7-19.3-0.2C93.2,219.7,92.2,217,90.3,214.8z M114.3,206.4c-1-0.7-1.9-1.4-2.8-2
		c-3.3-2.3-3.4-2.4-5.6,1c-1.2,2-2.1,2.1-3.9,0.6c-3.1-2.7-3.2-2.6-5.6,0.6c-2.2,2.8-2.2,2.8,0.5,4.9c3,2.4,3,2.4,0.8,5.3
		c-2.1,2.9-2.1,2.9,0.9,5c3.2,2.3,3.2,2.3,5.5-0.8c1.7-2.4,1.7-2.4,4.1-0.6c3,2.4,3,2.4,5.3-0.6c2.4-3,2.4-3-0.6-5.4
		c-2.7-2.1-2.7-2.1-0.7-5C112.8,208.4,113.5,207.5,114.3,206.4z"/>
	<path fill="#BAC699" d="M207.1,310.7c-1.7,5.5-3.5,11-3.7,16.8c-0.2,6.5,2,11.9,7.7,15.6c0.8,0.5,1.5,1,2.3,1.5
		c0.8,0.6,1.8,1.2,1.5,2.4c-0.3,1.1-1.4,1.4-2.3,1.6c-5.5,1.3-12.6-2-16-7.4c-3.1-4.9-4.3-10.5-5.1-16.1c-0.4-2.4-0.5-4.9-0.4-7.4
		c1.2-0.6,0.9-1.8,1.2-2.8c1.5-4.5,4.1-8,8.8-9.5c2.7-0.9,5.1,0.7,5.6,3.5C206.6,309.5,206.3,310.3,207.1,310.7z"/>
	<path fill="#FDFDFD" d="M235.1,138.5c0.5,2.4,0.9,4.5,1.3,6.5c0.2,1.3,0,2.3-1.5,2.5c-1.4,0.2-2.8,0.4-3.3-1.5
		c-0.3-1.4-0.6-2.7-1-4.7c-0.9,1.4-0.6,2.4-0.6,3.3c0,2.7-0.6,3.4-2.8,3.5c-2.3,0.1-2.9-0.6-3.2-3.2c-0.1-1.4-0.3-2.9-0.8-4.3
		c-0.3,1.6-0.6,3.2-0.8,4.9c-0.2,1.6-1,2.4-2.6,2.2c-1.6-0.1-2.7-0.9-2.7-2.8c0-2.5,0.4-5,0.8-7.5c0.1-0.4,0.1-0.9,0.1-1.5
		c-1.9,0.6-3.7,1.3-5.7,1.2c-2.8-0.2-3.9-1.8-2.9-4.3c0.3-0.8,0.7-1.5,1.2-2.2c6.5-9.5,21.4-10.6,29.4-2.3c1.7,1.7,2.5,3.9,2.7,6.2
		c0.3,3.6-1.4,5.2-4.9,4.7C237,139.1,236.2,138.8,235.1,138.5z M221.8,127.2c-2.5-0.1-6.6,2.6-7.3,4.6c-0.5,1.4,0.1,2.1,1.5,2.1
		c2.2,0.1,6.2-2.5,6.9-4.6C223.4,127.9,222.8,127.3,221.8,127.2z M232.4,127.8c-1.5-0.1-2.2,0.9-1.4,2.4c1.2,2.4,3.3,4,5.9,4.7
		c1.6,0.4,2.3-0.5,1.9-2.1C238.2,130.7,234.6,127.9,232.4,127.8z"/>
	<path fill="#ACB591" d="M229,233.3c-1.9-0.6-3.9-0.9-4.9-3c-0.4-1-0.9-0.5-1.3,0.1c-1.5,1.9-3.2,3.7-5.1,5.2
		c-2.5,2-5.4,2.8-8.6,1.9c-2.5-0.7-3.3-2.7-4.1-5.1c-2.4,2.4-4.9,4.7-8.5,4.1c-3.4-0.6-5.5-3.1-7.5-5.9c-1.4,1.2-1.6,2.9-2.1,4.3
		c-0.8,2.1-2,4-3.2,5.8c-2.5,3.7-5.8,4.3-9.4,1.7c-1.5-1.1-2.9-2.3-4.1-3.6c-0.6-0.6-1-1-1.9-0.2c-4.1,3.9-6.5,4-11.2,0.8
		c-0.9-0.6-1.6-1.4-2.5-2.1c0-0.2,0-0.3,0.1-0.5c0.8-3.1,0.8-3.1,3.7-1.7c4.6,2.1,7,0.6,7.4-4.5c0-0.5,0.1-1.1,0.1-1.8
		c1.7,1.1,2.5,2.7,3.6,4c1.3,1.5,2.8,2.9,4.4,4c3,2.1,5.5,1.7,7.8-1.2c3-3.8,4.7-8.2,6.4-12.7c0.2-0.5,0.4-1.1,0.7-1.9
		c0.9,1.8,1.7,3.4,2.4,5c0.6,1.3,1.4,2.4,2.3,3.4c3.1,3.2,6.1,3.2,9-0.2c1.7-1.9,3-4,4.6-6.5c0.7,2.5,0.7,4.6,1.5,6.6
		c1.8,4.3,5.2,5.1,8.7,2c2.8-2.5,4.4-5.9,5.8-9.3c0.2-0.5,0.4-1,0.7-1.8c1.3,3,2.7,5.5,4.5,7.9C229.2,229,228.8,231.4,229,233.3z"/>
	<path fill="#BAC699" d="M253.1,269.9c2.8-0.5,5.6-0.7,8.4-1.5c8.7-2.6,13.2-10,11.2-18.9c-0.8-3.7-1.9-7.3-4.9-10
		c-0.5-0.4-0.9-0.9-0.4-1.6c0.4-0.6,1.1-0.4,1.7-0.2c2.2,0.8,4.1,2.1,5.1,4.3c2.9,6.3,4.2,12.8,2.6,19.7c-1.4,1.1-1.8,2.9-2.8,4.3
		c-3.9,5.6-8.6,10.2-15.5,11.7c-5.3,1.1-10.7,1.5-16.2,0.8c-0.9-0.1-1.8-0.4-2.6,0.3c-4.3-0.7-8.7-0.7-13-0.1
		c0.4-1.2,1.3-1.9,2.2-2.5c2.7-1.8,5.7-2.6,8.9-2.8c3.7-0.3,7.4-0.4,10.9-1.5C250.2,271.4,252.1,271.4,253.1,269.9z"/>
	<path fill="#BAC699" d="M81,123c-4.2-4.3-5.9-9.3-4-15.1c2.4-7.5,2.7-15,1.5-22.7c-0.5-3.5-0.7-7.2,0.7-10.6c0.5-0.2,0.5-0.6,0.4-1
		l0,0c0.3-0.1,0.5-0.3,0.8-0.4c1.1-0.7,2.2-1.9,3.7-0.8c1.5,1,1.3,2.5,0.9,3.9c-0.8,3-0.7,6.2-1.1,9.3c-0.1,0.8-0.6,2.1,0.9,2.4
		c-4.4,4.3-5.4,9.6-4.7,15.4c0.5,4.6,3.3,6.3,7.9,4.9c0.7-0.2,1-0.1,1.2,0.5c0.9,2.7,3.2,3.4,5.6,3.6c1.3,0.1,1.8,0.4,1.1,1.8
		c-0.8,1.7-0.7,3.6-0.5,5.4c0,1-0.5,1.4-1.5,1.6c-2.1,0.3-3.7,1.5-4.8,3.3c-0.8,1.4-1.5,1.2-2.5,0.3C85,123.4,83.2,122.7,81,123z"/>
	<path fill="#BAC699" d="M164.5,292.7c-1.4-0.2-1.9-1.7-3.1-2.2c-0.3,0.4-0.1,0.8,0.1,1.1c1.9,4.2,5.3,5.8,9.8,5.8
		c4.4,0,7.8-1.4,9.5-5.7c0.3-0.7,0.7-1.4,1-2.1c0.9,2,0,3.8-0.8,5.6c-2,4.7-5.6,7.7-10.6,8.4c-5.5,0.8-10.3-0.5-13.7-5.4
		c-0.9-1.3-1.4-2.9-2.8-3.8c-1.3-4.5-1.8-9.1-0.5-13.8c0.9-0.1,1-0.9,1.3-1.4c3.1-4.7,6.8-8.1,13-6.9c-3.4,6.2-4.4,12.7-3.1,19.7
		C164.7,292.3,164.6,292.5,164.5,292.7L164.5,292.7z"/>
	<path fill="#BAC699" d="M111.3,107c-1.6,0.5-3.2,1-4.8,1.4c-3.1,0.7-4.8-0.4-6-3.4c1.6-1.6,3.5-2.6,5.7-3.2
		c2.1-0.6,4.2-1.3,6.4-1.9c2.9-0.9,4.1-0.2,4.9,2.8c0.8,3.4,1,6.9,1,10.5c0,0.9-0.4,1.9,0.5,2.6c-4.2,4-9.5,5.6-15.3,6.2
		c0.3,1,1.2,1.2,1.8,1.6c-0.5,1.4-1.9,1.8-2.9,2.7c-0.8,0.7-1.3,0.5-1.7-0.4c-0.9-1.9-2.1-3.5-4.1-4.3c-0.8-0.3-1-0.8-0.9-1.6
		c1-3.1,2.1-6.1,4.9-8.1c0.8-0.5,1.5-1,2.5-0.9c3.3,0.1,6.1-1.1,8.7-3c1.1-0.3,2-0.9,2.9-2.2C113.3,105.9,112.2,106.3,111.3,107z"/>
	<path fill="#FFFFFF" d="M203.4,172.4c-0.8,4.9-1.2,5.4-6,6c-9.7,1.3-19.3,0.3-28.9-1.5c-0.8-0.1-1.5-0.5-1.9-1.2
		c-1.4-2.5-2.6-5.1-3-8c0.5-0.4,1-0.9,1.5-1.3c3-2.3,6.2-3.6,10-2.9c-2.8,4.1-1.7,8.7,1.6,11.2c3.7,2.8,9.2,2.8,12.8-0.2
		c3.3-2.8,3.7-6.7,1.2-10.9c0.4-0.5,0.9-0.5,1.4-0.4c2.7,0.9,5.4,1.6,7.8,3.2C202.1,167.8,203.4,169.7,203.4,172.4z"/>
	<path fill="#BAC699" d="M104,94.4c1.1-0.4,0.5-1.3,0.5-2c0-5.7,0-11.3,1.1-16.9c0.8-0.2,0.9-0.9,1.2-1.6c1.3-2.5,2.5-5.1,4.7-7
		c1-0.9,2.2-1.5,3.5-0.7c1.4,0.8,1.6,2.1,1.3,3.6c-0.5,2.3-1.5,4.3-2.4,6.4c-2.9,6.2-4.7,12.7-4.8,19.6c-2,0.9-4.1,1.2-6.1,1.7
		c-4.6,1.2-5.8,3-5.1,7.7c0.2,1.1,1.3,2.4-0.4,3.5c-1.6,1-3.1,1.5-4.9,0.5c-0.4-5.4,0.2-10.6,3.2-15.2c1.6-2.6,4-3.1,6.4-1.3
		c0.5,0.3,0.9,0.9,1.6,0.7l-0.1,0.1C103.6,93.8,103.7,94.1,104,94.4z"/>
	<path fill="#ACB591" d="M206,242.9c0.1-0.8,0.6-1.6,1.3-1.6c0.8,0,0.8,1,1.1,1.6c3.6,7.5,8.2,14.1,15.7,18c8.4,4.3,17,4.6,25.7,1
		c8.2-3.4,13.3-9.8,16.5-17.9c0.2-0.6,0.5-1.1,0.8-1.6c0.8,0.5,1.2,1.1,0.9,2.1c-2.2,8.1-5.7,15.4-13.4,19.6
		c-9.8,5.3-20.1,5.2-30.2,0.9c-7.9-3.4-13.8-9.1-17-17.2C206.8,246.1,206.5,244.5,206,242.9z"/>
	<path fill="#168099" d="M208.3,152.5c0.5-0.4,0.4-0.7-0.1-1c-3.2-2.5-4.7-6-5.6-9.7c-1.6-5.9-2.4-12-2.5-18.1c0-1.8-0.6-2.5-2.3-3
		c-11.8-3.5-23.5-7-35.3-10.6c-4.2-1.3-8.5-2.5-12.7-3.7c-1.3-0.4-2.7-0.5-3.8-1.5c0.2-0.3,0.5-0.5,0.7-0.8c3.5,0.2,6.7,1.6,10,2.6
		c13.3,3.7,26.5,7.6,39.7,11.5c1.6,0.5,3.2,1,4.9,1.3c1.8,0.4,2.2,1.4,2.1,3.1c-0.7,7.2,0.2,14.2,2.8,21c2.2,5.9,6.9,9.1,12.9,10.2
		c6.4,1.1,12.9,1.3,19.4-0.3c1.8-0.4,3.5-1.2,5.2-1.8c-0.9,2.3-3.3,2.8-5.2,3.4c-7.5,2.3-15.3,2.8-22.8,0.3
		c-2.5-0.8-5.2-0.9-7.6-2.2C208,152.9,208.1,152.7,208.3,152.5z"/>
	<path fill="#ACB591" d="M187.2,290.9c7.1,3.6,14.4,2.7,21.8,1.1c8.5-1.7,16.8-3.9,25.6-3.4c7.1,0.4,13.1,8.5,11.1,15.2
		c-0.1,0.5-0.3,0.9-0.8,1c-0.1-1.4-0.1-2.8-0.4-4.1c-1.3-5.5-5.2-7.7-12.1-8.3c-4.9-0.4-9.4,1.3-14,2.5c-7.5,1.9-14.9,3.8-22.7,3.4
		c-2.4-0.1-4.7-0.6-7-1.4c-1.5-0.5-2.4-1.2-1.8-3C187.2,292.9,187.1,291.9,187.2,290.9z"/>
	<path fill="#DBD4E6" d="M187.5,26.5c-0.8-1.7-0.3-3.6-0.8-5.4c-0.8-2.9-1.6-5.8-4.8-6.8c-3.2-1-5.7,0.7-8,2.6
		c-5.1,4.3-8.1,10-10.4,16c-3,7.6-4.4,15.5-5.1,23.7c-0.9,9.5-0.1,19,1,28.4c0.1,0.5,0.2,0.9,0.7,1.1c-0.5,0.6-1.1,1-2,1.4
		c-0.7-1.6-0.7-3.3-0.9-4.9c-1.5-10.4-2.1-20.9-1-31.4c1.3-11.9,4.1-23.3,12-32.8c2.2-2.7,4.7-5.3,7.9-7c5.2-2.8,10.6-0.1,11.6,5.7
		C188.2,20.3,188.1,23.4,187.5,26.5z"/>
	<path fill="#ACB591" d="M124.4,287.7c0.1-2,1.7-3.1,2.8-4.3c4.3-4.2,9.6-7.1,14.9-9.9c4.8-2.5,9.6-4.8,14.1-7.7
		c5-3.2,8.4-7.9,11.8-12.7c1.1-1.6,1.3-3.8,3.4-4.7c0.1,4.9-0.9,9.2-4.2,13.2c-5.9,7.2-13.3,11.8-21.7,15.3
		c-6.2,2.6-12.1,5.6-17,10.3C127.2,288.5,125.8,288.5,124.4,287.7z"/>
	<path fill="#BAC699" d="M113.2,291c-2.1-2.8-2.4-6-2.3-9.4c0-0.6,0.1-1.4,0.7-1.5c0.8-0.2,0.9,0.7,1.1,1.2
		c1.9,4.6,5.4,7.3,10.1,8.7c5.6,1.7,10.3,0,14.8-3.9c-1.1-0.4-1.8,0.4-2.6,0.4c-0.1-0.2-0.3-0.3-0.4-0.5c2.4-2.4,5.4-3.9,8.6-5.3
		c2.1,0.7,3.6,1.9,3.2,4.3c-0.6,3.2-2,6.1-5.1,7.5c-9,3.9-18,4.8-26.6-1.2C114.3,290.9,113.8,290.8,113.2,291z M137.9,285.5
		c0,0-0.1,0.1-0.1,0.1c0.1,0.2,0.2,0.2,0.3,0c0,0,0-0.1-0.1-0.1C138,285.5,137.9,285.5,137.9,285.5z"/>
	<path fill="#DBD4E6" d="M235,81c-0.5-2,0.6-3.7,1.1-5.4c2.2-7.4,3.8-14.9,4.5-22.7c0.8-7.8,0.5-15.6-1.5-23.2
		c-1-3.9-2.2-7.7-5-10.7c-3.1-3.3-6.4-3.4-9.6-0.1c-1.3,1.3-2.3,2.8-3.5,4.3c0.6-3.5,1.6-6.9,4.6-9.2c3.6-2.7,7.3-2.5,10.3,0.9
		c4,4.5,6.2,9.8,7.4,15.6c2.5,12.3,0.6,24.3-3,36.1C238.9,71.5,237.1,76.3,235,81z"/>
	<path fill="#DBD4E6" d="M207,86.3c-6.1-1.7-12.3-1.6-18.5-1.1c-12.4,1-23.9,4.9-34.1,12.1c-1.7,1.2-3.7,2.1-4.7,4.2
		c-0.7,0.1-1.5,0.4-1.9-0.3c-0.4-0.8,0.6-1.2,1-1.6c20-18.2,42.9-22.7,68.5-14.4c0.4,0.1,0.7,0.3,1.1,0.4c0.7,0.3,0.5,0.9,0.5,1.4
		c-0.1,1-0.8,0.5-1.2,0.3C214.2,86.2,210.6,86.2,207,86.3z"/>
	<path fill="#BAC699" d="M222.5,275.2c-0.1,0.7-0.3,1.5-0.4,2.2c-0.3,1.6-1.2,2.4-3,2.6c-3.6,0.4-7.1,0.7-10.7,1
		c-2.3,0.2-3.4-0.7-3.7-2.9c-0.1-0.8-0.3-1.6-0.5-2.5c0.7-0.5,0.4-1.2,0.5-1.9c0.9-5.9,4.2-8.4,9.7-6.9c2.5,0.7,4.2,2.3,5.7,4.3
		C221,272.5,221.2,274.2,222.5,275.2z"/>
	<path fill="#ACB591" d="M222.5,275.2c-1.3-1-1.5-2.7-2.5-4c-1.5-2-3.3-3.7-5.7-4.3c-5.4-1.5-8.8,1-9.7,6.9
		c-0.1,0.6,0.2,1.4-0.5,1.9c-2.1-6.5-2.2-13.1-1.2-19.7c0.3-2,0.8-3.9,1.3-6.3c2.1,3.3,4,6.2,6.5,8.8c3.2,3.4,6.8,6.2,11,8.3
		c1,0.5,1.5,1.1,1.5,2.3C223,271.1,223.3,273.2,222.5,275.2z"/>
	<path fill="#BAC699" d="M117.8,322.8c0.7,2,1.8,3.7,3,5.4c0.4,0.6,1.2,1.3,0.6,2.1c-0.7,0.9-1.6,0.1-2.3-0.3
		c-2.4-1.2-4.2-3.1-5.6-5.3c-6.2-9.6-6-19.8-2-30.5c1.3,1.9,3.2,2.8,4.6,4.1c0,0.9-0.2,1.8-0.4,2.7c-1.4,5.8-1.7,11.7-0.1,17.6
		C116.1,320,116.2,321.8,117.8,322.8z"/>
	<path fill="#BAC699" d="M177.7,32.7c0,0.3,0.1,0.6,0.1,0.8c-0.4,0.5-0.4,0.9,0,1.4c0,0.4-0.1,0.9-0.1,1.3c0,0.2-0.1,0.4-0.1,0.6
		c-0.9,6.7-3.2,13.1-6,19.2c-2.4,5.3-5.1,10.5-6.9,16.1c-0.1-8,0.4-15.8,2.7-23.4c0.8-0.5,1-1.3,1.3-2.1c1.5-3.9,3.2-7.8,5.6-11.2
		C175,34.1,175.7,32.5,177.7,32.7z"/>
	<path fill="#BAC699" d="M232.8,51.5c0,0.3,0,0.6-0.1,0.9c-0.3,0-0.6,0.1-0.6,0.4c0,0.3,0.3,0.4,0.6,0.5c-0.4,7.8-2.2,15.3-4.9,22.7
		c0.1-10.4-2.8-20.5-2-30.9c0.3-4,0.4-8,2.6-11.5c2.6,4.9,2.9,10.3,3.4,15.6C232,50.1,231.5,51.2,232.8,51.5z"/>
	<path fill="#DBD4E6" d="M294.1,220c-0.3-3.8-1.5-7.2-4.4-9.8c-3.4-3.1-12.4-3-16.5,3.1c-3.1,4.7-4.9,9.8-6.3,15.2
		c-1.7,6.7-4.5,12.9-9.6,17.8c-6.1,5.8-13.4,8.5-21.9,6.9c-0.6-0.1-1.1-0.1-1.2-0.8c3.5,0,7-0.1,10.5-0.9c8.8-2.2,14-8.3,17.6-16.2
		c2-4.4,3.1-9.1,4.7-13.7c1.4-4,3.1-7.9,5.9-11.1c3.1-3.6,10-5.2,14.9-3.4c4.1,1.5,7.2,6.3,7.3,11.3C295,219.4,295,219.4,294.1,220z
		"/>
	<path fill="#ACB591" d="M113.2,291c0.6-0.1,1,0,1.5,0.3c8.6,6,17.6,5.1,26.6,1.2c3.1-1.3,4.5-4.3,5.1-7.5c0.4-2.4-1.1-3.6-3.2-4.3
		c1.8-1.4,4-1.9,5.9-3c1.2-0.7,1.5,0.1,1.4,1.1c-0.4,2.6-0.2,5.2-0.2,7.8c0,1-0.4,1.8-1,2.5c-3.3,4.5-7.7,7.3-13.2,8.1
		c-5.7,0.8-11.5,1-17-1.3C116.7,295,114.4,293.6,113.2,291z"/>
	<g>
		<path fill="#0B092B" d="M305.2,69c-2.4-1-4.9,0-7.5,3.2c-2.7,3.3-4.4,7.2-5.5,11.3c-0.8,3-0.9,6-0.9,9.1c-2.2-0.6-4.1-0.3-5.9,0.3
			c-2.7,0.9-4.6-0.6-4.6-3.3c0-2.6,0.5-5,1.1-7.5c0.6-2.6,0.9-5.1,0.2-7.8c-0.8-2.9-2.8-4.1-5.7-3.6c-1.8,0.3-3.2,1.3-4.4,2.7
			c-1.9,2.3-3,5-3.7,7.8c-1.6,6.7,0,12.9,3.1,18.9c0.6,1.2,1.4,2.3,1.6,3.8c0.3,2.2-0.1,2.4-2.1,1.6c-4.9-2-10,0.1-11.9,4.7
			c-2.5,6.1-0.3,13.1,5.3,16.5c1.2,0.8,2.6,1.3,3.9,2c3.1,1.5,5.4,3.8,7.1,6.7c0.6,1,1.1,2.1-0.9,2.4c-1.7,0.2-2.3,1.6-2.4,3.2
			c-0.2,2.7,0.4,5.4,1.3,7.9c1.6,4.7,1.6,9.5,1,14.4c-0.1,1.2-0.6,1.9-1.9,2.2c-2.7,0.6-5.3,0.7-8,0.7c-1.1,0-1.5-0.4-1.4-1.5
			c0.1-1.9,0.3-3.8,0.3-5.8c-0.1-10.3-1.7-20.4-3.7-30.4c-3.3-15.7-11.3-28.6-23.7-38.7c-1-0.8-0.7-1.4-0.3-2.3
			c2.6-5.3,5-10.7,6.9-16.3c4.9-14.1,7.7-28.5,3.8-43.4c-1.5-5.8-3.2-11.6-7.5-16.1c-3.7-3.9-8.8-4.6-13.4-1.7
			c-3.5,2.2-5.5,5.5-6.8,9.3c-3,9-2.8,18.2-1.6,27.4c1.4,10.6,2.8,21.2,2.5,31.9c0,1.6,0,2.3-2,1.6c-11.5-4.1-23.3-4.5-35.2-2.1
			c-3.8,0.7-7.5,2-11.5,3.2c0.3-1.1,0.4-1.8,0.7-2.5c2.6-8.7,5.9-17.1,10.1-25.2c3-5.9,5.9-12,7.8-18.4c1.8-6.2,3-12.4,1.6-18.8
			c-2-9.5-10.9-12.8-18.6-7c-1.3,1-2.6,2.1-3.8,3.4c-8.3,9.4-13.3,20.3-15,32.8c-2,14.2-0.9,28.4,1.6,42.4c0.2,1.3,0,1.9-1,2.7
			c-4.8,3.5-9.1,7.5-12.9,12.1c-11.5,14-18.3,29.9-19.1,48.1c-0.1,2.9-0.4,5.8-1.3,8.6c-1.3,4.1-5.7,5.9-9.4,3.7
			c-3-1.6-4.2-4.3-4.4-7.6c-0.2-4.3,1-8.3,2.5-12.3c1.5-4,2.7-8,2.6-12.3c0-1.4-0.3-2.8-1.3-3.8c-1.8-1.9-1.4-3.6,1.1-4.3
			c2.7-0.8,5.5-1.6,7.9-3.1c1.5-0.9,3.2-2,3.5-3.8c1-5.9,1.5-11.9-0.8-17.7c-1.2-2.9-3.5-4.4-6.7-4.3c-0.6,0-1.2,0.4-1.8-0.2
			c2.1-7.6,3.6-15.5,7.9-22.4c1.9-3.1,1.3-7.7-0.9-10.2c-2.5-2.8-5.6-3.1-8.9-2c-3,0.9-4.8,3.3-6.1,5.9c-3.2,6.1-4,12.7-4,19.4
			c0,1.5,0.2,2.8-2,2c-0.7-0.2-1.8-0.1-2.4,0.3c-2.2,1.4-4.2,2.6-6.4,0.1c-0.1-0.1-0.4-0.2-0.7-0.2c-1.9,0.2-1.8-0.9-1.7-2.3
			c0.3-4.2,1.4-8.1,2.3-12.2c0.9-4.3-2.6-7.5-6.9-6.5c-3.5,0.8-5.7,3.1-7.1,6.3c-2.4,5.3-2.7,11-1.6,16.5c1.2,5.5,0.7,10.5-1.1,15.7
			c-2,5.9-1.8,11.9,1.2,17.6c1,1.9,3.1,3.2,3.6,5c0.5,1.8-1.1,3.8-1.1,5.9c-0.2,14,3.9,26.8,10.5,38.9c3.9,7.2,10.7,10.2,18.9,9.3
			c4.1-0.4,7.9-1.7,11.6-3.6c4.3-2.1,4.2-2.1,4.7,2.8c0.1,1,0,1.5-1.1,1.8c-6.1,1.8-10.5,6-13.6,11.4c-0.9,1.6-1.9,2.1-3.7,2.1
			c-7.4,0-14,4.9-16.3,12c-2.3,7.2,0.3,15,6.4,19.5c6.1,4.4,14.4,4.4,20.5,0c6-4.3,8.9-12.4,6.3-19.2c-1.4-3.5-0.8-6.3,0.6-9.3
			c0.8-1.6,1.6-3.2,2.4-4.7c0.3-0.5,0.4-1.2,1.2-1.1c1,3.3,1.9,6.5,3.1,9.7c2.6,7.1,5.3,14.1,10,20.1c1.2,1.5,2.4,3.2,4.7,2.8
			c2-0.4,1.7-2.4,2.3-4.1c1.8,2.6,3.5,5,5.2,7.4c0.3,0.4,0.2,0.9,0.1,1.3c-2.1,10.6-7.5,18.3-18.1,21.8c-1.6,0.5-2.9,0.4-4.4-0.2
			c-8-3.3-16.1-4.3-24.4-0.7c-9.4,4.1-14.4,13.7-11.9,22.6c0.3,1.1,0.7,2.3,2,2.6c1.4,0.3,2.3-0.5,3.2-1.5c1.2-1.4,1.5-3.2,2.2-4.8
			c2.6-6.4,8.7-8.6,14.4-4.9c4.6,3,9.4,5,15,4.8c0.3-0.3,0.6-0.3,0.9-0.1c-0.2,0.1-0.5,0.2-0.7,0.2c-5,3.4-9.7,7.1-13.7,11.8
			c-1.2-1.5-1.2-3.2-1.8-4.6c-0.8-2.1-2.6-2.4-4-0.7c-0.8,0.9-1,2-1.3,3.2c-0.7,3.2-0.2,6.4,0.7,9.6c0.3,1.1,0.2,1.9-0.3,2.8
			c-1.9,4-3.2,8.2-3.3,12.6c-0.2,8.9,1.4,17.3,7.4,24.3c2.3,2.7,5.3,4.4,8.9,4.7c1.3,0.1,2.8,0.2,3.5-1.1c0.7-1.3-0.4-2.3-1.1-3.3
			c-2.1-2.7-4.2-5.5-4.9-9c-1.1-5.6,0.2-11,2.3-16.2c1.7-4.2,0.6-3.4,5-3c8.9,0.8,17-0.6,23.4-7.5c0.1-0.1,0.4,0,0.6-0.1
			c0.4,1.6,0.7,3.2,1.2,4.7c2.2,6.6,6.6,10.9,13.6,11.8c7.4,0.9,14-1.1,18.2-7.7c1.4-2.1,2.4-2.2,4.5-1.6c1.3,0.4,1.6,0.7,1.2,2
			c-2.3,7.9-2.6,15.9-1.1,23.9c1.2,6.4,2.6,12.7,6.8,17.9c4.6,5.8,10.9,7.7,18.1,6.6c2.5-0.4,4.3-2.3,4.6-4.3c0.3-2.5-1.8-3-3.3-3.8
			c-6.6-3.6-9.2-8.6-8.5-16.4c0.7-7.3,3-14.1,6.2-20.6c4.6-9.1,1.8-6.9,12.1-9.6c3.7-0.9,7.4-1.2,11.2-0.2c4.6,1.2,9.1,6.9,4.4,12.6
			c-1.1,1.3-2.2,2.6-3.2,4c-0.9,1.2-1.7,2.4-1.9,3.9c-0.4,2.5,0.6,3.7,3.1,3.7c2.3,0,4.3-0.9,6.1-2.3c10.8-8.2,12.8-23,4.2-33.8
			c1.8,0,3.5,0,5.1,0c11-0.1,19.3-4.6,23.6-15.1c4.6-11.2,4.4-22-4.2-31.5c-0.4-0.5-0.6-0.8-0.4-1.4c1.9-6.4,3.8-12.8,7.3-18.6
			c2.9-4.8,7.6-4.7,10.6,0.1c0.8,1.3,1.2,2.8,1.8,4.2c0.4,1,0.9,2,2.3,1.9c1.3-0.1,1.8-1.1,2.2-2.1c0.5-1.3,0.4-2.7,0.3-4.1
			c-1.1-10.9-10.4-16.6-20.7-12.7c-5.1,2-7.8,6.1-9.8,10.8c-2.5,6-4.6,12.2-7,18.3c-1.5,3.8-3.3,7.4-6.4,10.2
			c-6.1,5.5-13,4.2-16.6-3.1c-2.2-4.4-2.8-9-2.9-13.9c0-0.7,0.2-1.2,0.7-1.6c2.1-1.9,3.4-4.3,4.2-7c2.8,3.8,4.9,3.6,7.2-0.4
			c0.5-0.9,1-1.7,1.4-2.7c1.6-3.5,2.8-7.1,4-10.8c0.5-1.6,0.6-3.5,3.1-3.4c0.9,0,1.5-1,2-1.8c0.9-1.3,1.5-2.8,2-4.4
			c1.5-5.1,2.6-10.3,3.4-15.5c0.2-1.3,0.4-1.9,2.1-1.4c11.2,3,20.4-0.9,26.1-11.1c5.2-9.2,8.5-19.2,10.7-29.5c0.3-1.4,1-3.4,0.1-4.2
			c-1.6-1.6-0.5-2.7-0.1-4c0.8-2.3,1.5-4.7,2.7-6.9c3.1-5.6,3.3-11.6,2.7-17.7c-0.6-5.9-0.9-11.8,0.3-17.7c0.7-3.4,2.3-6.7,2.6-10.2
			C309.1,73.2,307.6,70,305.2,69z M93.8,92.7c1.3-2.3,3.4-3.6,6.1-3.2c2.2,0.3,3.5,1.7,3.8,3.9l-0.1,0.1c0.6,0.1,0.3,0.6,0.4,1
			c1.1-0.4,0.5-1.3,0.5-2c0-5.7,0-11.3,1.1-16.9c0.5-3.8,2.3-7,4.3-10.1c1.8-2.8,4.1-3.4,6.9-2c2.4,1.1,3.4,3.7,2.3,6.7
			c-0.6,1.7-1.5,3.4-2.3,5c-2.8,5.8-4.8,11.9-6,18.3c-0.2,1,0,2.5-1.8,2.5c-2,0.9-4.1,1.2-6.1,1.7c-4.6,1.2-5.8,3-5.1,7.7
			c0.2,1.1,1.3,2.4-0.4,3.5c-1.6,1-3.1,1.5-4.9,0.5c-1.5-0.7-1.8-2-1.9-3.4C90.4,101.1,91.6,96.7,93.8,92.7z M89.6,88.9
			c2.2,0.3,2.7,1.4,1.7,3.4c-1.5,3.4-2.4,7-2.6,10.8c-0.1,1.8-1.5,2.4-2.8,2.9c-1.4,0.5-2.5,0.1-3.1-1.4c-2.1-4.5-0.5-11.6,3.4-14.7
			C87.2,89,88.4,88.7,89.6,88.9z M76.9,107.9c2.4-7.5,2.7-15,1.5-22.7c-0.5-3.5-0.7-7.2,0.7-10.6c0-0.4-0.1-0.8,0.4-1l0,0
			c0.2-2,1.4-3.4,2.9-4.4c1.2-0.8,2.6-1,3.9-0.2c1.2,0.8,1.8,2,1.5,3.3c-1.1,4.7-1.9,9.4-1.8,14.3c0,0.9-0.7,1.1-1.3,1.4
			c-4.4,4.3-5.4,9.6-4.7,15.4c0.5,4.6,3.3,6.3,7.9,4.9c0.7-0.2,1-0.1,1.2,0.5c0.9,2.7,3.2,3.4,5.6,3.6c1.3,0.1,1.8,0.4,1.1,1.8
			c-0.8,1.7-0.7,3.6-0.5,5.4c0.1,0,0.3,0.1,0.4,0.1c1-3.1,2.1-6.1,4.9-8.1c0.8-0.5,1.5-1,2.5-0.9c3.3,0.1,6.1-1.1,8.7-3
			c-0.2-0.3-0.5-0.6-0.7-0.8c-1.6,0.5-3.2,1-4.8,1.4c-3.1,0.7-4.8-0.4-6-3.4c-0.6-2.4,0.4-4,2.5-4.7c3.6-1.2,7.3-2.4,11-3.2
			c3.4-0.8,5.9,1.2,6.2,4.6c0.3,3.2,0.4,6.4,0.6,9.6c0.1,1.8-0.4,3.3-1.9,4.4c-4.2,4-9.5,5.6-15.3,6.2c0.3,1,1.2,1.2,1.8,1.6
			c0.8,0,1.5,0.2,1.4,1.1c-0.1,1.1-0.3,2.2-1.4,2.8c-2.2,1.2-3.8,3-5.4,5.3c-0.4-1.7-0.7-3-1-4.4c-0.5-1.9-1.3-3.8-3.4-4.2
			c-2-0.3-3.6,0.8-5,2.3c-0.9,0.9-1.3,2.1-2,3.3c-1.8-3.2-6-3.5-7.7-6.7C76.8,118.8,75,113.8,76.9,107.9z M121.4,171.1
			c-5.2,3.2-10.6,5.9-16.8,6.3c-6.2,0.4-10.7-2.8-14-7.8c-2.5-3.8-4.4-8-5.3-12.6c-1.6-4.3-2.4-8.8-2.9-13.4c-0.4-3.6-1-7.3-0.1-11
			c0.1-0.6,0.2-1.2,0.5-1.8c0.7-1.8,1.9-2.1,3.2-0.5c0.7,0.9,1.3,1.9,1.5,3.1c0.4,1.9,0.9,3.8,1.5,5.7c0-3.3,0.7-6.4,2.3-9.3
			c0.8-1.3,1.6-2.8,3.4-2.7c1.9,0.1,2.3,1.8,2.8,3.2c1.4,3.6,0.9,7.4,0.8,11.2c0.6-1.6,1.1-3.3,1.9-4.8c1.3-2.4,2.3-5.2,5.4-6
			c0.2-0.9,0.9-1,1.6-0.7c0.8,0.3,1.2,1,1.3,1.8c0.2,1.6-0.3,3.2-0.7,4.8c-1.1,4.3-2.3,8.6-3.4,12.9c-1.4,5.5-1.8,11,3.3,15.2
			c-1.3,0.6-2.3,0.3-3.3-0.1c-0.8,1.3-2.5-0.3-3.2,1.1c1,0.3,2,0.3,2.9,1c0.4,0.2,1.1-0.2,1.3,0.6c1.9,0.1,3.9,0.1,5.9,0.2
			c3,0.1,5.9-0.4,8.7-1.5c0.5-0.2,1-0.8,1.5-0.3c0.5,0.5,0.4,1.3-0.1,1.9c0.6,0.4,0.5,1,0.5,1.6
			C122.1,169.8,122.2,170.5,121.4,171.1z M282.5,95c1,0.9-0.5,2.1-0.7,3.2c-0.5,3.2-0.9,6.5-0.3,9.9c-1.6-0.4-3-0.8-4.5-1.1
			c-0.5,0.1-1,0.2-1.3-0.5c-1.1-2.8,0.6-8.9,3.1-10.7C279.9,95,281.3,93.9,282.5,95z M272.6,77.8c0.6-1.5,1.6-2.6,3-3.3
			c1.6-0.8,2.7-0.3,3.1,1.4c0.4,1.7,0.3,3.4,0.1,5c-0.4,3.8-1,7.6-0.7,11.5c0.1,1.5-1.1,1.6-2,2.2c-1.1,1.6-2.3,3.2-2.9,5.6
			C269.6,92.5,269.3,85.2,272.6,77.8z M219.7,101.1c1.9-3.6,3.7-7.2,5.5-10.8c1.6-4.1,3.2-8.2,4.7-12.4c4.7-13.1,6.4-26.7,4.8-40.6
			c-0.4-3.1-1-6.1-2.5-8.8c-1.4-2.4-3.9-3.7-5.9-3.1c-1.8,0.6-3.6,3.4-3.7,5.7c0,0.9,0.3,0.9,0.9,0.4c0.6-1.3,1.7-1.9,2.8-2.6
			c0.8-0.5,1.7-0.6,2.5,0.2c0.9,1.1-0.4,1.4-0.8,1.9c-0.2,0.2-0.5,0.4-0.7,0.5c-3,5.8-3,12.2-2.8,18.5c0.3,7.9,1,15.8,1.4,23.7
			c0.3,5.7-0.2,11.1-3.8,16.5c0.9-5.9,0.8-11.3,0.8-16.7c0-8.3-1.5-16.4-2.6-24.5c-1.1-8.4-1.1-16.8,0.5-25.2
			c0.1-0.3,0.1-0.6,0.4-0.7c0.6-3.5,1.6-6.9,4.6-9.2c3.6-2.7,7.3-2.5,10.3,0.9c4,4.5,6.2,9.8,7.4,15.6c2.5,12.3,0.6,24.3-3,36.1
			c-1.5,4.9-3.3,9.7-5.4,14.4c-1.4,3.4-2.9,6.8-4.9,9.9c-1.8,4.3-4.5,8.2-6.7,12.3c-0.9,1.7-2,0.8-3.1,0.3
			C219.2,102.9,219.1,102.2,219.7,101.1z M227.9,76c0.1-10.4-2.8-20.5-2-30.9c0.3-4,0.4-8,2.6-11.5c0.3-0.7,0.7-1.5,1.6-1.4
			c0.8,0.1,0.8,1,1,1.6c1.7,5.8,2.6,11.6,1.7,17.7c0,0.3,0,0.6-0.1,0.9c0,0.3,0,0.6-0.1,0.9C232.3,61.2,230.5,68.7,227.9,76z
			 M232.1,97.7c1.7,1.4,3.3,3,4.3,5.1c0.5,1.1,1.1,2.3-0.6,3.5c-1-2.9-2.7-5.2-5-6.9c-0.8-0.6-1.2-1.2-0.5-2.1
			C231.2,96.2,231.6,97.3,232.1,97.7z M156.2,51.3c1.3-11.9,4.1-23.3,12-32.8c2.2-2.7,4.7-5.3,7.9-7c5.2-2.8,10.6-0.1,11.6,5.7
			c0.6,3.1,0.4,6.3-0.2,9.4c-1.2,8.8-4.3,16.9-8.3,24.7c-4.4,8.5-8.4,17.2-11.1,26.5c-0.4,1.5-0.8,2.9-1.1,4.4
			c-0.2,0.7-0.5,1.3-1.4,1.3c-1,0-1-0.9-1-1.5c-0.1-3.2,0.7-6.3,2.1-9.2c2-7.4,5.8-14.2,8.4-21.4c2.2-6.1,4.6-12.2,4.2-18.9
			c-0.1-1.1,0-2.1-0.5-3.2c-0.2-0.5-1-1-0.2-1.6c0.7-0.5,1.5-0.3,2.1,0.3c0.5,0.6,0.9,1.2,1.4,1.8c0.4,0.6,0.5,1.5,1.2,1.8
			c1.1-2.6,0.6-5.7-1.1-7c-1.6-1.2-4.7-0.8-6.8,1c-2.5,2.2-4.1,5.2-5.5,8.2c-6,12.9-8.4,26.6-7.9,40.7c0.1,2.8,0.2,5.5,0.5,8.3
			c0.2,2-0.5,3.1-2.4,3.3c-0.5,0.6-1.1,1-2,1.4c-0.7-1.6-0.7-3.3-0.9-4.9C155.7,72.3,155.1,61.8,156.2,51.3z M164.6,72.2
			c-0.1-8,0.4-15.8,2.7-23.4c1.2-6.5,3.8-12.5,7.7-17.8c0.4-0.5,0.6-1.4,1.4-1.2c0.7,0.2,0.8,1,1,1.7c0.1,0.4,0.2,0.9,0.3,1.3
			c0,0.3,0.1,0.6,0.1,0.8c0,0.5,0,0.9,0,1.4c0,0.4-0.1,0.9-0.1,1.3c0,0.2-0.1,0.4-0.1,0.6c-0.9,6.7-3.2,13.1-6,19.2
			C169.1,61.3,166.4,66.5,164.6,72.2z M148.8,99.7c20-18.2,42.9-22.7,68.5-14.4c0.4,0.1,0.7,0.3,1.1,0.4c0.7,0.3,0.5,0.9,0.5,1.4
			c-0.1,1-0.8,0.5-1.2,0.3c-3.5-1.2-7.1-1.2-10.7-1c-3.5,3.8-3.5,6.5,0.4,10.5c7,7.2,15.5,11.7,25.7,12.2c4,0.2,5.5-1.2,6.3-5.1
			c-1.1-3.4-3.3-6-6-8.3c-0.5-0.5-1.9-0.9-1-1.8c0.7-0.8,1.4,0.4,2,0.9c9.3,7.3,14.9,17.2,18.8,28.1c0.7,2.1,1.4,4.2,2,6.4
			c0.1,0.2,0,0.4,0.1,0.8c-1.6-0.3-3.1-0.5-4.2-1.6c-1.6,0.1-3.1,0.1-3.4-2c-0.1-0.7-0.8-1.1-1.4-1.5c-11.1-8.3-23.6-11.4-37.3-9.8
			c-2,0.2-4.3-0.2-5.8,1.9c-0.2,0.3-1.3,0-2-0.2c-16.7-4.8-33.4-9.7-50.1-14.5c-0.5-0.1-1.1-0.1-1.3-0.8c-0.7,0.1-1.5,0.4-1.9-0.3
			C147.5,100.5,148.4,100.1,148.8,99.7z M218.5,91.2c0,0.6-0.2,1.2-1.2,0.9c-3.2-0.8-6.4-1.5-9.6,0.3c-0.6,0.4-0.8-0.2-0.9-0.6
			c-0.5-1.4-0.1-2.5,1.3-2.9c3.4-1.1,6.7,0,9.9,1C218.6,90.1,218.5,90.2,218.5,91.2z M236.4,145.1c0.2,1.3,0,2.3-1.5,2.5
			c-1.4,0.2-2.8,0.4-3.3-1.5c-0.3-1.4-0.6-2.7-1-4.7c-0.9,1.4-0.6,2.4-0.6,3.3c0,2.7-0.6,3.4-2.8,3.5c-2.3,0.1-2.9-0.6-3.2-3.2
			c-0.1-1.4-0.3-2.9-0.8-4.3c-0.3,1.6-0.6,3.2-0.8,4.9c-0.2,1.6-1,2.4-2.6,2.2c-1.6-0.1-2.7-0.9-2.7-2.8c0-2.5,0.4-5,0.8-7.5
			c0.1-0.4,0.1-0.9,0.1-1.5c-1.9,0.6-3.7,1.3-5.7,1.2c-2.8-0.2-3.9-1.8-2.9-4.3c0.3-0.8,0.7-1.5,1.2-2.2c6.5-9.5,21.4-10.6,29.4-2.3
			c1.7,1.7,2.5,3.9,2.7,6.2c0.3,3.6-1.4,5.2-4.9,4.7c-0.8-0.1-1.6-0.4-2.7-0.7C235.6,140.9,236,143,236.4,145.1z M117.9,204.6
			c1.7,2.5,2.5,5.3,2.3,8.3c0.4,7.8-6.1,14.7-14.4,15.1c-7.6,0.4-15-5.9-15.5-13.3c-1-6.1,1.4-10.8,6.2-14.4
			c4.8-3.5,10.2-3.2,15.6-1.7c0.3-0.8-0.2-1.1-0.5-1.2c-2.7-0.8-1.6-2.2-0.7-3.7c5.7-9,14.5-12.5,24.8-9.8c1.7,0.4,3.4,0.9,5.1,1.4
			c3.5,1,6.7,0.6,9.6-1.6c1.9-1.4,3.8-2.9,5.7-4.3c0.1-0.1,0.3-0.2,0.4-0.3c0.7-0.6,1.4-1.3,2.1-1.9c0.3-0.5,0.7-0.9,1.2-1.1
			c0.6-0.7,1.3-1.3,1.9-1.9c0.3-0.3,0.6-1.1,1.2-0.5c0.4,0.4,0.5,1.1-0.2,1.6c-1,0.7-1.9,1.5-2.9,2.3c-0.6,0.9-1.5,1.6-2.4,2.2
			c-0.2,0.4-0.5,0.7-1,0.9c-1.7,1.5-3.3,3-5,4.4c-3.6,2.8-7.7,3.7-12.1,2.3c-2.1-0.6-4.3-1.1-6.5-1.2c-2.4,0-4.7,0.7-6.7,1.9
			C122,192.8,119.4,198.5,117.9,204.6z M152.2,178.7c-0.1,0.8-1.1,1.2-1.8,1.6c-0.9,0.6-1-0.6-1.5-0.9c-0.4-0.3-0.8-0.7-1.1-1.1
			c-0.7-0.4-2.2-0.1-2-1.2c0.2-0.9,1.5-0.7,2.4-0.7c0.3,0,0.7,0.2,1,0.3c0.5,0.2,1.1,0.2,1.5,0.5
			C151.4,177.6,152.4,177.9,152.2,178.7z M152.6,164.4c1.3-0.5,2.6-1,3.9-1.3c1.9-0.5,2.5,0.1,2.6,2.4c0.1,1.3-0.4,2.4-0.9,3.5
			c-1.4,3.1-3.6,3.4-5.7,0.8c-0.6-0.7-1.1-1.5-1.1-2.5C150.7,165.9,151.2,164.9,152.6,164.4z M147.6,169.6c-0.9,3.3-2.2,3.9-4.9,2.3
			c-1.8-1.1-1.7-2.1,0.1-3.1c0.7-0.4,1.4-0.9,2.2-1.3c0.8-0.4,1.6-1.2,2.5-0.4C148.2,167.8,148,168.8,147.6,169.6z M147,179.9
			c0.5,0.5,1.2,1.2,0.9,2c-0.2,0.8-1.1,0.7-1.7,0.9c-0.6,0.2-1.4,0.1-2,0.1c-0.8,0.5-1.6,0-2.4-0.1c-0.7-0.1-1.7-0.1-1.8-1
			c-0.1-0.8,0.5-1.4,1.3-1.6C143.6,178.4,145.5,178.3,147,179.9z M197.4,178.4c-9.7,1.3-19.3,0.3-28.9-1.5c-0.8-0.1-1.5-0.5-1.9-1.2
			c-1.4-2.5-2.6-5.1-3-8c-0.9-1.5-0.8-3.2-1.3-4.8c-0.4-1.3,0.6-1.4,1.4-1.5c4.1-0.7,8.1-1.4,12.3-1.6c0.2-0.3,0.3-0.3,0.5-0.1
			c0.4,0,0.9-0.1,1.3-0.1c0.2,0,0.3,0,0.5-0.1c0.6,0,1.3,0,1.9-0.1c0.4,0,0.9,0,1.3,0c7.6-0.4,15.2,0,22.7,0.5
			c1.2,0.1,1.8,0.2,1.5,1.7c-0.6,3.6-1.3,7.2-2.4,10.7C202.5,177.2,202.2,177.7,197.4,178.4z M202.9,191.7c-0.2,0.6-0.9,0.4-1.4,0.4
			c-2.4,0.2-4.8,0.3-7.3,0.5c-1.2,0.1-1.7-0.2-0.8-1.4c0.1-1.2,0.8-2,1.4-2.8c1.5-1.9,3-2.1,4.9-0.5c0.8,0.7,1.5,1.5,2.2,2.3
			C202.6,190.6,203.1,191.2,202.9,191.7z M189.9,192.4c-3.8,0.5-7.4,0.2-11.2,0.1c0.3-0.7,0.4-1.2,0.6-1.6c1.4-2,2.5-5.2,5.3-4.8
			C187.8,186.6,188.8,189.8,189.9,192.4z M174,192.6c-2.6-0.2-5.3-0.4-7.9-0.6c-1.1-0.1-1.9-0.3-0.8-1.6c0.8-2.3,1.8-4.8,4.5-4.7
			c2.9,0.1,4.1,2.7,5,5.2C175.5,191.8,176,192.7,174,192.6z M161,190.9c-0.5,0.9-1.5,0.2-2.3,0.1c-2.2-0.3-4.3-0.7-6.5-1.2
			c-0.7-0.1-1.8,0.1-1.8-0.8c-0.1-0.8,0.8-1.2,1.5-1.4c0.6-0.5,1.2-0.9,1.8-1.4c3.1-2.4,4.2-2.1,6.2,1.4c0.2,0.3,0.3,0.7,0.4,1.1
			C160.9,189.3,161.4,190.2,161,190.9z M119.2,302.9c-2.2,6.5-2.7,13.1-1.4,19.8c0.7,2,1.8,3.7,3,5.4c0.4,0.6,1.2,1.3,0.6,2.1
			c-0.7,0.9-1.6,0.1-2.3-0.3c-2.4-1.2-4.2-3.1-5.6-5.3c-6.2-9.6-6-19.8-2-30.5c1.3,1.9,3.2,2.8,4.6,4.1c0.2,0,0.3,0,0.5,0
			C120.5,299.2,120.5,299.2,119.2,302.9z M150.6,278.9c-0.4,2.6-0.2,5.2-0.2,7.8c0,1-0.4,1.8-1,2.5c-3.3,4.5-7.7,7.3-13.2,8.1
			c-5.7,0.8-11.5,1-17-1.3c-2.5-1-4.8-2.4-5.9-5.1c-2.1-2.8-2.4-6-2.3-9.4c0-0.6,0.1-1.4,0.7-1.5c0.8-0.2,0.9,0.7,1.1,1.2
			c1.9,4.6,5.4,7.3,10.1,8.7c5.6,1.7,10.3,0,14.8-3.9c-1.1-0.4-1.8,0.4-2.6,0.4c-0.3,0.2-0.6,0.5-1,0.2c0.2-0.2,0.4-0.4,0.6-0.6
			c2.4-2.4,5.4-3.9,8.6-5.3c1.8-1.4,4-1.9,5.9-3C150.4,277.1,150.7,277.9,150.6,278.9z M171.2,307.4c-8.3,1.3-16-4.4-17.2-12.8
			c-1.3-4.5-1.8-9.1-0.5-13.8c0.2-3.1,1.1-5.8,4.2-7.3c2.6-1.2,4.9-2.9,7-4.8c2.1-1.8,3.9-3.8,5.7-6.6c0,4.1,1,7.8-2.7,10.3
			c-3.4,6.2-4.4,12.7-3.1,19.7c0,0.2-0.1,0.4-0.2,0.6c-1.4-0.2-1.8-1.7-3.1-2.2c-0.3,0.4-0.1,0.8,0.1,1.1c1.9,4.2,5.3,5.8,9.8,5.8
			c4.4,0,7.8-1.4,9.5-5.7c0.3-0.7,0.7-1.4,1-2.1c0.3-1,0.6-2.1,1.8-2c0.9,0.1,1,1.4,1,2.1C184.9,297.5,181.6,305.8,171.2,307.4z
			 M170.7,273.1c0.3,1.7,0.6,3.4,0.9,5c1.1,5,2.6,9.7,5.5,14.1c0.3,0.5,0.3,0.8,0,1c-0.1,0.1-0.3,0.3-0.5,0.4
			c-1.3,0.9-2.8,1.6-4.4,1.8c-3.3,0.4-5-0.7-5.5-4c-0.6-4-0.4-7.9,0.8-11.6c0.4-1.2,0.8-2.4,1.4-3.5
			C169.4,275.2,170,274.2,170.7,273.1z M164.7,292.9c-0.1,0-0.1,0-0.1,0c0,0-0.1-0.1-0.1-0.2C164.6,292.8,164.7,292.9,164.7,292.9z
			 M211.2,300.6c-1.4,3.4-2.7,6.7-4.1,10.1c-1.7,5.5-3.5,11-3.7,16.8c-0.2,6.5,2,11.9,7.7,15.6c0.8,0.5,1.5,1,2.3,1.5
			c0.8,0.6,1.8,1.2,1.5,2.4c-0.3,1.1-1.4,1.4-2.3,1.6c-5.5,1.3-12.6-2-16-7.4c-3.1-4.9-4.3-10.5-5.1-16.1c-0.4-2.4-0.5-4.9-0.4-7.4
			c-0.5-5.1,0.3-10,1.9-14.9c0.3-0.9,0.6-1.5,1.7-1.4c5.5,0.4,11,0,16.4-1c0.1,0,0.2-0.1,0.3-0.1
			C211.3,300.4,211.2,300.5,211.2,300.6z M274.3,242c2.9,6.3,4.2,12.8,2.6,19.7c-1.2,7.8-5.2,13.6-12.7,16.7
			c-5.8,2.4-11.9,3-18.1,2.6c-2.3-0.2-4.4-1.3-6.4-2.2c-4.3-0.7-8.7-0.7-13-0.1c-1.2,0.3-1.9,0.3-1.7-1.3c0.3-2.5,0.6-5,0.8-7.5
			c0.1-0.9,0.3-1.4,1.2-1c7.7,2.7,15.6,1.5,23.4,0.9c0.9-0.1,1.8,0.1,2.7,0.1c2.8-0.5,5.6-0.7,8.4-1.5c8.7-2.6,13.2-10,11.2-18.9
			c-0.8-3.7-1.9-7.3-4.9-10c-0.5-0.4-0.9-0.9-0.4-1.6c0.4-0.6,1.1-0.4,1.7-0.2C271.4,238.5,273.3,239.8,274.3,242z M257.4,265.5
			c6.2-4.5,10.1-10.6,12.6-17.8c1,4.8,1.1,9.4-2.2,13.4C265.1,264.3,261.4,265.4,257.4,265.5z M241.3,250.3c-3.2,0.5-6.4,1-10.1,1.6
			c1.4,0.2,2.2,0.3,3,0.4c3.5,0,7-0.1,10.5-0.9c8.8-2.2,14-8.3,17.6-16.2c2-4.4,3.1-9.1,4.7-13.7c1.4-4,3.1-7.9,5.9-11.1
			c3.1-3.6,10-5.2,14.9-3.4c4.1,1.5,7.2,6.3,7.3,11.3c0,1.1,0,1.1-1,1.7c-1.1-0.5-1.2-1.7-1.5-2.7c-1-3.1-3.1-4.9-6.2-5.4
			c-3.2-0.6-5.6,0.6-7.5,3.2c-3.9,5.4-6.1,11.6-7.7,18c-0.4,1.6-0.8,2.7-2.8,2.1c-1.2-0.3-2.5,0.2-3.1,1.4c-0.7,1.2-0.2,2.4,0.5,3.4
			c0.5,0.7,1,1.5,1.6,2.3c0.8,0.5,1.2,1.1,0.9,2.1c-2.2,8.1-5.7,15.4-13.4,19.6c-9.8,5.3-20.1,5.2-30.2,0.9
			c-7.9-3.4-13.8-9.1-17-17.2c-0.6-1.5-0.9-3.1-1.4-4.7c-5.3,6.7-6.5,14.5-6.3,22.8c0.2,4.5,1,8.8,2.2,13.1c0.6,2.2,0.5,2.3-1.8,1.8
			c-1.9-0.4-3.7-0.8-5.6-1.2c-0.1,0-0.8-0.3-0.5,0.4c0.1,0.2,0.3,0.3,0.5,0.4c0.2,0.1,0.5,0.2,0.5,0.5c0.4-0.1,0.8,0,0.9,0.5l0,0
			c0.3,0,0.7,0,0.5,0.5c2.4,0.4,4.7,1.5,7.1,1.9c5,0.8,9.8-0.1,14.6-0.7c6.6-0.8,13.2-1.8,19.9-0.3c4.7,1.1,8.5,3.5,10.8,7.8
			c0.3,0.7,0.9,1.3,0.6,2.1c1.4,1.5,1.3,3.6,1.2,5.3c-0.4,6.8-3.2,12.5-8,17.4c-0.2,0.2-0.4,0.5-0.7,0.6c-1,0.6-2.2,1.5-3.1,0.7
			c-1-0.9,0.2-1.9,0.8-2.7c1.9-2.9,4.6-5.4,5.3-9c-0.1-1.4-0.1-2.8-0.4-4.1c-1.3-5.5-5.2-7.7-12.1-8.3c-4.9-0.4-9.4,1.3-14,2.5
			c-7.5,1.9-14.9,3.8-22.7,3.4c-2.4-0.1-4.7-0.6-7-1.4c-1.5-0.5-2.4-1.2-1.8-3c0.3-0.9,0.2-2,0.3-3c-0.1-1.1-0.2-2.3-0.4-3.4
			c-0.3-1.4-0.5-2.9-2.1-3.5c-1.6-0.6-2.4,0.8-3.5,1.6c-0.4,1.2-0.6,3-1.7,3.1c-1.1,0.1-1.5-1.7-2-2.8c-1.3-2.8-2.5-5.7-2.7-8.9
			c-2.2-8.4-2.3-17-2.4-25.6c0-2.6,0-5.2,0-7.3c-0.5,1-0.7,2.6-1,4.3c0.1,4.9-0.9,9.2-4.2,13.2c-5.9,7.2-13.3,11.8-21.7,15.3
			c-6.2,2.6-12.1,5.6-17,10.3c-1.3,1.3-2.6,1.3-4.1,0.4c-2.4-0.1-4.3-1.4-6.2-2.8c-0.9-0.6-0.6-1.2-0.1-1.9
			c3.6-4.4,7.7-8.2,12.9-10.9c9.6-5,16.5-12.6,20.9-22.4c0.3-0.7,0.8-1.5,0.5-2.7c-1.7,2.5-2.9,5-4.9,7c-0.1,0.2-0.3,0.3-0.4,0.5
			c0,0,0,0,0,0c-5.1,10-17.1,14.5-26.2,9.8c-0.6-0.3-1.3-0.6-1.8-1.1c-2.8-2.7-6.2-3.9-9.9-4.2c-0.4,0-0.9,0.1-1.3,0.1
			c-0.4,0.6-0.9,0.5-1.4,0.3c-5.5,1.6-8.2,5.7-9.7,10.9c0,0.1,0,0.2,0,0.2c-0.3,0.6-0.1,1.9-1,1.8c-0.9-0.1-0.8-1.3-0.8-2.1
			c-0.6-6.8,4.3-14.8,11.3-17.2c5.8-2,11.8-2.3,17.7,0.2c0.4,0.2,0.8,0.4,1.5,0.8c-2,0.7-3.8,0.9-5.6,1c0.3,0.6,0.7,0.9,1.4,0.9
			c9.6-0.4,18.7-2.3,26.4-8.7c3.3-2.7,5.4-6.2,7.1-10.1c0-0.2,0-0.3,0.1-0.5c0.8-3.1,0.8-3.1,3.7-1.7c4.6,2.1,7,0.6,7.4-4.5
			c0-0.5,0.1-1.1,0.1-1.8c1.6,1.1,2.5,2.7,3.6,3.9c1.3,1.5,2.8,2.9,4.4,4c3,2.1,5.5,1.7,7.8-1.2c3-3.8,4.7-8.2,6.4-12.7
			c0.2-0.5,0.4-1.1,0.7-1.9c0.9,1.8,1.7,3.4,2.4,5c0.6,1.3,1.4,2.4,2.3,3.4c3.1,3.2,6.1,3.2,9-0.2c1.7-1.9,3-4,4.6-6.5
			c0.7,2.5,0.7,4.6,1.5,6.6c1.8,4.3,5.2,5.1,8.7,2c2.8-2.5,4.4-5.9,5.8-9.3c0.2-0.5,0.4-1,0.7-1.8c1.3,3,2.7,5.5,4.5,7.9
			c1,1.3,0.6,3.7,0.8,5.6c0.8,3.6,1.8,7.1,3.8,10.3C234.8,246.8,237.6,249,241.3,250.3z M222.5,275.2c-0.1,0.7-0.3,1.5-0.4,2.2
			c-0.3,1.6-1.2,2.4-3,2.6c-3.6,0.4-7.1,0.7-10.7,1c-2.3,0.2-3.4-0.7-3.7-2.9c-0.1-0.8-0.3-1.6-0.5-2.5c-2.1-6.5-2.2-13.1-1.2-19.7
			c0.3-2,0.8-3.9,1.3-6.3c2.1,3.3,4,6.2,6.5,8.8c3.2,3.4,6.8,6.2,11,8.3c1,0.5,1.5,1.1,1.5,2.3C223,271.1,223.3,273.2,222.5,275.2z
			 M295.1,146.6c-3.1,7.1-5.6,14.5-10.1,20.9c-4.4,6.3-10.3,9.1-18.1,7.7c-0.9-0.2-2,0.3-2.8-0.6c-0.4,0-0.9,0-1.3,0
			c-0.7,0.1-1.4,0.3-1.9-0.4c-1.3,0.1-2.6-0.8-4.3-0.1c2.6,1.3,1.7,3.3,1.6,5.2c-0.5,5-1.6,9.8-3.4,14.5c-0.3,0.8-0.6,1.7-1.5,2.4
			c-1.1-2.7-0.3-5.5-1.4-8.1c-1.4,6.9-3.1,13.7-5.8,20.2c-0.5,2.9-1.7,5.5-3,8c-0.1,0.2-0.4,0.5-0.6,0.5c-0.5,0-0.6-0.5-0.7-0.8
			c-0.3-1.3-0.2-2.7-0.1-4.1c0-1.5,0-3,0-4.5c-0.2-0.1-0.4-0.2-0.5-0.3c-1.5,3.2-3.6,6.1-5.5,9c-0.9,2.5-2.5,4.6-4.4,6.5
			c-1,1.1-1.9,1-2.9-0.1c-1.6-1.8-2.4-4-3.3-6.2c-0.2-0.4-0.1-0.9,0.4-1.2c0-2,0-4,0-6c-0.1,0-0.3-0.1-0.4-0.1
			c-0.7,1.7-1.4,3.4-2,5.1c-1.6,4.8-4,9.3-7.2,13.2c-1.8,2.2-3.1,1.9-4.2-0.9c-1.2-3.2-1.9-6.5-1.8-9.9c0-1-0.5-2.2,0.7-2.9
			c0-2,0-3.9,0-6.7c-1.6,4.4-3.8,7.9-5.8,11.4c-1.4,3.4-3.5,6.2-6.2,8.7c-0.7,0.6-1.5,0.7-2,0c-2.8-3.9-4.9-8.2-5.8-13
			c0-0.1,0.2-0.3,0.2-0.4c0-1.5,0-3-0.1-4.5c-0.2-0.3-0.4-0.6-0.5-0.9c-1.7,4.8-3.8,9.3-6.1,13.8c-1.3,4.1-3.6,7.7-5.9,11.3
			c-0.8,1.1-1.9,1.3-3.2,0.5c-2.1-1.2-3.5-3-4.8-4.8c-1.7-2.4-3.7-4.6-4.8-7.4c-1.6-2-3.1-4.1-4.9-6.5c-0.6,3,1,5.3,1,7.8
			c1.6,2.4,1.9,5.1,1.1,7.8c-0.4,1.6-1.7,1.9-3.1,1.2c-2.1-1.2-3.9-2.6-5.2-4.6c-4.2-3.9-6.8-9-9.9-13.7c-1.3-2.1-2.5-4.2-3.8-6.3
			c-0.3-0.5-0.4-1.2-1.5-1.1c1,2.7,2,5.4,3,8c1.2,1.5,0.7,3.2,0.5,4.8c-0.2,1.2-0.9,1.6-1.8,0.5c-1.2-1.6-2.5-3.2-3-5.2
			c-5-6.9-6.9-15-9.1-23c-0.4-1.5,0.2-2.2,1.5-2.5c1.9-0.6,3.8-0.5,5.7-0.1c5.6,1.2,11.2,2.6,16.8,3.7c7.5,1.5,15.2,2.2,22.8,2.6
			c6.6,0.4,13.2,0.3,19.8-0.1c13.2-0.8,26.5-1.9,39.1-6.4c2.9-1,5.6-2.4,8.1-4.4c4.8-3.9,5.2-9.4,1-13.8c-4.1-4.4-9.5-6.7-15.1-8.5
			c-9.4-3.1-19.2-4-29-4.7c-8.1-0.6-16.1-0.7-24.1,0.2c-12.5,1.3-24.8,3.6-35.5,10.8c-2.5,1.7-4.9,3.5-6.6,6
			c-0.7,1.1-1.2,2.3-1.4,3.6c-0.2,1,0.6,2.7-0.2,3c-1.2,0.5-2.7,0.1-4.1,0.3c-0.7,0.1-1-0.4-1.1-1.2c-1.2-9.3-1.6-18.6-0.7-28
			c0.7-6.8,2-13.5,3.8-20.1c0.6-2.1,1.3-4,2.3-5.9c-0.6-0.7,0.1-1,0.5-1.5l0,0c0.1-1.2,0.6-2.3,1.3-3.3c2.5-6.3,6.2-11.8,10.8-16.7
			c0.7-0.7,1.4-1.6,2.4-0.3c3.5,0.2,6.7,1.6,10,2.6c13.3,3.7,26.5,7.6,39.7,11.5c1.6,0.5,3.2,1,4.9,1.3c1.8,0.4,2.2,1.4,2.1,3.1
			c-0.7,7.2,0.2,14.2,2.8,21c2.2,5.9,6.9,9.1,12.9,10.2c6.4,1.1,12.9,1.3,19.4-0.3c1.8-0.4,3.5-1.2,5.2-1.8c0.1,0,0.2-0.1,0.4-0.1
			c0.1-0.6,0.4-0.9,1-0.9c4.6-3.8,3.9-9,3.5-14.1c-0.1-1.2-0.1-2.4-0.3-3.6c-0.3-2,0.5-2.5,2.3-1.7c0.6,0.3,1.3,0.5,1.9,0.8
			c2.9,0.2,4.3,1.5,4.8,4.6c1.6,8.7,2.7,17.4,2.3,26.2c-0.2,3.5-0.3,3.5-3.8,2.1c-0.9-0.1-1.9-0.2-3.1-0.3c1.8,1.5,3.5,2.5,5.4,3.4
			c4.7,1.2,9.4,1.3,14.2,0.4c1.1-0.2,1.1,0,0.1,2c0,0.5,0.1,1.1,0.1,1.7c1.4-0.4,1.8-1.7,2.3-2.6c2.9-5.2,3-10.9,2.4-16.6
			c-0.3-3.1-1-6.2-1.6-9.3c-0.2-0.9-0.4-1.8,0-2.9c1.4,0.8,1.4,2.4,2.6,3.4c-0.1-1.9-0.2-3.7-0.3-5.5c0-1-0.2-2.5,1.1-2.8
			c1.5-0.3,1.7,1.3,2,2.3c0.8,2.4,1.5,4.8,2.4,7.5c1.3-1.8,1.4-3.6,2.1-5.2c0.6-1.4,1-2.9,1.7-4.3c0.3-0.8,0.8-1.6,1.8-1.6
			c1,0.1,1.3,1,1.5,1.8c0.5,2.3,0.9,4.5,0.6,6.8c-0.2,1.6-0.2,3.2-0.4,4.8c1,0,1.1-0.8,1.5-1.2c0.6-3.3,2.4-5.8,5.5-7.9
			C297.4,142.1,296.1,144.4,295.1,146.6z M234,172.4c-0.5-0.8-0.3-1.6-0.1-2.4c0.5-2.3,1.6-2.7,3.5-1.4c0.7,0.5,1.4,0.9,2,1.4
			c2.7,2.2,2.7,2.3,0,4.6C236.5,176.6,234.9,175.9,234,172.4z M237.1,184.7c-2,1-4.1,1.9-6.4,2.5c-0.3-0.9-0.4-1.6,0.1-2.4
			c0.9-4.1,2.5-4.6,6.2-1.9C238.6,183.4,238.5,184.1,237.1,184.7z M237.8,181c-1.7-0.5-3.1-1-4.6-1.5c-2.1,0.4-2.1,0.4-3.4,2.2
			c-1.2-2.3-0.9-3.3,1.2-4.5C234,176.5,235.8,177.5,237.8,181z M230.8,169.5c-0.5,2.5-2.2,4.2-4.2,5.4c-2,1.2-3.7,0.6-4.7-1.5
			c-1.1-2.3-1.4-4.7-1-7.1c1-2.8,2.4-3.6,5.2-2.7c2.5,0.8,5.1,1.5,5.1,4.9C231.1,168.8,230.9,169.2,230.8,169.5z M223.4,183
			c2.1,0.2,3,1.8,3.5,3.7c0.9,1,0.6,1.6-0.7,1.9c-2,0.4-4,0.8-6,1.3c-1.8,0.4-2.1-0.3-1.2-1.7c0.2-0.6,0.4-1.3,0.7-1.9
			C220.5,184.6,221.3,182.8,223.4,183z M218,165.4c-0.9,2.9-2.5,5.4-4.8,7.3c-1.9,1.6-3.6,1.2-4.5-1.1c-0.9-2.5-1.3-5.1-0.3-7.7
			c2.1-3.3,5.7-4.1,8.9-2.1C218.7,162.8,218.9,164,218,165.4z M210.9,185.2c2.1-0.1,2.8,1.7,3.6,3.3c0.9,1.4,1.1,2.3-1.1,2.4
			c-1.9,0.1-3.8,0.5-5.6,0.7c-1.2,0.2-1.4-0.3-0.8-1.2c0.2-0.6,0.3-1.2,0.6-1.7C208.4,187.2,209,185.3,210.9,185.2z M304.1,84.5
			c-2.4,6-2.6,12.2-1.5,18.5c1.3,6.7,0,13.2-2.6,19.5c-1.5,3.9-3,7.7-4.5,11.6c-0.3,1.7-0.9,3.4-2.2,5.2c-0.2-2.3-0.4-4.1-0.6-5.9
			c-0.2-1.4-0.4-3-2.2-3.5c-1.8-0.5-2.9,0.9-3.7,2.2c-1.1,1.7-2,3.6-3.2,5.7c-0.5-0.9-0.8-1.7-1.2-2.5c-1.1-1.7-1.9-3.7-4.5-3.6
			c-1.3,0-1.4-1.8-2.3-2.6c-2.4-2-5.1-3.3-8-4.4c-4.9-1.9-6.4-4.6-5.8-10c0-5.7,3.6-8.5,9-7c2.4,0.6,4.8,1.2,7.2,1.7
			c4.3,0.9,6.3,4.8,4.1,8.1c-1.8,2.3-4.1,3-6.9,2.6c-2.9-0.4-5.7-1.6-8.6-2.7c2.8,4.5,10.3,6.5,14.9,3.9c1.7-1,2.1-0.3,2.4,1.1
			c0.4,1.7,0.1,3.3-0.2,5c2.2-2.3,2.8-5,1.7-8c-0.7-1.7-0.5-2.2,1.5-1.8c3.3,0.6,5.7-0.8,6.6-3.9c1.1-3.9,0.6-7.8-0.6-11.8
			c-0.2,2.2-0.4,4.4-0.6,6.6c-0.2,1.8-0.5,3.7-1.5,5.3c-1.4,2.3-3.5,2.4-4.9,0.1c-0.7-1.2-1.2-2.4-1.4-3.8
			c-0.7-3.9-1.1-7.8,0.3-11.6c1.1-3.1,3.6-3.9,6.5-2.4c1.5,0.7,1.4,2.2,1.9,3.5c0.2,0.2,0.3,0.5,0.5,0.5c0.9,0.1,0.4-0.6,0.4-0.8
			c-0.4-2.4-0.6-4.7-0.4-7.1c0.4-6.5,2.2-12.5,6.4-17.6c1-1.2,2.1-2.4,3.8-1.8c1.9,0.6,1.9,2.5,1.9,4.1
			C305.9,79.4,305.1,82,304.1,84.5z"/>
		<path fill="#0B092B" d="M196.4,281.6C196.4,281.6,196.4,281.6,196.4,281.6C196.4,281.6,196.4,281.6,196.4,281.6L196.4,281.6z"/>
		<path fill="#0B092B" d="M195,280.7C195,280.7,195,280.7,195,280.7C195,280.7,195,280.7,195,280.7L195,280.7z"/>
		<path fill="#0B092B" d="M105.5,167.2C105.5,167.2,105.5,167.2,105.5,167.2C105.5,167.2,105.5,167.2,105.5,167.2L105.5,167.2z"/>
	</g>
	<path fill="#ACB591" d="M154,294.5c1.4,0.9,1.9,2.5,2.8,3.8c3.4,4.9,8.2,6.2,13.7,5.4c5.1-0.7,8.6-3.8,10.6-8.4
		c0.8-1.7,1.7-3.5,0.8-5.6c0.3-1,0.6-2.1,1.8-2c0.9,0.1,1,1.4,1,2.1c0.2,7.6-3,15.9-13.4,17.5C163,308.6,155.3,302.9,154,294.5z"/>
	<path fill="#DBD4E6" d="M255.4,164.9c0.9-4.8,0.1-9.6-0.2-14.4c-0.4-6.3-1.7-12.4-3.1-18.5c2.9,0.1,4.3,1.5,4.8,4.6
		c1.6,8.7,2.7,17.4,2.3,26.2C259.1,166.2,258.9,166.2,255.4,164.9z"/>
	<path fill="#ACB591" d="M207.1,310.7c-0.8-0.4-0.5-1.2-0.6-1.8c-0.5-2.8-2.9-4.3-5.6-3.5c-4.7,1.5-7.3,5-8.8,9.5
		c-0.3,0.9,0,2.2-1.2,2.8c-0.5-5.1,0.3-10,1.9-14.9c0.3-0.9,0.6-1.5,1.7-1.4c5.5,0.4,11,0,16.4-1c0.1,0.1,0.1,0.1,0.2,0.2
		C209.8,304,208.4,307.4,207.1,310.7z"/>
	<path fill="#DBD4E6" d="M250.9,128.4c-2.1-9-4.9-17.6-11.6-24.4c-1.1-3.4-3.3-6-6-8.3c-0.5-0.5-1.9-0.9-1-1.8
		c0.7-0.8,1.4,0.4,2,0.9c9.3,7.3,14.9,17.2,18.8,28.1c0.7,2.1,1.4,4.2,2,6.4c0.1,0.2,0,0.4,0.1,0.8
		C253.6,129.7,252.1,129.5,250.9,128.4z"/>
	<path fill="#ACB591" d="M109.1,259c1.7-1.8,3.6-0.3,5.2,0c2.8,0.5,5.4,1.7,8.2,2.3c8.4,1.9,15.7-0.8,22.3-5.9
		c0.7-0.5,1.2-1.2,2.2-1c-5.1,10-17.1,14.5-26.2,9.8c-0.6-0.3-1.3-0.6-1.8-1.1C116.2,260.5,112.9,259.3,109.1,259z"/>
	<path fill="#DBD4E6" d="M300.1,122.5c-0.7-2.6,0.6-5,0.7-7.6c0.2-2.9,0.3-5.8-0.1-8.7c-1.2-7.7-0.9-15.3,1-22.8
		c0.3-1.2,0.6-2.4,0.8-3.6c0.6-3,0.1-3.9-2.4-5.4c1-1.2,2.1-2.4,3.8-1.8c1.9,0.6,1.9,2.5,1.9,4.1c0.1,2.7-0.7,5.3-1.7,7.8
		c-2.4,6-2.6,12.2-1.5,18.5C303.9,109.8,302.7,116.2,300.1,122.5z"/>
	<path fill="#DBD4E6" d="M249.4,292.5c-4.1-6.4-10.4-8-17.5-8.1c-6.1-0.1-12.2,0.5-18.3,1.3c-5.6,0.6-11-0.2-16-2.9
		c-0.5-0.3-1.1-0.5-1.3-1.2c2.5,0.4,4.7,1.5,7.2,1.9c5,0.8,9.8-0.1,14.6-0.7c6.6-0.8,13.2-1.8,19.9-0.3c4.7,1.1,8.5,3.5,10.8,7.8
		C249.2,291,249.7,291.7,249.4,292.5z"/>
	<path fill="#DBD4E6" d="M109.1,95.8c0.1-6.9,1.9-13.4,4.8-19.6c1-2.1,2-4.1,2.4-6.4c0.3-1.5,0.1-2.8-1.3-3.6
		c-1.4-0.8-2.5-0.2-3.5,0.7c-2.2,1.9-3.4,4.5-4.7,7c-0.3,0.6-0.4,1.3-1.2,1.6c0.5-3.8,2.3-7,4.3-10.1c1.8-2.8,4.1-3.4,6.9-2
		c2.4,1.1,3.4,3.7,2.3,6.7c-0.6,1.7-1.5,3.4-2.3,5c-2.8,5.8-4.8,11.9-6,18.3C110.7,94.4,110.8,95.9,109.1,95.8z"/>
	<path fill="#F7F24F" d="M203.4,172.4c0-2.7-1.3-4.5-3.5-6c-2.4-1.6-5.1-2.3-7.8-3.2c-0.5-0.2-1.1-0.2-1.4,0.4
		c-2-2.1-4.3-3.4-7.3-3.4c-0.5-0.6-1.4,0-1.9-0.7c7.6-0.4,15.2,0,22.7,0.5c1.2,0.1,1.8,0.2,1.5,1.7
		C205.1,165.3,204.5,168.9,203.4,172.4z"/>
	<path fill="#168099" d="M85.4,157c2.2,1.8,2.7,4.7,4.3,6.9c2.3,3.1,4.6,6.1,7.7,8.4c3.4,2.4,7.2,2.8,11.2,2.1
		c4.9-0.8,9-3.4,13.3-5.4c0.1,0.8,0.3,1.5-0.5,2c-5.2,3.2-10.6,5.9-16.8,6.3c-6.2,0.4-10.7-2.8-14-7.8
		C88.1,165.8,86.2,161.6,85.4,157z"/>
	<path fill="#ACB591" d="M253.1,269.9c-1.1,1.6-2.9,1.6-4.5,2c-3.5,1.1-7.2,1.1-10.9,1.5c-3.2,0.3-6.2,1-8.9,2.8
		c-0.9,0.6-1.9,1.4-2.2,2.5c-1.2,0.3-1.9,0.3-1.7-1.3c0.3-2.5,0.6-5,0.8-7.5c0.1-0.9,0.3-1.4,1.2-1c7.7,2.7,15.6,1.5,23.4,0.9
		C251.3,269.7,252.2,269.8,253.1,269.9z"/>
	<path fill="#168099" d="M264.1,174.6c1.1-0.8,2.4-0.5,3.6-0.4c8.2,0.6,13.6-3.4,17.4-10.4c2.7-4.9,4.8-10.1,6.9-15.3
		c0.2-0.6,0.6-1.1-0.1-1.6c0.6-3.3,2.4-5.8,5.5-7.9c0.1,3.1-1.3,5.3-2.2,7.5c-3.1,7.1-5.6,14.5-10.1,20.9
		c-4.4,6.3-10.3,9.1-18.1,7.7C266,175,264.9,175.6,264.1,174.6z"/>
	<path fill="#BAC699" d="M276.2,94.6c-1.1,1.6-2.3,3.2-2.9,5.6c-3.7-7.7-4-15-0.6-22.4c3.2,0,3.9,0.6,3.9,3.2c0,0.5-0.2,1.1-0.2,1.6
		C275.7,86.6,275.2,90.6,276.2,94.6z"/>
	<path fill="#ACB591" d="M239.7,278.9c0.8-0.7,1.8-0.4,2.6-0.3c5.4,0.8,10.8,0.4,16.2-0.8c7-1.5,11.6-6.1,15.5-11.7
		c1-1.4,1.4-3.2,2.8-4.3c-1.2,7.8-5.2,13.6-12.7,16.7c-5.8,2.4-11.9,3-18.1,2.6C243.9,280.9,241.8,279.8,239.7,278.9z"/>
	<path fill="#DBD4E6" d="M104.5,164.6c-5.3-5.7-3.8-12.1-2-18.6c1.1-4,2.4-8.1,3.5-12.1c0.3-1,0.8-2.2-0.4-3.1
		c0.2-0.9,0.9-1,1.6-0.7c0.8,0.3,1.2,1,1.3,1.8c0.2,1.6-0.3,3.2-0.7,4.8c-1.1,4.3-2.3,8.6-3.4,12.9c-1.4,5.5-1.8,11,3.3,15.2
		C106.6,165.3,105.5,165,104.5,164.6z"/>
	<path fill="#DBD4E6" d="M118.9,115.6c-0.9-0.7-0.5-1.7-0.5-2.6c0.1-3.5-0.1-7-1-10.5c-0.7-2.9-2-3.6-4.9-2.8
		c-2.1,0.6-4.2,1.3-6.4,1.9c-2.2,0.6-4.1,1.6-5.7,3.2c-0.6-2.4,0.4-4,2.5-4.7c3.6-1.2,7.3-2.4,11-3.2c3.4-0.8,5.9,1.2,6.2,4.6
		c0.3,3.2,0.4,6.4,0.6,9.6C120.9,113.1,120.4,114.6,118.9,115.6z"/>
	<path fill="#ACB591" d="M95.8,119.8c-0.1,0.7,0.1,1.3,0.9,1.6c2.1,0.8,3.3,2.4,4.1,4.3c0.4,0.9,0.9,1.2,1.7,0.4
		c1-0.9,2.4-1.3,2.9-2.7c0.8,0,1.5,0.2,1.4,1.1c-0.1,1.1-0.3,2.2-1.4,2.8c-2.2,1.2-3.8,3-5.4,5.3c-0.4-1.7-0.7-3-1-4.4
		c-0.5-1.9-1.3-3.8-3.4-4.2c-2-0.3-3.6,0.8-5,2.3c-0.9,0.9-1.3,2.1-2,3.3c-1.8-3.2-6-3.5-7.7-6.7c2.2-0.4,4,0.3,5.7,1.8
		c0.9,0.9,1.6,1.1,2.5-0.3c1-1.8,2.7-2.9,4.8-3.3c1-0.2,1.5-0.5,1.5-1.6C95.5,119.7,95.7,119.8,95.8,119.8z"/>
	<path fill="#BAC699" d="M91.4,92.3c-1.5,3.4-2.4,7-2.6,10.8c-0.1,1.8-1.5,2.4-2.8,2.9c-1.4,0.5-2.5,0.1-3.1-1.4
		c0.9-0.8,0.4-1.9,0.4-2.8c0-2.2,0.4-4.4,1.3-6.5C86.1,91.4,87.6,90.8,91.4,92.3z"/>
	<path fill="#ACB591" d="M275.6,129.1c4.1-1.6,6.5,0.4,8.1,4.1c1.5-1.8,2.5-3.6,4.1-5c2.7-2.4,5.3-1.9,6.5,1.5
		c0.5,1.4,0.9,2.9,1.4,4.4c-0.3,1.7-0.9,3.4-2.2,5.2c-0.2-2.3-0.4-4.1-0.6-5.9c-0.2-1.4-0.4-3-2.2-3.5c-1.8-0.5-2.9,0.9-3.7,2.2
		c-1.1,1.7-2,3.6-3.2,5.7c-0.5-0.9-0.8-1.7-1.2-2.5c-1.1-1.7-1.9-3.7-4.5-3.6C276.6,131.7,276.5,129.9,275.6,129.1z"/>
	<path fill="#DBD4E6" d="M90.3,214.8c1.9,2.2,2.9,4.9,4.9,7.1c5.4,6,14.5,4.4,19.3,0.2c2.4-2.1,3.9-4.8,4.8-7.9
		c0.1-0.6,0-1.3,0.9-1.3c0.4,7.8-6.1,14.7-14.4,15.1C98.2,228.5,90.8,222.1,90.3,214.8z"/>
	<path fill="#DBD4E6" d="M119.8,254.9c-9.7-3-19.1,0.5-23,9.9c-0.7,1.7-1.3,3.6-1.9,5.4c-0.6-6.8,4.3-14.8,11.3-17.2
		c5.8-2,11.8-2.3,17.7,0.2c0.4,0.2,0.8,0.4,1.5,0.8C123.3,254.6,121.5,254.8,119.8,254.9z"/>
	<path fill="#FDFDFD" d="M257.4,265.5c6.2-4.5,10.1-10.6,12.6-17.8c1,4.8,1.1,9.4-2.2,13.4C265.1,264.3,261.4,265.4,257.4,265.5z"/>
	<path fill="#168099" d="M165.5,221.7c1.2-0.2,1.8,0.7,2.5,1.4c2.1,2.2,4.4,4.1,7,5.6c1.6,0.9,2.8,1,4.2-0.5
		c1.9-1.9,2.9-4.5,5.1-6.1c-1.3,4.1-3.6,7.7-5.9,11.3c-0.8,1.1-1.9,1.3-3.2,0.5c-2.1-1.2-3.5-3-4.8-4.8
		C168.6,226.7,166.6,224.5,165.5,221.7z"/>
	<path fill="#FFFFFF" d="M218,165.4c-0.9,2.9-2.5,5.4-4.8,7.3c-1.9,1.6-3.6,1.2-4.5-1.1c-0.9-2.5-1.3-5.1-0.3-7.7
		C211.6,164.4,214.8,164.9,218,165.4z"/>
	<path fill="#ACB591" d="M117.8,322.8c-1.7-0.9-1.8-2.7-2.2-4.3c-1.6-5.9-1.4-11.7,0.1-17.6c0.2-0.9,0.4-1.8,0.4-2.7
		c0.2,0,0.3,0,0.5,0c3.9,1,3.9,1,2.6,4.7C117,309.4,116.5,316,117.8,322.8z"/>
	<path fill="#ACB591" d="M225.2,90.3c1.6,0.7,3.2,1.2,5,0.6c-1.8,4.3-4.5,8.2-6.7,12.3c-0.9,1.7-2,0.8-3.1,0.3
		c-1.2-0.5-1.3-1.3-0.7-2.4C221.5,97.5,223.3,93.9,225.2,90.3z"/>
	<path fill="#F7F24F" d="M175.2,163.5c-3.8-0.7-7.1,0.6-10,2.9c-0.5,0.4-1,0.9-1.5,1.3c-0.9-1.5-0.8-3.2-1.3-4.8
		c-0.4-1.3,0.6-1.4,1.4-1.5c4.1-0.7,8.1-1.4,12.3-1.6c0.2,0,0.4,0,0.5-0.1c0.4,0,0.9-0.1,1.3-0.1c0.2,0.2,0.4,0.2,0.5-0.1
		c0.6,0,1.3,0,1.9-0.1c0.1,0.3,0.3,0.5,0.4,0.8c-0.2,0-0.4,0.1-0.5,0.1c-0.4-0.1-0.6,0-0.8,0.3C177.7,161.3,176.4,162.4,175.2,163.5
		z"/>
	<path fill="#ACB591" d="M167.8,272.4c-6.2-1.2-9.9,2.2-13,6.9c-0.4,0.5-0.5,1.4-1.3,1.4c0.2-3.1,1.1-5.8,4.2-7.3
		c2.6-1.2,4.9-2.9,7-4.8c2.1-1.8,3.9-3.8,5.7-6.6C170.5,266.3,171.4,270,167.8,272.4z"/>
	<path fill="#DBD4E6" d="M282.1,117.5c-0.1-0.2-0.4-0.5-0.4-0.7c-0.3-3.1-1.7-4.8-5.1-5c-1.8-0.1-3.5-0.9-5.3-1.5
		c-4.1-1.3-5.8-0.8-8.3,2.9c-0.4,0.6-0.8,1.1-1.2,1.6c0-5.7,3.6-8.5,9-7c2.4,0.6,4.8,1.2,7.2,1.7
		C282.3,110.3,284.3,114.2,282.1,117.5z"/>
	<path fill="#FFFFFF" d="M230.8,169.5c-0.5,2.5-2.1,4.2-4.2,5.4c-2,1.2-3.7,0.6-4.7-1.5c-1.1-2.3-1.4-4.7-1-7.1
		C224.2,167.4,227.5,168.5,230.8,169.5z"/>
	<path fill="#DBD4E6" d="M84.8,88c-1.5-0.3-1-1.6-0.9-2.4c0.4-3.1,0.3-6.2,1.1-9.3c0.4-1.4,0.6-2.9-0.9-3.9c-1.5-1-2.6,0.1-3.7,0.8
		c-0.2,0.2-0.5,0.3-0.8,0.4c0.2-2,1.4-3.4,2.9-4.4c1.2-0.8,2.6-1,3.9-0.2c1.2,0.8,1.8,2,1.5,3.3c-1.1,4.7-1.9,9.4-1.8,14.3
		C86.1,87.5,85.3,87.6,84.8,88z"/>
	<path fill="#DBD4E6" d="M276.2,94.6c-1-4-0.4-8,0.2-12c0.1-0.5,0.2-1.1,0.2-1.6c0-2.6-0.7-3.2-3.9-3.2c0.6-1.5,1.6-2.6,3-3.3
		c1.6-0.8,2.7-0.3,3.1,1.4c0.4,1.7,0.3,3.4,0.1,5c-0.4,3.8-1,7.6-0.7,11.5C278.2,93.8,277,94,276.2,94.6z"/>
	<path fill="#168099" d="M210.5,213.7c0.2,2.5,0.6,5,1.3,7.4c0.9,3.2,2.5,3.7,4.8,1.3c1.8-1.8,3.2-3.9,4.6-6
		c0.5-0.8,0.8-1.8,1.9-2.2c-1.6,4.8-4,9.3-7.2,13.1c-1.8,2.2-3.1,1.9-4.2-0.9c-1.2-3.2-1.9-6.5-1.8-9.9
		C209.8,215.7,209.2,214.5,210.5,213.7z"/>
	<path fill="#DBD4E6" d="M103.8,93.4c-0.7,0.2-1.1-0.3-1.6-0.7c-2.5-1.8-4.8-1.3-6.4,1.3c-2.9,4.7-3.5,9.9-3.2,15.2
		c-1.5-0.7-1.8-2-1.9-3.4c-0.3-4.7,0.9-9.1,3.1-13.2c1.3-2.3,3.4-3.6,6.1-3.2C102.2,89.7,103.4,91.1,103.8,93.4z"/>
	<path fill="#FFFFFF" d="M178.8,192.6c0.3-0.7,0.4-1.2,0.6-1.6c1.4-2,2.5-5.2,5.3-4.8c3,0.4,4,3.6,5.2,6.3
		C186.1,193,182.6,192.7,178.8,192.6z"/>
	<path fill="#168099" d="M190.9,213.8c1.5,1.4,1.4,3.4,2.5,5c0.2,0.4,0.3,0.9,0.5,1.3c2.2,4.5,4.1,4.8,7.6,1.3c1-1,1.6-2.4,3.1-2.9
		c-1.4,3.4-3.5,6.2-6.2,8.7c-0.7,0.6-1.5,0.7-2,0c-2.8-3.9-4.9-8.2-5.8-13C190.7,214.1,190.9,213.9,190.9,213.8z"/>
	<path fill="#F7F24F" d="M230.8,169.5c-3.3-1.1-6.6-2.2-9.9-3.2c1-2.8,2.4-3.6,5.2-2.7c2.5,0.8,5.1,1.5,5.1,4.9
		C231.1,168.8,230.9,169.2,230.8,169.5z"/>
	<path fill="#DBD4E6" d="M293.3,99.5c-0.3,0-0.6,0-0.9-0.1c-4.6-1.5-6.2-0.4-7,4.4c-0.4,2.1,0,4.3-0.8,6.3
		c-0.7-3.9-1.1-7.8,0.3-11.6c1.1-3.1,3.6-3.9,6.5-2.4C292.8,96.8,292.7,98.3,293.3,99.5z"/>
	<path fill="#DBD4E6" d="M91.4,92.3c-3.8-1.5-5.3-0.9-6.9,2.9c-0.8,2.1-1.2,4.2-1.3,6.5c0,0.9,0.4,2-0.4,2.8
		c-2.1-4.5-0.5-11.6,3.4-14.7c1-0.8,2.2-1.1,3.4-1C91.8,89.1,92.4,90.3,91.4,92.3z"/>
	<path fill="#BAC699" d="M281.8,98.2c-0.5,3.2-0.9,6.5-0.3,9.9c-1.6-0.4-3-0.8-4.5-1.1c0-1.1,0-2.1,0.1-3.2
		C277.4,100.1,278.8,98.4,281.8,98.2z"/>
	<path fill="#ACB591" d="M232.8,51.5c-1.4-0.3-0.8-1.4-0.9-2.2c-0.5-5.4-0.9-10.7-3.4-15.6c0.3-0.7,0.7-1.5,1.6-1.4
		c0.8,0.1,0.8,1,1,1.6C232.8,39.6,233.7,45.5,232.8,51.5z"/>
	<path fill="#ACB591" d="M177.7,32.7c-2-0.1-2.7,1.5-3.6,2.7c-2.4,3.5-4,7.3-5.6,11.2c-0.3,0.8-0.5,1.6-1.3,2.1
		c1.2-6.5,3.8-12.5,7.7-17.8c0.4-0.5,0.6-1.4,1.4-1.2c0.7,0.2,0.8,1,1,1.7C177.6,31.8,177.6,32.2,177.7,32.7z"/>
	<path fill="#BAC699" d="M218.5,91.2c0,0.6-0.2,1.2-1.2,0.9c-3.2-0.8-6.4-1.5-9.6,0.3c-0.6,0.4-0.8-0.2-0.9-0.6
		c-0.5-1.4-0.1-2.5,1.3-2.9c3.4-1.1,6.7,0,9.9,1C218.6,90.1,218.5,90.2,218.5,91.2z"/>
	<path fill="#DBD4E6" d="M146.6,104.1c-0.2,0.3-0.5,0.5-0.7,0.8c-5,4.9-8.4,10.8-11.8,16.8c-0.2-0.2-0.4-0.4-0.6-0.6
		c2.5-6.3,6.2-11.8,10.8-16.7C145,103.6,145.6,102.8,146.6,104.1z"/>
	<path fill="#168099" d="M154.3,227.3c5.3,1.6,6.1,1.1,7.1-4.3c1.6,2.4,1.9,5.1,1.1,7.8c-0.4,1.6-1.7,1.9-3.1,1.2
		C157.5,230.7,155.7,229.3,154.3,227.3z"/>
	<path fill="#FFFFFF" d="M165.2,190.3c0.8-2.3,1.8-4.8,4.5-4.8c2.9,0.1,4.1,2.7,5,5.2C171.6,190.7,168.4,190.5,165.2,190.3z"/>
	<path fill="#F7F24F" d="M218,165.4c-3.2-0.5-6.4-1-9.6-1.5c2.1-3.3,5.7-4.1,8.9-2.1C218.7,162.8,218.9,164,218,165.4z"/>
	<path fill="#DBD4E6" d="M281.8,98.2c-2.9,0.3-4.4,1.9-4.7,5.6c-0.1,1.1-0.1,2.1-0.1,3.2c-0.5,0.1-1,0.2-1.3-0.5
		c-1.1-2.8,0.6-8.9,3.1-10.7c1.1-0.8,2.6-1.8,3.7-0.8C283.5,95.9,282,97,281.8,98.2z"/>
	<path fill="#DBD4E6" d="M117.9,204.6c-1.5-1.7-1.4-3.4-0.5-5.4c1.5-3.1,3.1-6.2,5.1-9c0.8-1.1,1.7-2.7,3.7-2.2
		C122,192.8,119.4,198.5,117.9,204.6z"/>
	<path fill="#168099" d="M225.4,215.2c1.1,0.1,1.1,1.2,1.4,1.8c1.8,3.3,3.9,4.1,6.9,0.3c0.5-0.6,0.9-1.2,1.8-1.2
		c-0.9,2.5-2.5,4.6-4.4,6.5c-1,1.1-1.9,1-2.9-0.1c-1.6-1.8-2.4-4-3.3-6.2C224.9,216,224.9,215.5,225.4,215.2z"/>
	<path fill="#FFFFFF" d="M159,165.4c0.1,1.3-0.4,2.4-0.9,3.5c-1.4,3.1-3.6,3.4-5.7,0.8c-0.6-0.7-1.1-1.5-1.1-2.5
		C153.9,166.6,156.4,166,159,165.4z"/>
	<path fill="#DBD4E6" d="M121.4,167.4c-4.7,1.5-9.5,2.3-14.4,0.9c-0.6-0.2-1.8,0.3-1.6-1.1c2,0.1,3.9,0.1,5.9,0.2
		c3,0.1,5.9-0.4,8.7-1.5c0.5-0.2,1-0.8,1.5-0.3C122,166.1,121.9,166.8,121.4,167.4z"/>
	<path fill="#F7F24F" d="M234,172.4c-0.5-0.8-0.3-1.6-0.1-2.4c0.5-2.3,1.6-2.7,3.5-1.4c0.7,0.5,1.4,0.9,2,1.4c2.7,2.2,2.7,2.3,0,4.6
		C237.8,173.3,236.5,171.5,234,172.4z"/>
	<path fill="#FFFFFF" d="M174.8,277c1.9,3,4,5.9,6.4,8.6c-0.4,1.2-0.6,3-1.7,3.1c-1.1,0.1-1.5-1.7-2-2.8
		C176.2,283,175,280.2,174.8,277z"/>
	<path fill="#FFFFFF" d="M152,187.6c0.6-0.5,1.2-0.9,1.8-1.4c3.1-2.4,4.2-2.1,6.2,1.4c0.2,0.3,0.3,0.7,0.4,1.1
		c-0.2,0.2-0.4,0.7-0.5,0.7C157.2,188.8,154.4,189.2,152,187.6z"/>
	<path fill="#FFFFFF" d="M193.5,191.3c0.1-1.2,0.8-2,1.4-2.8c1.5-1.9,3-2.1,4.9-0.5c0.8,0.7,1.5,1.5,2.2,2.3
		C199.3,191.9,196.4,191.1,193.5,191.3z"/>
	<path fill="#FFFFFF" d="M219,188.1c0.2-0.6,0.4-1.3,0.7-1.9c0.8-1.6,1.6-3.3,3.7-3.1c2.1,0.2,3,1.8,3.5,3.7
		C224.3,187.1,221.6,187.6,219,188.1z"/>
	<path fill="#FFFFFF" d="M207.1,190.4c0.2-0.6,0.3-1.2,0.6-1.7c0.7-1.5,1.3-3.4,3.2-3.5c2.1-0.1,2.8,1.7,3.6,3.3
		C212.3,190.2,209.6,189.7,207.1,190.4z"/>
	<path fill="#ACB591" d="M166.8,72.7c0.9,1,0.3,2.2,0.5,3.3c0.1,0.7-0.3,1.6,0.9,1.8c-0.4,1.5-0.8,2.9-1.1,4.4
		c-0.2,0.7-0.5,1.3-1.4,1.3c-1,0-1-0.9-1-1.5C164.5,78.6,165.4,75.6,166.8,72.7z"/>
	<path fill="#F7F24F" d="M159,165.4c-2.6,0.6-5.1,1.2-7.7,1.9c-0.6-1.4,0-2.4,1.3-2.9c1.3-0.5,2.6-1,3.9-1.3
		C158.4,162.6,159,163.2,159,165.4z"/>
	<path fill="#BAC699" d="M235.8,106.2c-1-2.9-2.7-5.2-5-6.9c-0.8-0.6-1.2-1.2-0.5-2.1c0.9-1.1,1.3,0.1,1.8,0.5
		c1.7,1.4,3.3,3,4.3,5.1C236.9,103.8,237.4,105,235.8,106.2z"/>
	<path fill="#DBD4E6" d="M272,170.5c-4.2-0.2-8.4,0.4-12.5-1.3c-0.7-0.3-1.5-0.3-1.8-1.2c4.7,1.2,9.4,1.3,14.2,0.4
		C272.9,168.3,273,168.4,272,170.5z"/>
	<path fill="#F7F24F" d="M152,187.6c2.4,1.6,5.3,1.3,7.9,1.7c0.1,0,0.3-0.4,0.5-0.7c0.5,0.7,1,1.6,0.6,2.3c-0.5,0.9-1.5,0.2-2.3,0.1
		c-2.2-0.3-4.3-0.7-6.5-1.2c-0.7-0.1-1.8,0.1-1.8-0.8C150.4,188.2,151.2,187.9,152,187.6z"/>
	<path fill="#F7F24F" d="M165.2,190.3c3.2,0.2,6.4,0.3,9.5,0.5c0.7,1,1.3,1.9-0.7,1.8c-2.6-0.2-5.3-0.4-7.9-0.6
		C165,191.8,164.1,191.6,165.2,190.3z"/>
	<path fill="#FFFFFF" d="M141.3,180.2c2.2-1.8,4.1-1.9,5.7-0.2c0.5,0.5,1.2,1.2,0.9,2c-0.2,0.8-1.1,0.7-1.7,0.9
		c-0.6,0.2-1.4,0.1-2,0.1C143.4,181.8,141.9,181.4,141.3,180.2z"/>
	<path fill="#168099" d="M137.8,214.3c1.4,0.2,2.9,1,4.3,0c1.2,1.5,0.7,3.2,0.5,4.8c-0.2,1.2-0.9,1.6-1.8,0.5
		C139.6,217.9,138.4,216.3,137.8,214.3z"/>
	<path fill="#168099" d="M241.6,212c1.5-0.2,2.1-1.5,3-2.5c0.4-0.5,0.7-1.1,1.5-1.2c-0.5,2.9-1.7,5.5-3,8c-0.1,0.2-0.4,0.5-0.6,0.5
		c-0.5,0-0.6-0.5-0.7-0.8C241.4,214.7,241.5,213.3,241.6,212z"/>
	<path fill="#F7F24F" d="M219,188.1c2.6-0.5,5.3-0.9,7.9-1.4c0.9,1,0.6,1.6-0.7,1.9c-2,0.4-4,0.8-6,1.3
		C218.4,190.2,218.1,189.5,219,188.1z"/>
	<path fill="#F7F24F" d="M142.7,171.9c-1.8-1.1-1.7-2.1,0.1-3.1c0.7-0.4,1.4-0.9,2.2-1.3c0.8-0.4,1.6-1.2,2.5-0.4
		c0.7,0.7,0.6,1.7,0.1,2.5C145.6,169.5,144,170.3,142.7,171.9z"/>
	<path fill="#FFFFFF" d="M230.8,184.8c0.9-4.1,2.5-4.6,6.2-1.9c-0.7,0.4-1.5,0.8-2.2,1.1C233.5,184.5,232.4,185.7,230.8,184.8z"/>
	<path fill="#F7F24F" d="M230.8,184.8c1.6,0.9,2.7-0.4,4-0.8c0.8-0.3,1.5-0.7,2.2-1.1c1.5,0.5,1.4,1.1,0.1,1.8c-2,1-4.1,1.9-6.4,2.5
		C230.4,186.4,230.4,185.6,230.8,184.8z"/>
	<path fill="#F7F24F" d="M193.5,191.3c2.9-0.2,5.8,0.6,8.5-1c0.5,0.3,1,0.9,0.9,1.4c-0.2,0.6-0.9,0.4-1.4,0.4
		c-2.4,0.2-4.8,0.3-7.3,0.5C193.1,192.7,192.6,192.4,193.5,191.3z"/>
	<path fill="#F7F24F" d="M207.1,190.4c2.5-0.7,5.3-0.1,7.4-1.9c0.9,1.4,1.1,2.3-1.1,2.4c-1.9,0.1-3.8,0.5-5.6,0.7
		C206.6,191.8,206.5,191.3,207.1,190.4z"/>
	<path fill="#FFFFFF" d="M234,172.4c2.5-0.9,3.8,0.9,5.4,2.2C236.5,176.6,234.9,175.9,234,172.4z"/>
	<path fill="#F7F24F" d="M231,177.3c3-0.8,4.8,0.1,6.8,3.7c-1.7-0.5-3.1-1-4.6-1.5C232.9,178.3,232,177.7,231,177.3z"/>
	<path fill="#FFFFFF" d="M231,177.3c1.1,0.4,2,1,2.3,2.2c-2.1,0.4-2.1,0.4-3.4,2.2C228.6,179.5,228.8,178.5,231,177.3z"/>
	<path fill="#ACB591" d="M227.2,31.7c-1.2-0.6-2.5-0.3-3.7-0.1c0.6-1.3,1.7-1.9,2.8-2.6c0.8-0.5,1.7-0.6,2.5,0.2
		c0.9,1.1-0.4,1.4-0.8,1.9C227.7,31.4,227.4,31.5,227.2,31.7z"/>
	<path fill="#FFFFFF" d="M149.2,176.8c0.5,0.2,1.1,0.2,1.5,0.5c0.6,0.4,1.6,0.7,1.5,1.5c-0.1,0.8-1.1,1.2-1.8,1.6
		c-0.9,0.6-1-0.6-1.5-0.9c-0.4-0.3-0.8-0.7-1.1-1.1C147.9,177.5,148.9,177.4,149.2,176.8z"/>
	<path fill="#FFFFFF" d="M142.7,171.9c1.2-1.6,2.9-2.4,4.9-2.3C146.7,172.9,145.4,173.5,142.7,171.9z"/>
	<path fill="#F7F24F" d="M141.3,180.2c0.6,1.2,2.1,1.6,2.9,2.7c-0.8,0.5-1.6,0-2.4-0.1c-0.7-0.1-1.7-0.1-1.8-1
		C139.9,181,140.5,180.4,141.3,180.2z"/>
	<path fill="#FDFDFD" d="M159.9,176.1c0.6-0.7,1.3-1.3,1.9-1.9c0.3-0.3,0.6-1.1,1.2-0.5c0.4,0.4,0.5,1.1-0.2,1.6
		c-1,0.7-1.9,1.5-2.9,2.3l-0.1-0.1C159.9,177,159.9,176.6,159.9,176.1z"/>
	<path fill="#F7F24F" d="M149.2,176.8c-0.3,0.7-1.3,0.7-1.4,1.6c-0.7-0.4-2.2-0.1-2-1.2c0.2-0.9,1.5-0.7,2.4-0.7
		C148.5,176.4,148.9,176.6,149.2,176.8z"/>
	<path fill="#ACB591" d="M111.3,107c1-0.7,2-1.1,3.6-1.4c-0.9,1.3-1.8,1.9-2.9,2.2C111.7,107.6,111.5,107.3,111.3,107z"/>
	<path fill="#FDFDFD" d="M160,177.5c-0.6,0.9-1.5,1.6-2.4,2.2c-0.3-0.2-0.7-0.4-1-0.6c0.7-0.6,1.4-1.3,2.1-1.9
		c0.4,0.1,0.8,0.1,1.2,0.2L160,177.5z"/>
	<path fill="#BAC699" d="M133.5,121.1c0.2,0.2,0.4,0.4,0.6,0.6c-0.5,1-0.5,2.4-1.9,2.7C132.3,123.1,132.8,122.1,133.5,121.1z"/>
	<path fill="#1996BC" d="M180.6,160.3c-0.1-0.3-0.3-0.5-0.4-0.8c0.4,0,0.9,0,1.3,0c0.5,0.7,1.4,0.1,1.9,0.7
		C182.5,160.2,181.6,160.2,180.6,160.3z"/>
	<path fill="#168099" d="M260.9,174.1c0.8-0.6,1.5-0.7,1.9,0.4C262.1,174.7,261.4,174.9,260.9,174.1z"/>
	<path fill="#168099" d="M190.3,208.3c0-0.4,0.2-1.2,0.6-1c0.7,0.5,0.4,1.3,0,1.9C190.7,209,190.5,208.7,190.3,208.3z"/>
	<path fill="#DBD4E6" d="M156.6,179.2c0.3,0.2,0.7,0.4,1,0.6c-0.2,0.4-0.5,0.7-1,0.9c-0.2-0.4-0.3-0.7-0.5-1.1
		C156.3,179.4,156.4,179.3,156.6,179.2z"/>
	<path fill="#1996BC" d="M106.3,259.4c0.3-0.9,0.8-1,1.4-0.3C107.4,259.6,106.9,259.5,106.3,259.4z"/>
	<path fill="#DBD4E6" d="M159.9,177.4c-0.4,0-0.8-0.1-1.2-0.2c0.3-0.5,0.7-0.9,1.2-1.1C159.9,176.6,159.9,177,159.9,177.4z"/>
	<path fill="#BAC699" d="M132.2,124.3c0.1,0.6,0.1,1.1-0.5,1.5C131.1,125.1,131.9,124.8,132.2,124.3z"/>
	<path fill="#168099" d="M244.7,150.6c0,0.7-0.3,1-1,0.9C243.9,150.9,244.2,150.6,244.7,150.6z"/>
	<path fill="#1996BC" d="M232.7,53.4c-0.3-0.1-0.6-0.1-0.6-0.5c0-0.3,0.3-0.4,0.6-0.4C232.8,52.7,232.8,53,232.7,53.4z"/>
	<path fill="#DBD4E6" d="M103.7,167.2c0.2-0.2,0.3-0.3,0.5-0.5c0.4,0.2,1.1-0.2,1.3,0.6C104.9,167.6,104.3,167.3,103.7,167.2z"/>
	<path fill="#1996BC" d="M177.8,34.9c-0.4-0.5-0.4-0.9,0-1.4C177.8,34,177.8,34.4,177.8,34.9z"/>
	<path fill="#BAC699" d="M135.1,286.5c-0.3,0.2-0.6,0.5-1,0.2c0.2-0.2,0.4-0.4,0.6-0.6C134.9,286.1,135,286.3,135.1,286.5z"/>
	<path fill="#DBD4E6" d="M79.6,73.6c0,0.4,0,0.8-0.4,1C79.2,74.2,79.1,73.7,79.6,73.6z"/>
	<path fill="#DBD4E6" d="M195.9,281.2c-0.4,0-0.8,0-1-0.5C195.4,280.6,195.7,280.7,195.9,281.2z"/>
	<path fill="#FDFDFD" d="M129.3,269.5c0.3-0.3,0.6-0.3,0.9-0.1c-0.2,0.1-0.5,0.2-0.7,0.2C129.4,269.6,129.3,269.6,129.3,269.5z"/>
	<path fill="#DBD4E6" d="M104,94.4c-0.4-0.2-0.4-0.6-0.4-1C104.3,93.5,104,94,104,94.4z"/>
	<path fill="#1996BC" d="M211,300.5c0.1,0,0.2-0.1,0.3-0.1c0,0.1-0.1,0.2-0.1,0.3C211.1,300.6,211,300.5,211,300.5z"/>
	<path fill="#1996BC" d="M178.3,159.6c-0.2,0.2-0.3,0.3-0.5,0.1C178,159.6,178.2,159.6,178.3,159.6z"/>
	<path fill="#1996BC" d="M176.5,159.7c-0.2,0-0.4,0-0.5,0.1C176.2,159.5,176.3,159.5,176.5,159.7z"/>
	<path fill="#BAC699" d="M164.5,292.7c0.1,0.1,0.2,0.1,0.2,0.2c-0.1,0-0.1,0-0.1,0C164.5,292.9,164.5,292.8,164.5,292.7L164.5,292.7
		z"/>
	<path fill="#DBD4E6" d="M196.4,281.6c-0.2-0.2-0.3-0.3-0.5-0.5C196.2,281.2,196.6,281.1,196.4,281.6z"/>
	<path fill="#DBD4E6" d="M195,280.7c-0.2-0.2-0.3-0.4-0.5-0.5C194.8,280.3,195,280.4,195,280.7z"/>
	<path fill="#1996BC" d="M177.5,36.8c0-0.2,0.1-0.4,0.1-0.6C177.6,36.4,177.6,36.6,177.5,36.8z"/>
	<path fill="#1996BC" d="M147,254.5c0.1-0.2,0.3-0.3,0.4-0.5C147.3,254.2,147.2,254.3,147,254.5z"/>
	<path fill="#0B092B" d="M133,129.8c1.2-5.8,3.1-11.2,8.3-14.7c5.5-3.7,10.9-2.1,12.8,4.1c3.6,12.1,2.9,23.6-6.2,33.3
		c-3.9,4.2-9.1,6.2-15,6.4c0.8-0.5,1.6-1,2.4-1.5c1.9-0.8,3.7-1.6,5.5-2.9c-1.8-0.7-3.4-1.1-4.6-2.4c-2.8-2.9-3.3-6.6-3.5-10.3
		C132.5,137.9,132.5,133.8,133,129.8z M141.7,152.2c-1.3-2.3-2.5-4-3-6.1c-1.7-6.8-1.4-13.5,0.8-20.2c1.3-3.9,3.8-6.8,7.5-8.6
		c0.5-0.2,1.5-0.2,1.2-1.1c-0.2-0.6-1-0.7-1.6-0.6c-2.3,0.2-4,1.5-5.4,3.2c-4,4.7-5.6,10.3-6.1,16.3c-0.3,3.7-0.5,7.5,0.8,11.2
		C136.8,149,138.3,151.1,141.7,152.2z"/>
	<path fill="#0B092B" d="M214.5,196.1c-16.5,8-33.3,8-50.4,2.2c8.4,0.7,16.8,1.1,25.2,0.9C197.8,199.1,206.1,197.6,214.5,196.1z"/>
	<path fill="#168099" d="M133,129.8c-0.5,4-0.5,8.1-0.3,12.1c0.2,3.7,0.7,7.4,3.5,10.3c1.3,1.3,2.9,1.6,4.6,2.4
		c-1.8,1.3-3.6,2.1-5.5,2.9c-2.2-2.5-4.1-5.2-4.8-8.6c-1.4-6.4-0.1-12.4,1.7-18.5C132.4,130.2,132.7,130,133,129.8z"/>
	<path fill="#0B092B" d="M208.3,152.5c-0.2,0.2-0.3,0.4-0.5,0.5c-6.4-1.2-12.7-2.3-19.2-2.4c-7.2,0-14.3,0.8-21.3,2.2
		c0-0.3,0-0.6,0-0.9c6.3-2.4,13-3.5,19.7-3.5c6.4,0,12.8,0.8,18.9,3.2C206.7,152.1,207.5,152.3,208.3,152.5z"/>
	<path fill="#168099" d="M167.3,152.1c0,0.3,0,0.6,0,0.9c-1.1,0.3-2.2,0.7-3.3,1c-0.1-0.2-0.2-0.4-0.3-0.7
		C164.7,152.5,165.9,152.1,167.3,152.1z"/>
	<path fill="#168099" d="M256,173.2c0.2,0.4-0.1,0.5-0.3,0.5c-0.2,0-0.5-0.1-0.5-0.3c-0.1-0.3,0.1-0.4,0.3-0.4
		C255.7,173,255.8,173.2,256,173.2z"/>
	<path fill="#168099" d="M162.8,154.1c-0.1,0.1-0.3,0.2-0.4,0.2c-0.1,0-0.2-0.1-0.4-0.2c0.1-0.1,0.3-0.2,0.4-0.2
		C162.6,153.9,162.7,154.1,162.8,154.1z"/>
	<path fill="#0B092B" d="M114.3,206.4c-0.8,1.1-1.4,2-2.1,3c-2,2.9-2,2.9,0.7,5c2.9,2.3,2.9,2.3,0.6,5.4c-2.3,2.9-2.3,2.9-5.3,0.6
		c-2.4-1.9-2.4-1.9-4.1,0.6c-2.2,3.1-2.2,3.1-5.5,0.8c-2.9-2.1-2.9-2.1-0.9-5c2.1-3,2.1-3-0.8-5.3c-2.7-2.1-2.7-2.1-0.5-4.9
		c2.5-3.2,2.6-3.3,5.6-0.6c1.8,1.5,2.6,1.4,3.9-0.6c2.2-3.4,2.3-3.3,5.6-1C112.4,205,113.3,205.6,114.3,206.4z"/>
	<path fill="#0B092B" d="M221.8,127.2c1,0.1,1.6,0.7,1.1,2.1c-0.8,2.1-4.7,4.7-6.9,4.6c-1.4-0.1-1.9-0.8-1.5-2.1
		C215.2,129.7,219.3,127,221.8,127.2z"/>
	<path fill="#0B092B" d="M232.4,127.8c2.2,0.1,5.8,2.9,6.4,5c0.5,1.6-0.3,2.5-1.9,2.1c-2.7-0.6-4.7-2.3-5.9-4.7
		C230.2,128.7,230.9,127.8,232.4,127.8z"/>
	<path fill="#0B092B" d="M180.6,160.3c0.9,0,1.9-0.1,2.8-0.1c3,0,5.3,1.3,7.3,3.4c2.5,4.3,2,8.2-1.2,10.9c-3.5,3-9.1,3.1-12.8,0.2
		c-3.3-2.5-4.4-7.1-1.6-11.2c1.2-1.1,2.5-2.2,4.1-2.8c0.4,0.1,0.6,0,0.8-0.3C180.3,160.3,180.5,160.3,180.6,160.3z M178.4,163.6
		c-2.3,1-3,2.7-3.2,4.7c-0.1,2.2,1.3,4.3,4.2,5.7C177.3,170.5,176.6,167.2,178.4,163.6z"/>
	<path fill="#0B092B" d="M137.9,285.5c0,0,0.1,0,0.1,0c0,0,0.1,0.1,0.1,0.1c-0.1,0.2-0.2,0.2-0.3,0
		C137.8,285.6,137.8,285.6,137.9,285.5z"/>
	<path fill="#1996BC" d="M180.1,160.4c-0.2,0.4-0.5,0.4-0.8,0.3C179.5,160.4,179.7,160.3,180.1,160.4z"/>
	<path fill="#1996BC" d="M141.7,152.2c-3.3-1.1-4.9-3.2-5.8-5.9c-1.3-3.6-1.1-7.4-0.8-11.2c0.5-6,2-11.6,6.1-16.3
		c1.4-1.6,3.1-3,5.4-3.2c0.6,0,1.4,0,1.6,0.6c0.3,0.8-0.7,0.8-1.2,1.1c-3.7,1.8-6.3,4.7-7.5,8.6c-2.2,6.6-2.4,13.4-0.8,20.2
		C139.2,148.2,140.4,149.9,141.7,152.2z"/>
	<path fill="#1996BC" d="M178.4,163.6c-1.8,3.5-1.1,6.9,1,10.5c-2.9-1.4-4.3-3.5-4.2-5.7C175.3,166.3,176.1,164.6,178.4,163.6z"/>
</g>
</svg>
