<?xml version="1.0" encoding="utf-8"?>
<!-- Generator: Adobe Illustrator 16.0.0, SVG Export Plug-In . SVG Version: 6.00 Build 0)  -->
<!DOCTYPE svg PUBLIC "-//W3C//DTD SVG 1.1//EN" "http://www.w3.org/Graphics/SVG/1.1/DTD/svg11.dtd">
<svg version="1.1" id="Ebene_1" xmlns="http://www.w3.org/2000/svg" xmlns:xlink="http://www.w3.org/1999/xlink" x="0px" y="0px"
	 width="314px" height="119px" viewBox="0 0 314 119" enable-background="new 0 0 314 119" xml:space="preserve">
<path fill-rule="evenodd" clip-rule="evenodd" d="M304.374,26.679c4.353,9.367,0.572,24.976-10.972,30.708
	c-15.607,7.75-22.713,19.156-23.878,35.601c-0.081,1.112-0.262,2.521-0.961,3.236c-4.082,4.17-8.328,8.176-12.521,12.24
	c-3.526-5.262-7.65-10.232-10.323-15.892c-1.26-2.682-0.235-6.806,0.619-10.048c2.787-10.556-1.237-16.879-10.902-21.41
	c-4.967-2.327-9.471-6.46-13.104-10.699c-9.111-10.636-9.191-21.536-1.006-28.867c8.312-7.446,20.895-8.185,28.911,1.975
	c10.316,13.077,14.779,11.521,23.604-1.516C281.79,10.276,298.447,13.945,304.374,26.679z"/>
<path fill-rule="evenodd" clip-rule="evenodd" d="M87.824,50.833c1.93-5.803,3.087-12.02,5.949-17.319
	c6.265-11.597,20.012-12.354,27.166-1.242c3.525,5.476,4.914,12.407,6.791,18.819c0.894,3.051,0.297,6.529,1.113,9.62
	c0.432,1.633,2.449,2.844,3.751,4.249c1.21-1.354,2.857-2.518,3.547-4.1c1.528-3.494,2.571-7.199,3.819-10.814
	c1.991-5.771,5.651-9.765,12.033-10.083c6.243-0.312,10.844,2.904,13.473,8.328c6.148,12.684,7.978,26.115,2.834,39.348
	c-2.781,7.149-6.954,14.5-12.46,19.672c-7.652,7.187-15.255,4.615-19.611-5.068c-1.437-3.194-1.754-6.884-3.161-10.095
	c-0.905-2.067-2.906-5.183-4.335-5.144c-2.329,0.067-4.987,1.95-6.778,3.78c-2.002,2.043-2.972,5.05-4.77,7.346
	c-7.571,9.672-20.104,8.922-23.544-2.688c-3.606-12.174-3.839-25.36-5.382-38.12c-0.242-1.998,0.383-4.1,0.608-6.153
	C88.52,51.055,88.172,50.945,87.824,50.833z"/>
<path fill-rule="evenodd" clip-rule="evenodd" d="M18.22,78.236c1.449-9.282,2.086-18.78,4.512-27.796
	c5.527-20.537,24.248-27.862,42.032-15.873C81.661,45.96,92.688,62.278,96.953,82.404c2.67,12.595-7.458,24.804-18.794,23
	c-8.532-1.357-16.111-5.276-21.795-12.236c-1.394-1.708-3.298-3.005-4.966-4.491c-0.697,2.077-1.016,4.403-2.167,6.189
	c-2.919,4.523-5.335,10.159-9.547,12.905c-8.114,5.29-15.356,1.764-18.418-7.514c-0.644-1.952-1.345-3.951-1.512-5.973
	c-0.431-5.285-0.582-10.588-0.844-15.887C18.677,78.342,18.449,78.291,18.22,78.236z M44.231,65.029
	c-3.457-1.449-6.894-2.102-3.593,2.474c0.831,1.15,1.299,3.094,0.979,4.446c-1.011,4.279,1.53,4.232,3.519,2.497
	c2.786-2.428,4.842-3.909,8.062-0.826c0.697,0.665,3.706,0.185,3.711,0.115c0.272-4.302-4.814-7.871-1.66-12.625
	c-1.08-0.125-2.167-0.374-3.235-0.316c-0.45,0.023-0.81,0.801-1.304,1.055C48.568,62.945,46.394,63.975,44.231,65.029z"/>
<path fill-rule="evenodd" clip-rule="evenodd" d="M154.306,73.086c0.313-26.822,25.231-39.75,49.424-39.503
	c23.542,0.24,40.666,16.265,40.211,37.634c-0.44,20.779-16.955,35.517-39.202,35.531C182.415,106.757,152.242,93.233,154.306,73.086
	z"/>
<path fill-rule="evenodd" clip-rule="evenodd" fill="#FFFE00" stroke="#000000" stroke-width="3" stroke-miterlimit="10" d="
	M291.874,26.679c4.353,9.367,0.572,24.976-10.972,30.708c-15.607,7.75-22.713,19.156-23.878,35.601
	c-0.081,1.112-0.262,2.521-0.961,3.236c-4.082,4.17-8.328,8.176-12.521,12.24c-3.526-5.262-7.65-10.232-10.323-15.892
	c-1.26-2.682-0.235-6.806,0.619-10.048c2.787-10.556-1.237-16.879-10.902-21.41c-4.967-2.327-9.471-6.46-13.104-10.699
	c-9.111-10.636-9.191-21.536-1.006-28.867c8.312-7.446,20.895-8.185,28.911,1.975c10.316,13.077,14.779,11.521,23.604-1.516
	C269.29,10.276,285.947,13.945,291.874,26.679z"/>
<path fill-rule="evenodd" clip-rule="evenodd" fill="#FFFE00" stroke="#000000" stroke-width="3" stroke-miterlimit="10" d="
	M75.324,50.833c1.93-5.803,3.087-12.02,5.949-17.319c6.265-11.597,20.012-12.354,27.166-1.242
	c3.525,5.476,4.914,12.407,6.791,18.819c0.894,3.051,0.297,6.529,1.113,9.62c0.432,1.633,2.449,2.844,3.751,4.249
	c1.21-1.354,2.857-2.518,3.547-4.1c1.528-3.494,2.571-7.199,3.819-10.814c1.991-5.771,5.651-9.765,12.033-10.083
	c6.243-0.312,10.844,2.904,13.473,8.328c6.148,12.684,7.978,26.115,2.834,39.348c-2.781,7.149-6.954,14.5-12.46,19.672
	c-7.652,7.187-15.255,4.615-19.611-5.068c-1.437-3.194-1.754-6.884-3.161-10.094c-0.905-2.068-2.906-5.183-4.335-5.144
	c-2.329,0.067-4.987,1.95-6.778,3.78c-2.002,2.042-2.972,5.05-4.77,7.346c-7.571,9.672-20.104,8.922-23.544-2.688
	c-3.606-12.174-3.839-25.36-5.382-38.12c-0.242-1.998,0.383-4.1,0.608-6.153C76.02,51.055,75.672,50.945,75.324,50.833z"/>
<path fill-rule="evenodd" clip-rule="evenodd" fill="#FFFE00" stroke="#000000" stroke-width="3" stroke-miterlimit="10" d="
	M4.72,78.236C6.726,60.18,6.425,60.873,9.232,50.439c5.527-20.537,24.248-27.862,42.032-15.873
	C68.161,45.96,79.188,62.278,83.453,82.404c2.67,12.595-7.458,24.804-18.794,23c-8.532-1.357-16.111-5.276-21.795-12.236
	c-1.394-1.708-3.298-3.005-4.966-4.491c-0.697,2.077-1.016,4.403-2.167,6.189c-2.919,4.523-5.335,10.159-9.547,12.905
	c-8.114,5.29-15.356,1.764-18.418-7.514c-0.644-1.952-1.345-3.951-1.512-5.973C5.821,88.999,4.72,78.236,4.72,78.236z"/>
<g>
	<path fill-rule="evenodd" clip-rule="evenodd" fill="#FFFE00" stroke="#000000" stroke-width="3" stroke-miterlimit="10" d="
		M147.806,69.086c0.313-26.822,25.231-39.75,49.424-39.503c23.542,0.24,40.666,16.265,40.211,37.634
		c-0.44,20.779-16.955,35.517-39.202,35.531C175.915,102.757,145.742,89.233,147.806,69.086z"/>
	<g>
		<g>
			<path fill="#FAFFFA" d="M202.293,43.482c12.712-0.525,23.752,6.466,24.593,19.847c0.793,12.621-5.048,20.18-16.379,25.059
				c-4.403,1.896-2.358,11.625,2.557,9.509c6.758-2.909,12.922-6.857,16.915-13.186c4.065-6.444,4.693-14.408,4.395-21.822
				c-0.726-18.031-14.938-30.122-32.667-29.389C196.708,33.706,197.278,43.689,202.293,43.482L202.293,43.482z"/>
		</g>
	</g>
</g>
<g>
	<g>
		<path fill="#FFFFFF" d="M92.881,36.79c3.884,2.641,5.615,7.739,7.142,11.967c1.78,4.927,3.054,10.037,4.257,15.129
			c1.429,6.047,8.537-0.131,7.44-4.771c-1.304-5.521-2.763-10.994-4.691-16.333c-1.834-5.079-4.266-11.172-8.91-14.33
			C93.657,25.418,88.946,34.114,92.881,36.79L92.881,36.79z"/>
	</g>
</g>
<g>
	<g>
		<path fill="#FFFFFF" d="M33.978,38.627c11.514,3.184,22.146,10.028,29.088,19.917c5.566,7.93,6.417,18.39,8.963,27.492
			c1.354,4.837,11.253,3.613,9.942-1.072c-2.96-10.58-4.02-22.204-10.804-31.233C63.021,42.89,51.302,35.242,38.302,31.648
			C33.367,30.283,27.663,36.882,33.978,38.627L33.978,38.627z"/>
	</g>
</g>
<g>
	<g>
		<path fill="#FFFFFF" d="M21.066,109.18c8.279-4.76,11.594-13.711,15.84-21.727c0.785-1.482-0.028-3.462-1.734-3.689
			c-2-0.266-3.519,1.268-4.369,2.873c-3.277,6.188-5.721,13.602-12.111,17.276C14.966,106.054,16.817,111.623,21.066,109.18
			L21.066,109.18z"/>
	</g>
</g>
<g>
	<g>
		<path fill="#FFFFFF" d="M271.211,20.921c7.908-0.398,12.977,8.729,14.098,15.447c1.365,8.19-6.945,13.751-12.383,18.306
			c-9.51,7.965-21.908,17.306-21.902,30.984c0.001,2.125,4.954,2.668,4.953,0.684c-0.008-18.057,20.698-26.985,31.048-38.891
			c9.864-11.348-3.229-30.283-16.731-29.602C266.97,18.016,268.631,21.051,271.211,20.921L271.211,20.921z"/>
	</g>
</g>
<g>
	<g>
		<path fill="#FFFFFF" d="M95.155,3.018c5.195,0,8.238-8.035,1.689-8.035C91.65-5.018,88.607,3.018,95.155,3.018L95.155,3.018z"/>
	</g>
</g>
<g>
	<g>
		<path d="M175.44,68.75c8.649,0.908,17.322,0.533,26,0.5c6.217-0.023,6.37-7.523,0.119-7.499c-8.679,0.033-17.351,0.408-26-0.5
			C169.308,60.594,169.338,68.109,175.44,68.75L175.44,68.75z"/>
	</g>
</g>
<g>
	<g>
		<path d="M180.706,77.084c6.671,0.475,13.339,0.565,20.025,0.566c4.725,0.001,7.363-9.301,1.538-9.302
			c-5.994-0.001-11.993-0.008-17.975-0.434c-2.544-0.181-4.618,1.346-5.55,3.726C178.089,73.313,178.165,76.904,180.706,77.084
			L180.706,77.084z"/>
	</g>
</g>
<g>
	<g>
		<path d="M26.635,62.352c2.893,6.759,5.641,13.462,6.685,20.788c0.927,6.506,8.161,3.34,7.36-2.278
			c-1.161-8.147-4.095-15.689-7.315-23.212C30.788,51.629,24.59,57.575,26.635,62.352L26.635,62.352z"/>
	</g>
</g>
</svg>
