<?xml version="1.0" encoding="utf-8"?>
<!-- Generator: Adobe Illustrator 18.0.0, SVG Export Plug-In . SVG Version: 6.00 Build 0)  -->
<!DOCTYPE svg PUBLIC "-//W3C//DTD SVG 1.1//EN" "http://www.w3.org/Graphics/SVG/1.1/DTD/svg11.dtd">
<svg version="1.1" id="Ebene_1" xmlns="http://www.w3.org/2000/svg" xmlns:xlink="http://www.w3.org/1999/xlink" x="0px" y="0px"
	 viewBox="0 0 219 181" enable-background="new 0 0 219 181" xml:space="preserve">
<path fill="#C6F0F7" d="M45.8,86.3c-3.9-0.3-6.3-2.4-7.1-3.1c-1.3-1.1-2-2.5-2-4c0-0.6,0-1.3,0.2-2.2c-0.1-3.8-1.5-21.2-2.5-34.1
	c0-0.1,0-0.2,0-0.3c0-0.7,0-1.4-0.1-2.1c-0.1,0-0.3,0-0.4,0c-1.8-0.1-3.6-0.8-4.9-1.8c-2.9-2.3-3.6-4.7-3.6-6.2c0-1.7,0.7-4.8,6.2-7
	c1.4-0.5,2.9-0.8,4.4-0.7c0.4,0,0.7,0.1,1.1,0.1c0.2,0,0.3,0.1,0.5,0.1c2.2-0.2,3.8-0.3,5-0.3l8.6-0.1c1.3,0,3-0.1,4.9-0.4
	c0.7-0.1,1.3-0.1,2,0c1.9,0.1,3.8,0.8,5.1,2l1.4,1.2c1.3,1.1,2,2.5,2,3.9l0,0.6c0,1.8-0.9,3.6-2.5,4.9c-2.4,1.9-5.7,2.5-9.3,2.7
	l0.1,0.9c0,0.4,0,0.8-0.1,1.2c0,0.1-0.1,0.3-0.1,0.4C56,57.5,56.8,68.8,57,75.9c0.2,0.5,0.2,1.1,0.2,1.7c0,0.1,0,0.3,0,0.4
	c0.2,1.1,0,2.2-0.5,3.3c-1.7,3.1-5.1,5-9.1,5l-0.8,0C46.5,86.3,46.2,86.3,45.8,86.3z"/>
<path fill="#C6F0F7" d="M101.1,88.2c-1.5-0.1-2.9-0.5-4-1.2l-1.4-0.9c-1.8-1.1-2.8-2.7-2.8-4.5c0-1.3,0.1-2.3,0.2-3.1
	c0-8.2,0-13.4-0.1-16.7c-1.6,0-3.3-0.1-4.9-0.2c0,3.3-0.1,6.3-0.3,8.9c0.1,1.8,0.1,5,0.1,9.8c0,2-1.4,3.8-3.6,4.8
	c-2.1,1-4.1,1.4-6,1.4c-0.1,0-0.4,0-0.5,0c-1.8-0.1-5.2-0.7-7.6-3.9c-0.7-0.9-1-1.9-1-2.9l0-1.4c0.1-4.6,0-6.6-0.1-7.5
	c0-0.2,0-0.4,0-0.6c0.1-2.2,0.2-5,0.3-8.3l0-2c-0.3-4.7-0.5-7.9-0.4-9.9c0-0.1,0-0.1,0-0.2c0.4-9.8,0.7-16.4,0.8-19.5
	c-0.1-0.6-0.2-1.2-0.2-1.9c0-1.8,1.1-3.4,3-4.5l1.4-0.8c1.3-0.7,2.8-1.1,4.3-1.1l1.2,0c0.1,0,0.3,0,0.4,0c1.2,0.1,2.3,0.3,3.3,0.8
	c3.3,1.6,5.2,4,5.2,6.7c0,1.7-0.2,7.7-0.6,17.9c1.6,0.1,3.3,0.1,4.9,0.2c0-0.4,0-0.7,0-1l0.1-5.6c-0.4-1-0.3-2.1,0.1-3.1
	c0.1-3.9,0.2-7.1,0.3-9.6c0-1.8,1.1-3.4,3-4.5l1.4-0.8c1.3-0.7,2.8-1.1,4.3-1.1l1.2,0c0.1,0,0.3,0,0.4,0c1,0.1,1.9,0.3,2.8,0.6
	c5,2,5.5,5.2,5.5,6.5c0,4.4-0.2,8-0.5,10.6l0.2,13.4c0.3,0.7,0.4,1.4,0.4,2.1c0,0.5-0.1,1.1-0.3,1.6c0.2,4.2,0.2,11.6,0.2,22
	c0,0.4,0,0.7-0.1,1.1c0,0,0,0,0,0c0,0-0.1,0.5-0.1,2.1c0,1.9-1.2,3.6-3.2,4.6l-1.3,0.7c-1.2,0.6-2.6,0.9-4.1,0.9l-1.4,0
	C101.4,88.2,101.2,88.2,101.1,88.2z"/>
<path fill="#C6F0F7" d="M130.1,87.9c-5.5-0.7-8.2-4.4-8-11c0.7-19.1,1.6-32,2.7-39.4l0.2-4.3c0.1-2.2,0-4.2-0.3-6
	c0-0.3-0.1-0.6-0.1-0.9c0.1-1.8,1.1-4.3,5.5-6.2c1.2-0.5,2.5-0.8,3.8-0.7l0.8,0c0.4,0,0.7,0,1.1,0.1c9,1.1,8.6,10.3,8.5,15.3
	l-0.1,2.1c-0.1,2.3-0.7,7.5-1.9,16.5c0.1,0.4,0.2,0.9,0.1,1.4c-0.3,5.6-0.6,10.2-0.7,13.6l-0.4,10.2c0,0.2,0.1,0.4,0.2,0.7
	c0.2,0.7,0.2,1.5,0,2.3c-1.2,4.9-5.9,6.6-9.6,6.5l-0.8,0C130.7,88,130.4,87.9,130.1,87.9z"/>
<path fill="#C6F0F7" d="M166.6,88.9c-0.2,0-0.4,0-0.6,0c-4.2-0.2-7.5-2-9.1-4.9c-0.4-0.8-0.6-1.6-0.5-2.4l0-0.6
	c0.1-1,0.8-5.9,9.2-6.5c0.5-0.1,1-0.3,1.2-0.4c0.1-0.1,0.1-0.2,0.2-0.2c0.8-1.1,1.4-2.8,1.5-4.9c0.2-2.4-1.1-4.9-4-7.6
	c-3.9-2.6-6.8-5.1-8.8-7.6c-2-2.1-3.4-5.6-4.6-11.3c-0.1-0.4-0.1-0.8-0.1-1.2c0-0.2,0-0.6,0-1.5c0-0.2,0-0.5,0-0.7
	c0.3-4.5,1.8-8.5,4.3-12c0.2-0.3,0.4-0.5,0.6-0.7c3.6-3.5,9.4-5.3,17.3-5.3c0.8,0,1.7,0,2.5,0.1c2.2,0.1,4.3,1,5.5,2.4l1.1,1.2
	c0.9,1,1.4,2.3,1.3,3.5l0,0.5c-0.3,3.5-4,5.3-5.5,6c-1.1,0.5-2.5,0.8-3.8,0.8c-0.1,0-0.3,0-0.4,0l-2.5-0.1c-0.6,1.4-1,3-1.1,4.7
	c0,0.1-0.1,1.6,1.7,6c0.7,0.7,2.8,2.6,9.1,7.6c0.4,0.3,0.7,0.6,1,1c4.2,5.2,6.1,10.5,5.7,15.6c-0.3,3.9-1.7,7.7-4.1,11.3
	c-1.9,2.9-5.6,5-11.2,6.4C170.4,88.6,168.5,88.9,166.6,88.9z"/>
<path fill="#C6F0F7" d="M41.8,160.9c-2.1-0.1-5.2-0.7-7.8-3.6c-0.8-0.9-1.3-1.9-1.3-3l-0.1-1.9c-0.1-0.6-0.3-1.6-0.6-3.4
	c0-0.1,0-0.3,0-0.4c0-0.4,0-0.9,0-1.5l-0.7-5.2c0-0.3-0.1-0.6,0-1c0.1-1,0.1-1.6,0.1-1.8c-0.1-0.6-0.1-1.1-0.2-1.5
	c-0.7-1-1.1-2.1-1.1-3.3c0-0.5,0-1,0.2-1.4c0.1-0.4,0.2-0.7,0.3-1c-0.3-2.2-0.4-2.9-0.4-3.4c0,0-0.4-27.9-0.4-27.9
	c-0.2-0.6-0.4-1.4-0.4-2.2l0-0.5c-0.1-1.8,0.7-4.3,4.9-6.4c1.1-0.6,2.4-0.9,3.7-0.9c0.8,0,1.6,0,2.4,0c9.2,0.3,16.4,4,20.1,10.5
	c0.1,0.1,0.1,0.3,0.2,0.4c0.7,1.5,1.2,3.3,1.5,5.2c0,0.1,0,0.3,0,0.4c0.4,7.4-0.9,15.6-3.8,24.4c-0.1,0.4-0.4,0.9-0.6,1.3
	c-1.7,2.5-4.1,4.6-7.2,6.3c0,0.1-0.1,1-0.1,1.3c0.5,4.7,0.8,7.1,1,8.3c0.5,0.9,0.8,2.1,0.9,3.5l0,0.6c0,0.7-0.1,1.4-0.4,2
	c-1.5,3.4-4.1,4.9-6.1,5.6c-0.9,0.3-1.8,0.5-2.7,0.5l-0.7,0C42.3,160.9,42,160.9,41.8,160.9z"/>
<path fill="#C6F0F7" d="M76.9,160c-1.8,0-5.2-0.6-7.9-3.8c-0.8-0.9-1-2.1-1-3.2v-1c0-0.7-0.1-1.2-0.1-1.5c0-0.1-0.1-0.2,0-0.4
	l0.1-0.4c0-0.1,0.1-0.3,0.1-0.4V139c0-12.3-1.1-22.6-1.6-30.8l-0.6-4.7c-0.1-0.7,0-1.5,0.3-2.2C67.4,98,71,96,75.4,96h0.2
	c1.5,0,5.4,0.4,8.1,3.8c0.7,0.9,1.1,1.9,1.1,2.9c0,0.1,0,0.2,0,0.4c0.2,0.8,0.2,1.7,0,2.6c0.7,9.4,0.9,17.5,0.9,24
	c0.4,2.5,0.4,5.8,0.4,9.9v6.4h16.1c3.5,0,6.5,1.4,8.2,3.9c0.5,0.8,0.8,1.5,0.8,2.3v0.6c0,1.2-0.5,7.2-11.5,7.2H76.9z"/>
<path fill="#C6F0F7" d="M122.3,158.7c-3.9-0.2-6.3-1.5-7.6-2.5c-1.4-1.1-2.9-3.1-2.7-6.2c0-0.1,0-0.3,0-0.4
	c0.8-4.7,1.4-8.1,1.8-10.6c0.6-3.2,0.9-5,1-6.2c0-1.6,0-3.2,0.1-4.8c0.6-8.1,2.1-16.8,4.4-25.7c0-0.1,0.1-0.2,0.1-0.3
	c2.5-7.4,8.3-8.5,11.5-8.5c0.2,0,0.4,0,0.6,0l0.5,0c1.1,0,2.1,0.3,3,0.6c4.3,1.7,7.4,5.1,9.2,10c0,0,0,0.1,0,0.1
	c3.4,9.9,5.5,22.4,6.4,37.3c0.2,1,0.4,1.8,0.5,2.6c0.6,2.6,0.9,4.4,0.7,7.8c0,0.7-0.3,1.4-0.7,2.1c-0.8,1.3-3.3,4.3-9.8,4.3
	c-0.3,0-0.6,0-0.9,0c-2.7-0.1-5.1-1.4-6.2-3.3c-0.9-1.6-1.7-3.3-2.3-7.3l-0.4,2.1c0.2,0.7,0.3,1.4,0.2,2.1c-0.1,1.7-1.2,4.3-5.8,6.1
	c-1,0.4-2.2,0.7-3.4,0.7C122.5,158.7,122.4,158.7,122.3,158.7z"/>
<path fill="#C6F0F7" d="M166.7,159.1c-0.6,0-1.3-0.1-1.9-0.2c-1.7-0.4-4.8-1.5-6.5-4.8c-0.5-0.9-0.6-1.8-0.5-2.8
	c2-12.8,3.4-21.8,4.4-26.7c-3-5.3-7-10.8-11.8-16.2c-3.4-2.4-3.8-5-3.7-6.4l0-0.3c0.1-1.7,1.1-4.2,5.5-6.1c1.1-0.5,2.3-0.7,3.6-0.7
	c0.1,0,1.8,0,1.8,0c0.9,0,1.8,0.2,2.6,0.5c1.5,0.5,4.2,1.8,5.7,4.7c1.4,1.5,2.8,3,4.1,4.6c1.6-2.2,3.3-4,4.7-5.6
	c0.9-1,1.7-1.9,2.1-2.5c0.6-0.8,1.5-1.5,2.5-2l1.5-0.7c1.1-0.5,2.5-0.8,3.8-0.8c0.1,0,1.1,0,1.1,0c1.9,0.1,5.5,0.6,8.1,4.1
	c0.7,0.9,1.1,2,1,3.1l0,0.4c0,0.7-0.2,1.4-0.6,2.1c-1.3,2.2-2.9,4.6-4.7,7.1c-3.1,4.4-6.5,9.3-7.7,13.3l0,0c0.1,0.3,0.1,0.6,0.1,1
	l-0.1,1.4c0,0.8-0.3,1.6-0.8,2.3c-0.3,1.1-1,4.2-2.3,13.5c-0.7,5.6-1.4,9.9-2.3,13c-0.5,1.8-2,3.3-4.1,4l-1.3,0.5
	c-0.9,0.3-2,0.5-3,0.5C168.1,159.2,166.7,159.1,166.7,159.1z"/>
<path fill="#C6F0F7" d="M2,178V3h212v174L2,178z M8,9v163l200-1V9H8z"/>
</svg>
